<?xml version="1.0" encoding="UTF-8"?>
<!DOCTYPE svg PUBLIC "-//W3C//DTD SVG 1.1//EN" "http://www.w3.org/Graphics/SVG/1.1/DTD/svg11.dtd">
<!-- Creator: CorelDRAW X6 -->
<svg xmlns="http://www.w3.org/2000/svg" xml:space="preserve" width="2500mm" height="2000mm" version="1.1" style="shape-rendering:geometricPrecision; text-rendering:geometricPrecision; image-rendering:optimizeQuality; fill-rule:evenodd; clip-rule:evenodd"
viewBox="0 0 250000 200000"
 xmlns:xlink="http://www.w3.org/1999/xlink">
 <defs>
  <style type="text/css">
   <![CDATA[
    .str4 {stroke:#1F1B20;stroke-width:50}
    .str3 {stroke:#1F1B20;stroke-width:150}
    .str7 {stroke:#FEFEFE;stroke-width:200}
    .str6 {stroke:#1F1B20;stroke-width:182.74}
    .str2 {stroke:#1F1B20;stroke-width:192.96}
    .str5 {stroke:#1F1B20;stroke-width:192.98}
    .str1 {stroke:#1F1B20;stroke-width:228.14}
    .str0 {stroke:#1F1B20;stroke-width:488.98}
    .fil2 {fill:none}
    .fil5 {fill:none;fill-rule:nonzero}
    .fil4 {fill:black}
    .fil1 {fill:#1F1B20;fill-rule:nonzero}
    .fil3 {fill:#434242;fill-rule:nonzero}
    .fil0 {fill:black;fill-rule:nonzero}
   ]]>
  </style>
 </defs>
 <g id="Слой_x0020_1">
  <metadata id="CorelCorpID_0Corel-Layer"/>
  <path class="fil0" d="M52719 180297l0 -4275 2808 0 0 4275 255 0 0 -4466 -3318 0 0 4466 255 0zm4728 -3190c0,1116 -121,2954 -798,2954 -63,0 -102,-13 -165,-26l38 262c38,19 83,32 127,32 977,0 1021,-1825 1021,-3031l1404 0 0 2999 255 0 0 -3190 -1882 0zm2877 344c249,-64 689,-210 1161,-210 511,0 766,185 766,727l0 606 -1021 0c-657,0 -1167,255 -1167,836 0,600 338,957 1167,957 491,0 862,-211 1021,-326l0 256 255 0 0 -2144c0,-593 -6,-1110 -1021,-1110 -555,0 -1033,153 -1205,191l44 217zm906 2718c-631,0 -893,-268 -893,-759 0,-268 262,-645 893,-645l1021 0 0 1085c-217,109 -683,319 -1021,319zm4466 -3062l0 1403 -2041 0 0 -1403 -256 0 0 3190 256 0 0 -1621 2041 0 0 1621 255 0 0 -3190 -255 0zm3062 3190l0 -2999 1978 0 0 2999 255 0 0 -3190 -2488 0 0 3190 255 0zm5468 -409c-408,153 -759,281 -1078,281 -740,0 -1149,-287 -1149,-1021l0 -351 2329 0 0 -478c0,-823 -427,-1276 -1308,-1276 -931,0 -1295,580 -1295,1403l0 702c0,913 542,1212 1423,1212 364,0 702,-108 1123,-261l-45 -211zm-2227 -1505c0,-740 326,-1149 1021,-1149 689,0 1034,364 1034,1021l0 383 -2055 0 0 -255zm3318 3190l0 -1532c185,115 549,319 1021,319 1046,0 1423,-676 1423,-1658 0,-1040 -453,-1659 -1423,-1659 -472,0 -836,204 -1021,319l0 -255 -255 0 0 4466 255 0zm1021 -4339c536,0 1148,224 1148,1468 0,1244 -612,1467 -1148,1467 -460,0 -804,-191 -1021,-319l0 -2297c223,-140 561,-319 1021,-319zm2156 3063l1219 0c721,0 1225,-122 1225,-906 0,-574 -326,-766 -651,-836 223,-128 351,-357 351,-670 0,-632 -383,-778 -919,-778l-1225 0 0 3190zm1225 -1563c676,0 944,204 944,657 0,555 -293,714 -950,714l-964 0 0 -1371 970 0zm-970 -192l0 -1244 970 0c453,0 645,223 645,587 0,434 -198,657 -645,657l-970 0zm2763 530c0,765 529,1288 1423,1288 893,0 1422,-523 1422,-1288l0 -740c0,-766 -529,-1289 -1422,-1289 -894,0 -1423,523 -1423,1289l0 740zm274 -740c0,-651 447,-1098 1149,-1098 708,0 1148,453 1148,1098l0 740c0,650 -440,1097 -1148,1097 -709,0 -1149,-447 -1149,-1097l0 -740zm3560 1965l0 -2967 1595 0 0 -223 -1850 0 0 3190 255 0zm2010 -1225c0,765 529,1288 1423,1288 893,0 1422,-523 1422,-1288l0 -740c0,-766 -529,-1289 -1422,-1289 -894,0 -1423,523 -1423,1289l0 740zm274 -740c0,-651 447,-1098 1149,-1098 708,0 1148,453 1148,1098l0 740c0,650 -440,1097 -1148,1097 -709,0 -1149,-447 -1149,-1097l0 -740zm7012 625c0,753 -383,1212 -1149,1212 -344,0 -682,-140 -1001,-281l-58 211c307,140 664,261 1059,261 906,0 1423,-510 1423,-1403l0 -511c0,-880 -510,-1403 -1423,-1403 -376,0 -759,108 -1059,261l64 211c287,-147 644,-281 995,-281 779,0 1149,472 1149,1212l0 83 -1691 0 0 192 1691 0 0 236zm561 -1627l1149 0 0 2967 255 0 0 -2967 1148 0 0 -223 -2552 0 0 223zm3228 121c249,-64 689,-210 1162,-210 510,0 765,185 765,727l0 606 -1021 0c-657,0 -1167,255 -1167,836 0,600 338,957 1167,957 492,0 862,-211 1021,-326l0 256 255 0 0 -2144c0,-593 -6,-1110 -1020,-1110 -556,0 -1034,153 -1206,191l44 217zm906 2718c-631,0 -893,-268 -893,-759 0,-268 262,-645 893,-645l1021 0 0 1085c-217,109 -683,319 -1021,319zm1793 -3062l1531 1531 -1537 1659 351 0 1435 -1627 58 0 0 1627 255 0 0 -1627 57 0 1423 1627 351 0 -1525 -1659 1531 -1531 -357 0 -1423 1499 -57 0 0 -1499 -255 0 0 1499 -58 0 -1423 -1499 -357 0zm4543 344c248,-64 689,-210 1161,-210 510,0 765,185 765,727l0 606 -1020 0c-658,0 -1168,255 -1168,836 0,600 338,957 1168,957 491,0 861,-211 1020,-326l0 256 256 0 0 -2144c0,-593 -7,-1110 -1021,-1110 -555,0 -1034,153 -1206,191l45 217zm906 2718c-632,0 -894,-268 -894,-759 0,-268 262,-645 894,-645l1020 0 0 1085c-217,109 -682,319 -1020,319z"/>
  <g id="_1055100336">
   <g>
    <path class="fil1" d="M66711 71055l-14219 0 0 -579 14219 0 0 579zm104131 -20950l0 5176 -521 0 0 -5176 521 0zm0 -11869l0 8519 -521 0 0 -8519 521 0zm-93855 32819l-7279 0 0 -579 7279 0 0 579zm115843 -18423l0 -13889 521 0 0 13889 -521 0zm0 24092l0 -15144 521 0 0 15144 -521 0zm0 22949l0 -14028 521 0 0 14028 -521 0zm0 22660l0 -13578 521 0 0 13578 -521 0zm0 33739l0 -24685 521 0 0 24685 0 0 -521 0zm0 113l0 -113 521 0 0 113 -263 289 -258 -289zm521 0l0 292 -263 -3 263 -289zm-2027 -305l1768 15 -4 579 -1768 -15 4 -579zm-9877 -8l889 8 -4 579 -889 -8 -258 -288 262 -291zm-262 291l-2 -293 264 2 -262 291zm86 18058l-86 -18058 521 -3 86 18057 0 1 -521 3zm521 -4l0 0 0 1 0 -1zm-1253 3953l-393 -380 0 0 19 -24 24 -32 27 -39 32 -46 34 -52 38 -58 40 -64 42 -70 44 -76 46 -82 47 -88 48 -93 49 -99 49 -103 49 -109 49 -114 48 -119 47 -124 46 -128 45 -133 42 -138 41 -142 37 -146 36 -150 32 -155 29 -158 25 -163 21 -165 17 -170 12 -173 7 -177 3 -180 521 -2 -3 199 -8 196 -14 191 -18 188 -24 183 -27 179 -32 174 -35 170 -39 166 -42 160 -44 156 -47 151 -48 146 -51 141 -51 135 -53 131 -53 124 -54 120 -54 113 -53 108 -53 103 -52 96 -50 90 -49 85 -47 78 -45 72 -42 65 -40 59 -36 53 -33 47 -30 39 -26 34 0 0zm-3741 2300l0 -579 -20 1 156 -17 153 -23 150 -30 147 -35 144 -40 141 -46 138 -51 135 -55 132 -60 128 -63 125 -67 122 -70 119 -72 115 -76 112 -78 109 -79 105 -81 102 -82 98 -83 95 -84 91 -83 87 -84 84 -82 80 -82 76 -81 72 -79 69 -76 64 -75 61 -72 57 -69 53 -65 48 -62 393 380 -52 66 -56 70 -61 74 -65 77 -69 80 -74 83 -78 85 -82 86 -86 89 -91 89 -94 91 -99 90 -103 91 -107 90 -111 90 -115 89 -119 87 -124 85 -127 83 -131 81 -136 78 -139 74 -143 70 -147 67 -151 62 -155 56 -158 52 -163 46 -166 40 -169 33 -174 26 -177 19 -19 1zm19 -1l-10 1 -9 0 19 -1zm-5124 -578l5105 0 0 579 -5105 0 0 0 0 -579zm-6086 0l6086 0 0 579 -6086 0 0 -579zm-28905 -165l5552 0 0 579 -5552 0 0 -579zm14453 0l5548 0 0 579 -5548 0 0 -579zm-32457 173l8948 0 0 579 -8948 0 -260 -290 260 -289zm0 579l-260 0 0 -290 260 290zm259 -15667l2 15377 -521 0 -2 -15377 261 -289 260 289zm-521 0l0 -290 261 1 -261 289zm8297 300l-8036 -10 0 -579 8036 10 261 289 -261 290zm0 -579l260 0 1 289 -261 -289zm-239 15657l-21 -15367 521 -1 21 15367 -521 1zm-7609 -96246l66 71567 -521 0 -66 -71567 261 -290 260 290zm-260 -290l260 0 0 290 -260 -290zm-66133 0l66133 0 0 579 -66133 0 -260 -289 260 -290zm0 579l-260 0 0 -289 260 289zm261 -25236l0 24947 -521 0 0 -24947 0 0 521 0zm0 -24946l0 24946 -521 0 0 -24946 0 0 521 0zm0 -9082l0 9082 -521 0 0 -9082 260 -289 261 289zm-521 0l0 -289 260 0 -260 289zm13086 290l-12826 0 0 -579 12826 0 260 289 -260 290zm0 -579l260 0 0 289 -260 -289zm-243 9217l-18 -8927 521 -1 18 8927 -261 290 -260 -289zm260 289l-259 -1 -1 -288 260 289zm5930 24l-5930 -24 2 -579 5930 24 259 290 -261 289zm261 -289l0 290 -261 -1 261 -289zm11 -8951l-11 8951 -521 -1 11 -8951 260 -289 261 290zm-521 -1l0 -289 260 0 -260 289zm1455 290l-1195 0 0 -579 1195 0 0 0 0 579zm3419 0l-3419 0 0 -579 3419 0 0 0 0 579zm15133 0l-15133 0 0 -579 15133 0 260 289 -260 290zm0 -579l260 0 0 289 -260 -289zm-261 9216l0 -8927 521 0 0 8927 -260 290 -261 -290zm261 290l-261 0 0 -290 261 290zm5957 -4l-5957 4 0 -579 5957 -4 261 288 -261 291zm261 -291l1 290 -262 1 261 -291zm-26 -8922l26 8922 -521 2 -26 -8923 261 -290 260 289zm-521 1l-1 -290 262 0 -261 290zm2593 289l-2332 0 0 -579 2332 0 0 0 0 579zm1798 0l-1798 0 0 -579 1798 0 0 579 0 0zm15623 -6l-15623 6 0 -579 15623 -6 260 290 -260 289zm0 -579l260 0 0 290 -260 -290zm-259 9205l-2 -8915 521 0 2 8915 -261 290 -260 -290zm260 290l-260 0 0 -290 260 290zm5935 0l-5935 0 0 -579 5935 0 261 289 -261 290zm261 -290l0 290 -261 0 261 -290zm-7 -8922l7 8922 -521 1 -7 -8923 260 -289 261 289zm-521 0l0 -288 260 -1 -260 289zm15158 213l-14896 76 -2 -578 14896 -76 262 292 -260 286zm-2 -578l264 -2 -2 294 -262 -292zm-339 9301l80 -9015 521 6 -80 9015 -261 287 -260 -293zm260 293l-263 0 3 -293 260 293zm5936 0l-5936 0 0 -579 5936 0 260 289 -260 290zm260 -290l0 290 -260 0 260 -290zm0 -8927l0 8927 -521 0 0 -8927 261 -289 260 289zm-521 0l0 -289 261 0 -261 289zm20351 290l-20090 0 0 -579 20090 0 260 289 -260 290zm260 -290l0 290 -260 0 260 -290zm0 -113l0 113 -521 0 0 -113 0 0 521 0zm0 -180l0 180 -521 0 0 -180 521 0zm11112 571l-11372 12 -1 -579 11372 -12 261 290 -260 289zm-1 -579l261 0 0 290 -261 -290zm-255 9286l-5 -8996 521 0 5 8996 -521 0zm0 4437l2 -2260 521 1 -2 2259 -260 289 -261 -289zm521 0l0 289 -260 0 260 -289zm-19967 -290l19707 0 0 579 -19707 0 -261 -289 261 -290zm0 579l-261 0 0 -289 261 289zm260 -14000l0 13711 -521 0 0 -13711 521 0zm-7376 -4l0 533 -521 0 0 -533 521 0zm12210 46090l0 0 0 0 0 0 0 -289 0 289zm10408 290l-10408 0 0 -579 10408 0 261 289 -261 290zm261 -290l0 290 -261 0 261 -290zm0 -11358l0 11358 -521 0 0 -11358 521 0zm-13667 11648l-10408 0 0 -579 10408 0 0 579zm-13406 0l-10408 0 0 -579 10408 0 0 579zm-13406 0l-9346 0 0 -579 9346 0 0 579zm-12339 0l-7280 0 0 -579 7280 0 0 579zm-10277 0l-7279 0 0 -579 7279 0 0 579zm-10277 0l-7279 0 0 -579 7279 0 0 579zm-10277 0l-7279 0 0 -579 7279 0 0 579zm105566 -46087l0 -9595 521 0 0 9595 0 0 -521 0zm0 4801l0 -4801 521 0 0 4801 -521 0zm521 -14396l0 14396 -521 0 0 -14396 521 0z"/>
   </g>
   <polygon class="fil0" points="88311,47648 97102,47648 97102,46823 88311,46823 88311,39406 98201,39406 98201,38582 87212,38582 87212,57812 98201,57812 98201,56988 88311,56988 "/>
   <path class="fil0" d="M144051 110358l4762 0c3788,0 6559,-1299 6559,-7576 0,-6278 -2771,-7577 -6559,-7577l-4762 0 0 15153zm4762 -14503c2728,0 5628,736 5628,6927 0,6190 -2900,6926 -5628,6926l-3896 0 0 -13853 3896 0z"/>
   <g id="_760720848">
    <path class="fil2 str0" d="M190829 123052c2129,-1229 4852,-499 6082,1630 1229,2129 499,4852 -1630,6081 -2129,1230 -4852,500 -6082,-1629 -1229,-2130 -499,-4852 1630,-6082z"/>
    <g>
     <path class="fil1" d="M192843 127030l-2226 -3855 424 -245 2226 3856 -4 250 -420 -6zm424 -244l73 126 -77 124 4 -250zm-2760 3782l2340 -3789 416 257 -2340 3789 -416 -257z"/>
    </g>
    <g>
     <polygon class="fil1" points="197509,127139 193056,127152 193054,126663 197507,126650 "/>
    </g>
   </g>
   <g>
    <path class="fil2 str0" d="M132250 184627c-2459,0 -4452,-1993 -4452,-4452 0,-2458 1993,-4452 4452,-4452 2459,0 4452,1994 4452,4452 0,2459 -1993,4452 -4452,4452z"/>
    <g>
     <path class="fil1" d="M132494 180175l0 4452 -489 0 0 -4452 129 -215 360 215zm-489 0l0 -146 129 -69 -129 215zm4282 -1895l-3921 2111 -232 -431 3921 -2111 232 431z"/>
    </g>
    <g>
     <polygon class="fil1" points="128508,177749 132372,179963 132128,180388 128265,178173 "/>
    </g>
   </g>
   <g>
    <path class="fil2 str0" d="M146703 184627c-2459,0 -4452,-1993 -4452,-4452 0,-2458 1993,-4452 4452,-4452 2458,0 4452,1994 4452,4452 0,2459 -1994,4452 -4452,4452z"/>
    <g>
     <path class="fil1" d="M146947 180175l0 4452 -489 0 0 -4452 129 -215 360 215zm-489 0l0 -146 129 -69 -129 215zm4281 -1895l-3920 2111 -232 -431 3921 -2111 231 431z"/>
    </g>
    <g>
     <polygon class="fil1" points="142961,177749 146824,179963 146581,180388 142718,178173 "/>
    </g>
   </g>
   <g>
    <path class="fil2 str0" d="M161155 184627c-2458,0 -4452,-1993 -4452,-4452 0,-2458 1994,-4452 4452,-4452 2459,0 4452,1994 4452,4452 0,2459 -1993,4452 -4452,4452z"/>
    <g>
     <path class="fil1" d="M161400 180175l0 4452 -489 0 0 -4452 129 -215 360 215zm-489 0l0 -146 129 -69 -129 215zm4281 -1895l-3921 2111 -231 -431 3920 -2111 232 431z"/>
    </g>
    <g>
     <polygon class="fil1" points="157414,177749 161277,179963 161034,180388 157171,178173 "/>
    </g>
   </g>
   <path class="fil0" d="M54410 75878l1858 0 0 -174 -1858 0 0 -1568 2090 0 0 -174 -2322 0 0 4064 2322 0 0 -174 -2090 0 0 -1974zm3403 -424l127 151 1312 -1364 0 3785 233 0 0 -4064 -215 0 -1457 1492z"/>
   <path class="fil0" d="M65504 66128l1858 0 0 -174 -1858 0 0 -1567 2090 0 0 -175 -2323 0 0 4065 2323 0 0 -175 -2090 0 0 -1974zm4221 -1974c-500,0 -1132,215 -1307,320l70 168c226,-145 865,-314 1237,-314 743,0 1173,331 1173,779 0,557 -755,888 -1173,1132 -842,487 -1394,789 -1394,1875l0 163 2816 0 0 -175 -2584 0c0,-1033 575,-1265 1162,-1643 493,-319 1405,-650 1405,-1352 0,-651 -552,-953 -1405,-953z"/>
   <path class="fil0" d="M75746 66065l1858 0 0 -175 -1858 0 0 -1567 2090 0 0 -175 -2323 0 0 4065 2323 0 0 -174 -2090 0 0 -1974zm2758 2026c69,29 766,180 1306,180 853,0 1649,-250 1649,-1103 0,-767 -534,-1028 -1138,-1191 505,-127 894,-534 894,-946 0,-772 -644,-941 -1347,-941 -383,0 -1016,82 -1260,175l70 180c226,-117 888,-180 1190,-180 639,0 1097,238 1097,766 0,575 -621,888 -1097,888l-557 0 40 175 413 0c383,0 1445,69 1445,1074 0,714 -691,923 -1399,923 -540,0 -1132,-163 -1260,-209l-46 209z"/>
   <path class="fil0" d="M85996 66038l1858 0 0 -174 -1858 0 0 -1567 2091 0 0 -175 -2323 0 0 4065 2323 0 0 -175 -2091 0 0 -1974zm5127 -1916l-2415 2625 0 197 2415 0 0 1243 232 0 0 -1243 366 0 41 -168 -407 0 0 -2654 -232 0zm-6 262l0 2392 -2165 0 2165 -2392z"/>
   <path class="fil0" d="M96305 66041l1858 0 0 -174 -1858 0 0 -1568 2090 0 0 -174 -2322 0 0 4065 2322 0 0 -175 -2090 0 0 -1974zm2775 1969c70,29 883,238 1481,238 853,0 1446,-360 1446,-1342 0,-981 -656,-1149 -1260,-1149 -401,0 -935,75 -1179,145l169 -1603 2113 0 23 -174 -2340 0 -203 2044c279,-87 929,-215 1417,-215 418,0 1010,116 1010,952 0,877 -470,1162 -1196,1162 -557,0 -1306,-221 -1434,-267l-47 209z"/>
   <path class="fil0" d="M106533 66027l1858 0 0 -174 -1858 0 0 -1568 2090 0 0 -174 -2323 0 0 4064 2323 0 0 -174 -2090 0 0 -1974zm2676 609c0,1255 772,1591 1556,1591 918,0 1562,-575 1562,-1335 0,-743 -412,-1074 -1010,-1173 -151,-23 -314,-35 -482,-35 -459,0 -1121,186 -1376,354l0 -464c0,-830 639,-1347 1358,-1347 436,0 1005,99 1220,186l69 -180c-185,-64 -685,-180 -1289,-180 -725,0 -1608,389 -1608,1654l0 929zm250 -452c296,-175 987,-326 1382,-326 656,0 1236,267 1236,1034 0,755 -580,1161 -1312,1161 -737,0 -1248,-389 -1306,-1376l0 -493z"/>
   <path class="fil0" d="M116843 66059l1857 0 0 -174 -1857 0 0 -1568 2090 0 0 -174 -2323 0 0 4064 2323 0 0 -174 -2090 0 0 -1974zm3982 2148c0,-1759 900,-3310 1742,-3948l0 -116 -2978 0 0 185 2630 0c-552,453 -1643,1824 -1643,3879l249 0z"/>
   <path class="fil0" d="M132672 119373l1278 0c1016,0 1759,-348 1759,-2032 0,-1684 -743,-2032 -1759,-2032l-1278 0 0 4064zm1278 -3890c731,0 1509,198 1509,1858 0,1661 -778,1858 -1509,1858l-1046 0 0 -3716 1046 0zm4795 -174l-2415 2624 0 198 2415 0 0 1242 233 0 0 -1242 365 0 41 -168 -406 0 0 -2654 -233 0zm-5 261l0 2393 -2166 0 2166 -2393z"/>
   <path class="fil0" d="M142641 66027l1858 0 0 -174 -1858 0 0 -1568 2091 0 0 -174 -2323 0 0 4064 2323 0 0 -174 -2091 0 0 -1974zm5795 -383c0,-1255 -772,-1591 -1556,-1591 -918,0 -1562,575 -1562,1335 0,929 644,1208 1492,1208 459,0 1121,-186 1376,-354l0 464c0,842 -644,1347 -1358,1347 -436,0 -1005,-99 -1220,-186l-69 180c185,64 685,180 1289,180 725,0 1608,-389 1608,-1654l0 -929zm-250 452c-296,175 -987,326 -1382,326 -656,0 -1236,-268 -1236,-1034 0,-755 580,-1161 1312,-1161 737,0 1236,401 1306,1376l0 493z"/>
   <path class="fil0" d="M154100 66023l1858 0 0 -174 -1858 0 0 -1568 2090 0 0 -174 -2322 0 0 4064 2322 0 0 -174 -2090 0 0 -1974zm3403 -424l127 151 1312 -1365 0 3786 233 0 0 -4064 -215 0 -1457 1492zm2984 975c0,929 551,1655 1568,1655 1016,0 1567,-731 1567,-1655l0 -876c0,-924 -551,-1649 -1567,-1649 -1017,0 -1568,731 -1568,1654l0 871zm1568 -2351c841,0 1335,639 1335,1480l0 871c0,865 -494,1481 -1335,1481 -842,0 -1336,-616 -1336,-1481l0 -876c0,-836 494,-1475 1336,-1475z"/>
   <path class="fil0" d="M160912 57260l1858 0 0 -174 -1858 0 0 -1568 2090 0 0 -174 -2322 0 0 4064 2322 0 0 -174 -2090 0 0 -1974zm3402 -424l128 151 1312 -1365 0 3786 232 0 0 -4064 -214 0 -1458 1492zm3716 0l128 151 1312 -1365 0 3786 232 0 0 -4064 -214 0 -1458 1492z"/>
   <path class="fil0" d="M160336 47952l1858 0 0 -174 -1858 0 0 -1568 2090 0 0 -174 -2322 0 0 4064 2322 0 0 -174 -2090 0 0 -1974zm3402 -424l128 151 1312 -1364 0 3785 233 0 0 -4064 -215 0 -1458 1492zm4535 -1550c-499,0 -1132,215 -1306,319l69 169c227,-146 865,-314 1237,-314 743,0 1173,331 1173,778 0,557 -755,888 -1173,1132 -842,488 -1394,790 -1394,1876l0 162 2816 0 0 -174 -2583 0c0,-1033 575,-1266 1161,-1643 493,-319 1405,-650 1405,-1353 0,-650 -552,-952 -1405,-952z"/>
   <path class="fil0" d="M67191 22006c0,-1759 900,-3309 1742,-3948l0 -116 -2978 0 0 186 2630 0c-552,453 -1643,1823 -1643,3878l249 0zm4860 -4064l-2415 2624 0 198 2415 0 0 1242 232 0 0 -1242 366 0 41 -168 -407 0 0 -2654 -232 0zm-6 261l0 2393 -2165 0 2165 -2393z"/>
   <path class="fil0" d="M91635 22033c0,-1760 899,-3310 1741,-3949l0 -116 -2978 0 0 186 2630 0c-552,453 -1643,1823 -1643,3879l250 0zm2490 -122c70,29 767,180 1307,180 853,0 1649,-250 1649,-1104 0,-766 -535,-1027 -1138,-1190 505,-128 894,-534 894,-946 0,-772 -645,-941 -1347,-941 -383,0 -1016,81 -1260,174l70 180c226,-116 888,-180 1190,-180 638,0 1097,238 1097,767 0,575 -621,888 -1097,888l-558 0 41 174 412 0c383,0 1446,70 1446,1074 0,715 -691,924 -1399,924 -540,0 -1132,-163 -1260,-209l-47 209z"/>
   <path class="fil0" d="M118376 22096c0,-1759 900,-3309 1742,-3948l0 -116 -2979 0 0 186 2630 0c-551,453 -1643,1823 -1643,3878l250 0zm3954 -4122c-500,0 -1132,215 -1307,319l70 169c227,-145 865,-314 1237,-314 743,0 1173,331 1173,778 0,558 -755,889 -1173,1132 -842,488 -1394,790 -1394,1876l0 162 2816 0 0 -174 -2583 0c0,-1033 574,-1266 1161,-1643 493,-319 1405,-650 1405,-1353 0,-650 -552,-952 -1405,-952z"/>
   <path class="fil0" d="M138744 22352c0,-1759 900,-3310 1742,-3948l0 -116 -2979 0 0 185 2631 0c-552,453 -1644,1824 -1644,3879l250 0zm3135 -2572l128 151 1312 -1365 0 3786 232 0 0 -4064 -214 0 -1458 1492z"/>
   <path class="fil0" d="M147216 149777c-1311,444 -2124,776 -3215,776 -2956,0 -4064,-1829 -4064,-4526l0 -3141c0,-2975 1127,-4527 4064,-4527 1091,0 1904,333 3215,776l222 -573c-1312,-443 -2236,-757 -3437,-757 -3621,0 -4859,2014 -4859,5081l0 3141c0,3067 1238,5081 4859,5081 1201,0 2125,-314 3437,-758l-222 -573z"/>
   <path class="fil0" d="M165648 150842l869 0c795,0 969,-404 969,-869 0,-387 -187,-669 -535,-804 252,-96 361,-335 361,-665 0,-461 -282,-704 -717,-704l-947 0 0 3042zm174 -1586l695 0c356,0 782,143 782,717 0,578 -300,739 -782,739l-695 0 0 -1456zm773 -1326c352,0 530,222 530,574 0,539 -304,621 -530,621l-773 0 0 -1195 773 0z"/>
   <path class="fil0" d="M167560 141112l187 0 -1074 -3042 -208 0 -1078 3042 187 0 339 -990 1308 0 339 990zm-991 -2898l608 1777 -1216 0 608 -1777z"/>
   <g>
    <path class="fil3" d="M134511 126598c0,54 -43,98 -97,98 -54,0 -97,-44 -97,-98 0,-156 63,-297 166,-400l6 -6c102,-99 241,-160 394,-160 156,0 298,64 401,166 102,103 165,244 165,400 0,93 -24,178 -65,255 -44,83 -107,154 -179,211 -67,53 -126,107 -167,163 -35,51 -58,105 -58,168l0 215c0,53 -43,97 -97,97 -54,0 -97,-44 -97,-97l0 -215c0,-107 36,-198 94,-280 54,-75 126,-140 204,-203 53,-42 99,-93 130,-150 26,-49 41,-104 41,-164 0,-102 -42,-195 -109,-262 -67,-68 -160,-109 -263,-109 -100,0 -192,39 -259,104l-4 5c-67,67 -109,160 -109,262zm2790 1929c42,33 50,94 17,136 -33,42 -94,49 -136,16 -229,-179 -563,-330 -964,-435 -392,-103 -847,-161 -1335,-161 -487,0 -943,58 -1335,161 -401,105 -735,256 -964,435 -42,33 -103,26 -136,-16 -33,-42 -25,-103 17,-136 250,-196 608,-359 1035,-471 408,-107 881,-168 1383,-168 503,0 975,61 1383,168 428,112 785,275 1035,471z"/>
    <path class="fil2 str1" d="M131951 123745l5864 0c379,0 689,310 689,689l0 5864c0,379 -310,689 -689,689l-5864 0c-379,0 -689,-310 -689,-689l0 -5864c0,-379 310,-689 689,-689z"/>
   </g>
   <g>
    <g>
     <path class="fil4" d="M170268 169033c-42,0 -76,34 -76,76 0,396 145,4616 151,4795 2,42 35,74 76,74 1,0 2,0 3,0 42,-1 75,-37 74,-79 -2,-44 -152,-4396 -152,-4790 0,-42 -34,-76 -76,-76z"/>
     <path class="fil4" d="M170921 171058c-122,0 -207,90 -207,220l0 2625c0,42 35,76 77,76 42,0 76,-34 76,-76l0 -2625c0,-61 31,-68 54,-68 15,0 54,0 54,68l0 2625c0,42 34,76 76,76 42,0 76,-34 76,-76l0 -2625c0,-130 -85,-220 -206,-220z"/>
     <path class="fil4" d="M171571 169033c-42,0 -76,34 -76,76 0,394 -150,4746 -152,4790 -1,42 32,78 74,79 1,0 1,0 2,0 41,0 75,-32 76,-74 7,-179 152,-4399 152,-4795 0,-42 -34,-76 -76,-76z"/>
     <path class="fil4" d="M171814 168479c-111,-105 -655,-139 -900,-139 -246,0 -789,34 -900,139 -209,197 -296,583 -296,2463 0,42 34,76 76,76 42,0 76,-34 76,-76 0,-1790 84,-2197 248,-2352 49,-38 413,-98 796,-98 382,0 746,60 795,98 165,155 248,562 248,2352 0,42 34,76 76,76 42,0 77,-34 77,-76 0,-1880 -88,-2266 -296,-2463z"/>
     <path class="fil4" d="M170905 167375c140,2 254,117 254,257 0,140 -114,254 -254,256 -140,-2 -253,-116 -253,-256 0,-140 113,-255 253,-257zm0 665c0,0 0,0 0,0 0,0 0,0 0,0 0,0 0,0 0,0 0,0 1,0 1,0 223,-2 405,-185 405,-408 0,-224 -182,-407 -405,-409 0,0 -1,0 -1,0 0,0 0,0 0,0 0,0 0,0 0,0 0,0 -1,0 -1,0 -223,2 -405,185 -405,409 0,223 182,406 406,408z"/>
     <path class="fil4" d="M175109 169275c-69,-69 -160,-107 -257,-107 -98,0 -189,38 -258,107l-516 516c-30,30 -30,78 0,108 29,30 77,30 107,0l517 -517c40,-40 93,-61 150,-61 56,0 110,21 149,61l517 517c15,15 34,22 54,22 19,0 39,-7 53,-22 30,-30 30,-78 0,-108l-516 -516z"/>
     <path class="fil4" d="M175518 171699l-517 517c-39,40 -93,61 -149,61 -57,0 -110,-21 -150,-61l-517 -517c-30,-30 -78,-30 -107,0 -30,30 -30,78 0,108l516 516c69,69 160,107 258,107 97,0 188,-38 257,-107l516 -516c30,-30 30,-78 0,-108 -29,-30 -77,-30 -107,0z"/>
     <path class="fil4" d="M176073 173622c0,116 -95,211 -212,211l-2065 0c-116,0 -211,-95 -211,-211l0 -5891c0,-117 95,-212 211,-212l2065 0c117,0 212,95 212,212l0 5891zm-212 -6255l-2065 0c-200,0 -364,163 -364,364l0 5891c0,200 164,364 364,364l2065 0c201,0 364,-164 364,-364l0 -5891c0,-201 -163,-364 -364,-364z"/>
    </g>
    <path class="fil2 str2" d="M167949 164402l10045 0c649,0 1180,531 1180,1180l0 10045c0,649 -531,1180 -1180,1180l-10045 0c-649,0 -1180,-531 -1180,-1180l0 -10045c0,-649 531,-1180 1180,-1180z"/>
   </g>
   <g>
    <path class="fil4" d="M161589 142948l31 0 0 2c194,-7 355,-53 485,-126 158,-89 269,-218 336,-365 24,-53 43,-109 55,-167 13,-58 20,-118 20,-176 0,-59 -6,-119 -17,-177 -12,-57 -29,-114 -53,-168 -62,-145 -167,-274 -314,-363 -133,-81 -300,-130 -500,-131 -66,0 -138,-1 -210,-2l-20 0c-147,-3 -294,-5 -440,2 -18,1 -36,4 -55,8 -19,5 -37,11 -55,18 -17,8 -34,17 -49,26 -14,10 -28,21 -39,32l-2282 2281c-250,250 -499,503 -748,756l-387 393 -284 287c-95,95 -190,190 -286,285 -96,95 -193,190 -289,283 -98,96 -196,190 -292,280 -8,9 -18,17 -28,26 -10,8 -21,16 -31,23 -11,7 -22,14 -33,21 -10,5 -22,12 -33,17 -13,6 -26,11 -39,16 -11,4 -25,8 -38,11 -14,3 -27,6 -39,8 -13,1 -26,2 -39,2l-489 0c-231,0 -423,47 -575,126 -167,87 -286,213 -357,355 -27,53 -47,108 -60,165 -14,58 -21,117 -21,175 0,59 6,118 20,176 13,57 32,113 58,167 71,147 191,278 359,370 147,80 331,131 552,137l0 -3 1416 0c7,0 13,-1 19,-3 5,-2 10,-5 14,-10l2 -2c4,-2 7,-7 9,-13 3,-6 4,-13 4,-20l0 -703c0,-26 5,-51 16,-76 9,-24 24,-47 42,-69l2 -2c18,-18 40,-33 65,-44 24,-10 49,-15 77,-15l704 0c7,0 14,-1 19,-3 5,-2 11,-5 15,-10l2 -2c3,-3 6,-8 9,-13 2,-5 4,-11 4,-15l0 -703c0,-29 5,-56 15,-79 10,-25 24,-45 43,-63 19,-19 42,-34 67,-44 24,-10 49,-15 76,-15l703 0c6,0 12,-2 18,-5 5,-2 11,-6 16,-10 4,-5 8,-10 10,-15 2,-6 3,-12 3,-19l0 -706c0,-26 6,-52 16,-76 10,-24 24,-47 42,-69l2 -2c18,-18 41,-34 66,-44 23,-10 49,-15 76,-15l707 -1c7,0 13,0 19,-3 5,-1 10,-5 15,-10l2 -1c3,-3 6,-8 8,-14 3,-6 4,-13 4,-20l0 -703c0,-26 6,-51 16,-76 9,-23 24,-46 42,-69l2 -2c18,-18 41,-33 65,-44 24,-10 50,-15 77,-15l705 0c7,0 13,-1 19,-3 5,-2 10,-5 14,-10l2 -2c3,-3 6,-7 9,-13 2,-5 4,-11 4,-15l0 -703c0,-29 5,-56 15,-79 10,-24 25,-45 43,-63 19,-18 42,-33 67,-44 24,-9 49,-15 76,-15l703 0zm-3502 -932l-88 2c-23,1 -42,5 -57,12 -14,6 -25,14 -33,24l-2 3c-9,12 -15,27 -20,45 -5,20 -8,43 -10,68 -32,601 -57,1236 -110,1832 -3,43 -25,73 -53,86 -11,5 -23,7 -35,7 -12,-1 -24,-4 -35,-11 -25,-15 -42,-46 -40,-95l110 -1827c2,-40 8,-77 18,-111 10,-35 25,-66 45,-94l3 -4c24,-29 52,-53 88,-70 34,-16 76,-26 124,-29 80,-4 165,-5 248,-5 79,-2 158,-4 233,-2 48,1 89,11 124,26 36,16 65,39 89,68l3 5c21,27 37,58 47,92 11,34 17,71 20,111l58 752c3,48 -15,80 -39,95 -11,7 -23,11 -35,12 -12,0 -24,-2 -35,-7 -28,-12 -51,-41 -54,-84 -29,-244 -38,-509 -58,-756 -2,-26 -5,-49 -11,-68 -5,-18 -12,-34 -21,-45l-2 -3c-8,-10 -19,-18 -33,-24 -16,-6 -35,-10 -58,-11 -63,1 -328,14 -381,6zm126 -974c40,-4 80,0 118,11 38,12 74,31 105,55 30,25 56,56 76,92 18,34 31,72 35,113 4,40 0,80 -11,117 -11,39 -30,75 -55,105 -25,31 -56,57 -92,76 -33,19 -72,31 -113,35 -41,5 -81,0 -118,-10 -38,-12 -74,-31 -105,-56 -31,-25 -57,-55 -76,-91 -19,-34 -31,-72 -35,-113 -4,-40 0,-80 11,-118 11,-38 30,-74 55,-105 25,-30 56,-56 91,-75 34,-19 73,-31 114,-36zm120 194c-15,-12 -31,-20 -49,-26 -17,-5 -35,-7 -54,-5 -19,2 -37,8 -52,17 -17,8 -31,20 -43,35 -11,14 -20,30 -25,48 -5,17 -7,35 -5,54 2,19 8,37 16,52 9,16 21,31 35,42 14,11 31,20 49,26 17,4 35,6 54,4 19,-2 36,-7 52,-16 17,-9 31,-21 42,-35 12,-14 21,-30 26,-48 5,-17 7,-35 5,-54 -2,-19 -8,-37 -16,-52 -9,-17 -21,-31 -35,-42zm3290 1860l-3 1 0 3c-243,6 -490,1 -734,1 -7,0 -15,1 -21,3 -4,2 -7,5 -10,8l-5 5c-3,2 -5,6 -7,11 -3,6 -4,14 -4,21l0 703c0,26 -6,52 -16,76 -11,25 -26,48 -44,66 -18,20 -40,37 -64,48 -24,11 -50,16 -78,16l-705 0c-7,0 -13,1 -19,3 -5,2 -10,6 -14,10l-3 3c-3,3 -6,6 -8,11 -2,5 -4,11 -4,16l0 703c0,29 -5,59 -16,85 -10,26 -25,50 -43,68 -18,20 -39,34 -63,44 -24,10 -52,15 -80,15l-707 0c-7,0 -13,1 -19,3 -5,2 -9,5 -14,10l-3 3c-3,2 -6,6 -8,10 -2,6 -4,12 -4,17l1 706c0,27 -5,53 -16,77 -10,25 -25,47 -43,66 -19,18 -42,33 -67,44 -23,9 -49,15 -76,15l-703 0c-7,0 -15,1 -21,3 -4,2 -7,4 -10,8l-5 5c-3,2 -5,6 -7,11 -3,6 -4,14 -4,21l0 703c0,26 -6,52 -16,76 -11,25 -26,48 -44,66 -18,20 -40,36 -64,47 -24,11 -51,17 -79,17l-704 0c-7,0 -14,1 -19,3 -5,2 -10,5 -14,10l-4 3c-2,2 -5,6 -7,10 -2,6 -4,12 -4,17l0 703c0,29 -5,55 -15,78 -10,24 -25,46 -44,64 -18,20 -40,35 -63,44 -25,10 -52,15 -80,15l-1416 0 0 -3c-249,-7 -458,-65 -625,-157 -195,-107 -335,-261 -418,-433 -31,-64 -54,-131 -70,-199 -15,-68 -23,-138 -23,-208 1,-71 9,-141 25,-209 16,-67 40,-133 72,-196 84,-168 223,-317 417,-419 172,-90 388,-144 646,-144l489 0 21 -2 23 -3 23 -8 26 -10 22 -12 22 -14 22 -16 20 -18c100,-94 196,-187 291,-279 96,-94 192,-188 287,-282 96,-95 191,-190 286,-285l284 -286 387 -393c248,-253 497,-506 748,-757l2282 -2280c19,-19 40,-36 62,-51 23,-15 47,-28 72,-39 26,-11 52,-20 79,-26 27,-6 55,-10 82,-11 149,-8 300,-5 451,-3l16 0c62,1 123,2 210,2 231,1 424,59 578,153 173,106 298,258 372,430 27,63 47,129 61,197 13,67 20,137 20,206 -1,70 -9,140 -23,208 -15,67 -36,132 -65,196 -79,173 -210,326 -396,431 -150,85 -335,139 -556,145z"/>
    <g>
     <path class="fil1" d="M163636 138167l-10342 0 0 -193 10342 0 0 0 0 193zm1311 1118l-193 0 0 0 -2 -57 -4 -57 -7 -56 -10 -54 -12 -54 -16 -53 -17 -52 -20 -51 -23 -49 -25 -49 -27 -46 -29 -46 -31 -44 -33 -42 -36 -41 -37 -39 -39 -37 -40 -35 -43 -33 -44 -32 -45 -29 -47 -27 -48 -24 -49 -23 -51 -20 -52 -18 -53 -15 -54 -12 -55 -10 -55 -7 -57 -5 -57 -1 0 -193 67 2 66 5 66 8 64 12 63 14 63 18 60 21 60 23 58 27 57 29 54 31 54 35 51 36 50 39 47 42 46 43 43 46 41 47 39 50 37 51 34 53 32 55 29 57 26 58 24 59 21 61 17 62 15 64 12 64 8 66 5 66 2 67 0 0zm-193 10342l0 -10342 193 0 0 10342 0 0 -193 0zm-1118 1311l0 -193 0 0 57 -1 57 -4 55 -8 55 -9 54 -13 53 -15 52 -18 51 -20 49 -22 48 -25 47 -27 45 -29 44 -31 43 -34 40 -35 39 -37 37 -39 36 -41 33 -42 31 -44 29 -45 27 -47 25 -48 23 -50 20 -51 17 -51 16 -53 12 -54 10 -55 7 -56 4 -56 2 -58 193 0 -2 67 -5 67 -8 65 -12 65 -15 63 -17 62 -21 61 -24 60 -26 58 -29 56 -32 55 -34 53 -37 52 -39 49 -41 48 -43 45 -46 44 -47 41 -50 39 -51 37 -54 34 -54 31 -57 30 -58 26 -60 23 -60 21 -63 18 -63 15 -64 11 -66 9 -66 5 -67 1 0 0zm-10342 -193l10342 0 0 193 -10342 0 0 0 0 -193zm-1312 -1118l193 0 0 0 2 58 4 56 7 56 10 55 13 54 15 53 18 51 20 51 22 50 25 48 27 47 29 45 31 44 34 42 35 41 37 39 39 37 41 35 42 34 44 31 45 29 47 27 48 25 50 22 50 20 52 18 53 15 54 13 55 9 56 8 56 4 58 1 0 193 -68 -1 -66 -5 -65 -9 -65 -11 -63 -15 -62 -18 -61 -21 -60 -23 -58 -26 -56 -30 -55 -31 -53 -34 -52 -37 -49 -39 -48 -41 -45 -44 -44 -45 -41 -48 -39 -49 -37 -52 -34 -53 -32 -55 -29 -56 -26 -58 -24 -60 -20 -61 -18 -62 -15 -63 -11 -65 -9 -65 -5 -67 -2 -67 0 0zm193 -10342l0 10342 -193 0 0 -10342 0 0 193 0zm1119 -1311l0 193 0 0 -58 1 -56 5 -56 7 -55 10 -54 12 -53 15 -52 18 -50 20 -50 23 -48 24 -47 27 -45 29 -44 32 -42 33 -41 35 -39 37 -37 39 -35 41 -34 42 -31 44 -29 46 -27 46 -25 49 -22 49 -20 51 -18 52 -15 53 -13 54 -10 54 -7 56 -4 57 -2 57 -193 0 2 -67 5 -66 9 -66 11 -64 15 -64 18 -62 20 -61 24 -59 26 -58 29 -57 32 -55 34 -53 37 -51 39 -50 41 -47 44 -46 45 -43 48 -42 49 -39 52 -36 53 -35 55 -31 56 -29 58 -27 60 -23 61 -21 62 -18 63 -14 65 -12 65 -8 66 -5 68 -2 0 0z"/>
    </g>
   </g>
   <path class="fil0" d="M110660 151277l2017 0 0 2823 -2017 0 0 269 4706 0 0 -269 -2487 0 0 -2823 2487 0 0 -269 -4706 0 0 269zm1345 -1345l3361 0 0 -269 -3361 0 0 269zm-1345 0l787 0 0 -269 -787 0 0 269zm4706 -1479l-5042 0 0 269 5042 0 0 -269zm-3160 -605l0 -672 2152 0c726,0 1075,-309 1075,-941 0,-410 -107,-625 -148,-699l-181 74c54,107 127,248 127,625 0,349 -161,672 -873,672l-2152 0 0 -1344 -201 0 0 1344 -941 0 67 269 874 0 0 672 201 0zm1869 -2722c807,0 1358,-558 1358,-1499 0,-942 -551,-1500 -1358,-1500l-780 0c-806,0 -1358,558 -1358,1500 0,941 552,1499 1358,1499l780 0zm-780 -289c-685,0 -1156,-471 -1156,-1210 0,-747 477,-1211 1156,-1211l780 0c686,0 1156,464 1156,1211 0,746 -470,1210 -1156,1210l-780 0zm2071 -6172l-2286 0c-746,0 -1143,276 -1143,1183 0,558 323,1002 505,1237l-437 0 0 269 3361 0 0 -269 -2723 0c-222,-235 -504,-759 -504,-1223 0,-740 276,-928 941,-928l2286 0 0 -269z"/>
   <path class="fil0" d="M110361 160428c599,881 1198,1740 1797,2599 267,0 663,0 926,0 -495,-700 -986,-1416 -1478,-2135l3790 0 0 -838 -3779 0c497,-703 995,-1419 1491,-2135 -271,0 -671,0 -946,0 -603,836 -1202,1672 -1801,2509z"/>
   <path class="fil2 str3" d="M140502 84336l18217 0m-26898 8103l0 -8103 6027 0m9679 38084l7858 0m-23564 -27072l0 16139m0 2881l0 8052 12244 0m14782 0l11722 0 0 -14156m0 -7336l0 5105 0 0m-9106 -21697l9106 0 0 14245"/>
   <g>
    <path class="fil2 str0" d="M190829 100279c2129,-1229 4852,-500 6082,1630 1229,2129 499,4852 -1630,6081 -2129,1230 -4852,500 -6082,-1629 -1229,-2130 -499,-4852 1630,-6082z"/>
    <g>
     <path class="fil1" d="M192843 104257l-2226 -3855 424 -245 2226 3856 -4 250 -420 -6zm424 -244l73 126 -77 124 4 -250zm-2760 3782l2340 -3789 416 257 -2340 3789 -416 -257z"/>
    </g>
    <g>
     <polygon class="fil1" points="197509,104366 193056,104379 193054,103890 197507,103877 "/>
    </g>
   </g>
   <g>
    <path class="fil2 str0" d="M184638 152285c2130,-1230 4852,-500 6082,1629 1229,2130 500,4852 -1630,6082 -2129,1229 -4852,500 -6081,-1630 -1230,-2129 -500,-4852 1629,-6081z"/>
    <g>
     <path class="fil1" d="M186652 156262l-2226 -3855 424 -245 2226 3856 -4 251 -420 -7zm424 -244l73 126 -77 125 4 -251zm-2760 3782l2340 -3788 416 257 -2340 3788 -416 -257z"/>
    </g>
    <g>
     <polygon class="fil1" points="191318,156371 186865,156385 186863,155896 191316,155882 "/>
    </g>
   </g>
   <g>
    <path class="fil2 str0" d="M190829 77422c2129,-1230 4852,-500 6082,1629 1229,2130 499,4852 -1630,6082 -2129,1229 -4852,500 -6082,-1630 -1229,-2129 -499,-4852 1630,-6081z"/>
    <g>
     <path class="fil1" d="M192843 81399l-2226 -3855 424 -244 2226 3855 -4 251 -420 -7zm424 -244l73 126 -77 125 4 -251zm-2760 3782l2340 -3788 416 257 -2340 3788 -416 -257z"/>
    </g>
    <g>
     <polygon class="fil1" points="197509,81508 193056,81522 193054,81033 197507,81019 "/>
    </g>
   </g>
   <g>
    <path class="fil2 str0" d="M190829 53214c2129,-1230 4852,-500 6082,1629 1229,2130 499,4852 -1630,6082 -2129,1229 -4852,500 -6082,-1630 -1229,-2129 -499,-4852 1630,-6081z"/>
    <g>
     <path class="fil1" d="M192843 57191l-2226 -3855 424 -245 2226 3856 -4 251 -420 -7zm424 -244l73 126 -77 125 4 -251zm-2760 3782l2340 -3788 416 257 -2340 3788 -416 -257z"/>
    </g>
    <g>
     <polygon class="fil1" points="197509,57300 193056,57314 193054,56825 197507,56811 "/>
    </g>
   </g>
   <g>
    <path class="fil2 str0" d="M190829 30350c2129,-1230 4852,-500 6082,1629 1229,2130 499,4853 -1630,6082 -2129,1229 -4852,500 -6082,-1630 -1229,-2129 -499,-4852 1630,-6081z"/>
    <g>
     <path class="fil1" d="M192843 34328l-2226 -3856 424 -244 2226 3855 -4 251 -420 -6zm424 -245l73 127 -77 124 4 -251zm-2760 3782l2340 -3788 416 257 -2340 3788 -416 -257z"/>
    </g>
    <g>
     <polygon class="fil1" points="197509,34436 193056,34450 193054,33961 197507,33947 "/>
    </g>
   </g>
   <path class="fil5 str4" d="M60613 70878c0,60 2,2625 5,2687 103,2118 1938,5741 4098,6205 151,32 3661,49 3815,49l0 3952m-629 -3955l0 4109m-630 -4109l0 4109m-580 -4109l0 4109m-579 -4109l0 4109m-580 -4109l0 4109m-579 -4109l0 4109m-540 -4241l2 4241m-70 -4265l-1083 4039m609 -4279l-1356 4390m877 -4721l-1519 4634m1099 -5020l-1837 5112m1429 -5569l-2251 5679"/>
   <path class="fil2 str5" d="M138758 164940c-3406,0 -6167,-2760 -6167,-6166 0,-3406 2761,-6166 6167,-6166 3405,0 6166,2760 6166,6166 0,3406 -2761,6166 -6166,6166z"/>
   <path class="fil0" d="M138758 156705c114,0 218,46 293,121l0 1 0 0c75,75 122,179 122,293 0,114 -47,218 -122,293l0 0c-75,75 -179,122 -293,122 -115,0 -219,-47 -294,-122l0 0c-75,-75 -121,-179 -121,-293 0,-115 46,-218 121,-293l0 -1c75,-75 179,-121 294,-121zm-322 1087l657 0 49 0 0 50 0 2952 0 49 -49 0 -657 0 -50 0 0 -49 0 -2952 0 -50 50 0zm608 99l-559 0 0 2854 559 0 0 -2854zm-63 -995c-57,-57 -136,-93 -223,-93 -88,0 -167,36 -224,93l0 0c-57,57 -93,136 -93,224 0,87 36,166 93,224l0 0c57,57 136,92 224,92 87,0 166,-35 223,-92l0 0c58,-58 93,-137 93,-224 0,-88 -35,-167 -93,-224l0 0z"/>
   <g>
    <path class="fil1" d="M141299 160900l0 -4252 168 0 0 4252 0 0 -168 0zm-415 584l0 -169 0 0 21 0 21 -2 21 -3 20 -3 20 -5 20 -6 19 -6 19 -7 18 -9 18 -9 17 -10 17 -11 17 -12 15 -12 15 -13 15 -14 14 -14 13 -15 12 -16 12 -16 11 -17 10 -18 9 -18 8 -18 8 -19 6 -19 6 -20 5 -20 3 -20 3 -21 1 -21 1 -21 168 0 0 30 -3 29 -3 30 -6 28 -6 28 -8 28 -9 27 -11 27 -11 26 -13 25 -14 24 -16 24 -16 23 -17 22 -19 21 -19 20 -20 20 -21 18 -22 17 -23 17 -24 15 -24 14 -26 13 -25 11 -27 11 -27 9 -28 8 -28 7 -29 5 -29 4 -29 2 -30 1 0 0zm-4252 -169l4252 0 0 169 -4252 0 0 0 0 -169zm-584 -415l168 0 0 0 1 21 2 21 2 21 4 20 5 20 5 20 7 19 7 19 8 18 10 18 10 18 11 17 11 16 13 16 13 15 13 14 15 14 15 13 16 13 16 11 17 11 17 10 18 9 19 9 18 7 20 7 19 5 20 5 21 3 20 3 21 2 22 0 0 169 -30 -1 -30 -2 -29 -4 -29 -5 -28 -7 -28 -8 -27 -9 -26 -10 -26 -12 -25 -13 -25 -14 -23 -15 -23 -17 -22 -17 -21 -18 -21 -20 -19 -20 -18 -21 -18 -22 -16 -23 -15 -24 -14 -24 -13 -25 -12 -26 -10 -27 -10 -27 -7 -27 -7 -29 -5 -28 -4 -30 -2 -29 -1 -30 0 0zm168 -4252l0 4252 -168 0 0 -4252 168 0zm416 -584l0 169 0 0 -22 0 -21 2 -20 2 -21 4 -20 5 -19 5 -20 7 -18 7 -19 9 -18 9 -17 10 -17 11 -16 11 -16 13 -15 13 -15 14 -13 14 -14 15 -12 16 -12 16 -10 17 -10 18 -10 18 -8 18 -7 19 -7 19 -6 20 -4 20 -4 20 -2 21 -2 21 -1 21 -168 0 1 -30 2 -30 4 -29 5 -28 6 -29 8 -27 10 -27 10 -27 12 -26 13 -25 14 -24 15 -24 16 -23 18 -22 18 -21 19 -20 21 -20 21 -18 22 -17 23 -17 23 -15 25 -14 25 -13 26 -12 26 -10 27 -9 28 -8 28 -7 29 -5 29 -4 30 -2 30 -1 0 0zm4252 169l-4252 0 0 -169 4252 0 0 169zm583 415l-168 0 0 0 -1 -21 -1 -21 -3 -21 -4 -21 -4 -20 -6 -19 -6 -19 -8 -19 -8 -19 -9 -17 -10 -18 -11 -17 -12 -16 -12 -16 -13 -15 -14 -14 -15 -14 -15 -13 -15 -13 -17 -11 -17 -11 -17 -10 -18 -9 -18 -9 -19 -7 -19 -7 -20 -5 -20 -5 -20 -4 -21 -2 -21 -2 -21 0 0 -169 30 1 29 2 29 4 29 5 28 7 28 8 27 9 27 10 25 12 26 13 24 14 24 15 23 17 22 17 21 18 20 20 19 20 19 21 17 22 16 23 15 24 15 24 12 25 12 26 11 27 9 27 8 27 6 29 6 28 3 29 3 30 0 30 0 0z"/>
   </g>
   <g>
    <g>
     <path class="fil4" d="M121279 149750c-24,0 -44,20 -44,44 0,227 83,2642 87,2744 1,24 20,42 43,42 1,0 1,0 2,0 24,0 43,-21 42,-45 -1,-25 -87,-2516 -87,-2741 0,-24 -19,-44 -43,-44z"/>
     <path class="fil4" d="M121652 150909c-69,0 -118,52 -118,126l0 1502c0,24 20,44 44,44 24,0 44,-20 44,-44l0 -1502c0,-35 17,-39 30,-39 9,0 31,0 31,39l0 1502c0,24 20,44 44,44 24,0 43,-20 43,-44l0 -1502c0,-74 -48,-126 -118,-126z"/>
     <path class="fil4" d="M122025 149750c-25,0 -44,20 -44,44 0,225 -86,2716 -87,2741 -1,24 18,45 42,45 1,0 1,0 2,0 23,0 43,-18 43,-42 4,-102 87,-2517 87,-2744 0,-24 -19,-44 -43,-44z"/>
     <path class="fil4" d="M122163 149433c-63,-60 -374,-80 -515,-80 -140,0 -451,20 -515,80 -119,113 -169,334 -169,1410 0,24 19,43 43,43 25,0 44,-19 44,-43 0,-1025 48,-1257 142,-1346 28,-22 236,-56 455,-56 219,0 428,34 456,56 94,88 142,321 142,1346 0,24 19,43 43,43 24,0 44,-19 44,-43 0,-1076 -50,-1297 -170,-1410z"/>
     <path class="fil4" d="M121643 148801c81,1 146,67 146,147 0,80 -65,146 -146,147 -80,-1 -145,-67 -145,-147 0,-80 65,-146 145,-147zm0 381c0,0 0,0 0,0 0,0 0,0 0,0 0,0 1,0 1,0 0,0 0,0 0,0 128,-1 232,-106 232,-234 0,-128 -104,-233 -232,-234 0,0 0,0 0,0 0,0 -1,0 -1,0 0,0 0,0 0,0 0,0 0,0 0,0 -128,1 -232,106 -232,234 0,128 104,233 232,234z"/>
     <path class="fil4" d="M124049 149888c-39,-39 -91,-60 -147,-60 -56,0 -108,21 -147,60l-296 296c-17,17 -17,45 0,62 17,17 45,17 62,0l296 -296c22,-23 53,-35 85,-35 33,0 63,12 86,35l296 296c8,8 19,12 30,12 11,0 23,-4 31,-12 17,-17 17,-45 0,-62l-296 -296z"/>
     <path class="fil4" d="M124284 151276l-296 296c-23,23 -53,35 -86,35 -32,0 -63,-12 -86,-35l-295 -296c-17,-17 -45,-17 -62,0 -17,17 -17,45 0,62l296 295c39,40 91,61 147,61 56,0 108,-21 147,-61l296 -295c17,-17 17,-45 0,-62 -17,-17 -45,-17 -61,0z"/>
     <path class="fil4" d="M124601 152376c0,67 -54,122 -121,122l-1182 0c-67,0 -121,-55 -121,-122l0 -3371c0,-67 54,-121 121,-121l1182 0c67,0 121,54 121,121l0 3371zm-121 -3580l-1182 0c-115,0 -208,94 -208,209l0 3371c0,115 93,209 208,209l1182 0c115,0 209,-94 209,-209l0 -3371c0,-115 -94,-209 -209,-209z"/>
    </g>
    <path class="fil2 str6" d="M119951 147100l5750 0c371,0 675,304 675,675l0 5749c0,371 -304,675 -675,675l-5750 0c-371,0 -675,-304 -675,-675l0 -5749c0,-371 304,-675 675,-675z"/>
   </g>
   <path class="fil0" d="M119703 176792c0,370 162,705 500,705 477,0 562,-564 688,-937 91,-264 165,-346 400,-346 77,0 441,9 441,578 0,244 -50,493 -147,690l97 29c112,-199 138,-543 138,-719 0,-376 -185,-704 -529,-704 -523,0 -482,487 -705,965 -83,179 -197,317 -383,317 -188,0 -411,-143 -411,-578 0,-282 64,-446 147,-628l-97 -32c-83,214 -139,405 -139,660zm1900 -2134c70,188 129,350 129,496 0,341 -132,529 -470,529l-162 0 0 -1072 -220 0c-380,0 -588,197 -588,602 0,429 267,596 646,596l324 0c420,0 558,-250 558,-655 0,-167 -50,-323 -120,-516l-97 20zm-694 1025c-341,0 -529,-150 -529,-470 0,-317 167,-476 470,-476l177 0 0 946 -118 0zm694 -2451c65,149 129,302 129,461 0,352 -211,528 -558,528l-236 0c-341,0 -558,-170 -558,-528 0,-162 73,-320 129,-458l-97 -30c-70,138 -120,314 -120,488 0,419 241,654 646,654l236 0c411,0 646,-238 646,-654 0,-182 -58,-335 -120,-488l-97 27zm-1282 -291l1000 0c302,0 499,-141 499,-461 0,-223 -123,-484 -220,-596l191 0 0 -117 -1470 0 0 117 1191 0c97,103 220,341 220,590 0,221 -120,350 -411,350l-1000 0 0 117zm-29 -2295l0 123c0,194 152,388 311,470l-282 0 0 117 1470 0 0 -117 -1003 0c-114,0 -379,-235 -379,-520l0 -97 -117 24zm29 -288l1470 0 0 -117 -1470 0 0 117zm-588 0l344 0 0 -117 -344 0 0 117zm676 -381l0 -294 941 0c318,0 470,-135 470,-411 0,-179 -47,-273 -64,-305l-80 32c24,47 56,109 56,273 0,153 -70,294 -382,294l-941 0 0 -587 -88 0 0 587 -412 0 30 117 382 0 0 294 88 0zm1744 -1691c170,70 214,153 214,279 0,100 -35,185 -58,232l91 38c38,-74 67,-176 67,-285 0,-211 -135,-302 -273,-361 -124,-53 -347,-135 -494,-188l-1379 -502 0 126 1402 491 -1402 625 0 150 1376 -634c44,-21 85,-71 94,-115l362 144zm2240 8521c397,0 809,-273 809,-860 0,-587 -412,-860 -809,-860l-500 0c-397,0 -808,276 -808,860 0,584 411,860 808,860l500 0zm-500 -126c-423,0 -720,-323 -720,-734 0,-461 326,-734 720,-734l500 0c435,0 720,273 720,734 0,431 -285,734 -720,734l-500 0zm-191 -1935l0 165 735 -587 735 587 0 -150 -670 -499 670 -511 0 -164 -735 587 -735 -587 0 150 671 493 -671 516zm2058 -1511l-705 0c53,-85 147,-253 147,-470 0,-481 -312,-654 -765,-654 -479,0 -764,208 -764,654 0,217 94,385 147,470l-118 0 0 117 2058 0 0 -117zm-1999 -470c0,-247 103,-528 676,-528 574,0 676,281 676,528 0,211 -88,370 -147,470l-1058 0c-65,-103 -147,-259 -147,-470zm100 -1039c-29,-114 -97,-317 -97,-534 0,-235 85,-352 335,-352l279 0 0 469c0,303 118,537 386,537 276,0 441,-155 441,-537 0,-226 -97,-396 -150,-469l117 0 0 -118 -988 0c-273,0 -511,3 -511,470 0,255 70,475 88,555l100 -21zm1252 -417c0,291 -123,411 -349,411 -124,0 -297,-120 -297,-411l0 -469 499 0c50,99 147,314 147,469zm-1411 -2054l647 0 0 939 -647 0 0 117 1470 0 0 -117 -747 0 0 -939 747 0 0 -118 -1470 0 0 118zm159 -576c-29,-114 -97,-317 -97,-534 0,-235 85,-352 335,-352l279 0 0 469c0,303 118,538 386,538 276,0 441,-156 441,-538 0,-226 -97,-396 -150,-469l117 0 0 -118 -988 0c-273,0 -511,3 -511,470 0,255 70,476 88,555l100 -21zm1252 -417c0,291 -123,411 -349,411 -124,0 -297,-120 -297,-411l0 -469 499 0c50,100 147,314 147,469z"/>
   <path class="fil0" d="M167307 161751c-680,0 -1279,-348 -1525,-673l-45 0 0 1151 72 0 0 -1017c174,213 704,635 1498,635l0 -96zm1985 504c485,0 615,-298 615,-601 0,-354 -222,-603 -516,-603 -287,0 -415,159 -453,390 -9,59 -14,121 -14,186 0,178 72,433 137,532l-179 0c-321,0 -521,-247 -521,-525 0,-168 38,-388 72,-471l-69 -27c-25,72 -70,265 -70,498 0,281 150,621 639,621l359 0zm-175 -96c-67,-114 -125,-381 -125,-534 0,-253 103,-478 399,-478 292,0 449,225 449,507 0,285 -151,483 -532,505l-191 0zm3280 58c11,-27 92,-341 92,-572 0,-329 -139,-558 -518,-558 -379,0 -444,253 -444,487 0,154 29,361 56,455l-619 -65 0 -817 -68 -9 0 904 790 79c-34,-108 -83,-359 -83,-547 0,-162 45,-391 368,-391 338,0 448,182 448,462 0,216 -85,505 -103,554l81 18zm1079 -908l1014 933 76 0 0 -933 480 0 0 -90 -480 0 0 -141 -65 -16 0 157 -1025 0 0 90zm101 2l924 0 0 837 -924 -837zm4049 -152l0 -97 -1570 554 0 108 1570 556 0 -96 -511 -175 0 -675 511 -175zm-1496 511l917 -314 0 628 -917 -314zm4076 498l0 -449c0,-410 -209,-500 -449,-500 -200,0 -345,97 -415,276 -49,-130 -173,-186 -343,-186 -238,0 -364,146 -364,370l0 489 1571 0zm-819 -90l0 -359c0,-184 74,-403 370,-403 298,0 381,154 381,403l0 359 -751 0zm-684 -399c0,-182 114,-274 296,-274 278,0 321,157 321,274l0 399 -617 0 0 -399z"/>
   <path class="fil0" d="M163678 119719l1277 0c1016,0 1759,-349 1759,-2032 0,-1684 -743,-2032 -1759,-2032l-1277 0 0 4064zm1277 -3890c731,0 1509,197 1509,1858 0,1660 -778,1858 -1509,1858l-1045 0 0 -3716 1045 0zm3071 1318l128 151 1312 -1365 0 3786 232 0 0 -4064 -214 0 -1458 1492z"/>
   <path class="fil0" d="M163109 91178l1277 0c1016,0 1760,-349 1760,-2033 0,-1683 -744,-2032 -1760,-2032l-1277 0 0 4065zm1277 -3890c732,0 1510,197 1510,1857 0,1661 -778,1858 -1510,1858l-1045 0 0 -3715 1045 0zm3890 -233c-499,0 -1132,215 -1306,320l70 168c226,-145 865,-314 1236,-314 744,0 1173,331 1173,778 0,558 -755,889 -1173,1133 -842,487 -1393,789 -1393,1875l0 163 2816 0 0 -175 -2584 0c0,-1033 575,-1265 1161,-1643 494,-319 1405,-650 1405,-1353 0,-650 -551,-952 -1405,-952z"/>
   <path class="fil0" d="M132897 91114l1278 0c1016,0 1759,-349 1759,-2032 0,-1684 -743,-2033 -1759,-2033l-1278 0 0 4065zm1278 -3890c731,0 1509,197 1509,1858 0,1660 -778,1858 -1509,1858l-1045 0 0 -3716 1045 0zm2427 3768c69,29 766,180 1306,180 854,0 1649,-250 1649,-1103 0,-767 -534,-1028 -1138,-1191 505,-127 894,-534 894,-946 0,-772 -644,-941 -1347,-941 -383,0 -1016,82 -1260,175l70 180c226,-117 888,-180 1190,-180 639,0 1098,238 1098,766 0,575 -622,888 -1098,888l-557 0 40 174 413 0c383,0 1445,70 1445,1075 0,714 -691,923 -1399,923 -540,0 -1132,-163 -1260,-209l-46 209z"/>
   <path class="fil0" d="M128876 66018l1858 0 0 -174 -1858 0 0 -1568 2090 0 0 -174 -2323 0 0 4064 2323 0 0 -174 -2090 0 0 -1974zm3884 -104c-511,133 -1213,394 -1213,1132 0,847 551,1178 1567,1178 1016,0 1568,-331 1568,-1178 0,-662 -714,-987 -1341,-1127 545,-139 1167,-412 1167,-958 0,-574 -488,-917 -1394,-917 -906,0 -1393,343 -1393,917 0,575 691,848 1039,953l0 0zm221 104c673,197 1451,406 1451,1028 0,714 -517,1004 -1318,1004 -818,0 -1318,-290 -1318,-1004 0,-563 534,-877 1185,-1028l0 0zm133 -1800c761,0 1144,215 1144,743 0,505 -755,767 -1138,865 -383,-121 -1150,-365 -1150,-865 0,-516 384,-743 1144,-743l0 0z"/>
   <path class="fil0" d="M169707 29173c58,1 104,50 103,108 -1,58 -50,104 -108,103l-5017 -118 -4121 0c-75,0 -133,31 -172,76 -27,33 -46,72 -54,114 -9,43 -7,87 5,128 18,60 61,114 133,144l13 7c94,48 1008,496 1853,484 257,-4 848,-56 1387,-141 378,-60 728,-135 912,-219 13,-7 28,-10 42,-10l5020 -118c58,-1 106,46 107,104 1,58 -45,106 -103,107l-4999 117c-207,89 -565,167 -947,227 -548,87 -1152,140 -1416,144 -898,12 -1859,-460 -1951,-507l-2 -1c-133,-57 -215,-160 -250,-276 -23,-75 -26,-156 -11,-232 16,-76 50,-149 100,-208 77,-91 190,-151 333,-151 3099,0 6038,45 9143,118zm-1 3493c59,0 105,48 104,106 -1,59 -49,105 -107,104l-6130 -118c-35,2 -71,-15 -92,-47 -99,-149 -259,-276 -459,-365 -197,-89 -433,-140 -686,-140l-1 0 -2179 130c-59,4 -109,-41 -112,-99 -3,-58 41,-108 99,-111l2179 -131c5,0 9,-1 14,-1 282,0 548,59 772,159 216,97 395,234 516,396l6082 117zm-7450 -39c58,0 105,48 105,106 0,58 -47,106 -105,106l-2107 0c-58,0 -106,-48 -106,-106 0,-58 48,-106 106,-106l2107 0zm0 634c58,0 105,47 105,106 0,58 -47,105 -105,105l-2107 0c-58,0 -106,-47 -106,-105 0,-59 48,-106 106,-106l2107 0zm-2113 713c-58,-3 -103,-53 -99,-111 3,-58 53,-103 111,-99l2181 130c253,0 488,-52 686,-140 199,-90 360,-217 459,-366 21,-32 57,-48 92,-47l6130 -117c58,-1 106,46 107,104 1,58 -45,106 -103,107l-6083 116c-121,162 -300,298 -516,395 -225,101 -490,159 -772,159l-2193 -131z"/>
   <line class="fil2 str7" x1="174781" y1="36149" x2="174781" y2= "33953" />
   <path class="fil0" d="M176734 159212l0 -740 -69 0 0 740 -671 0 0 -833 -70 0 0 926 1620 0 0 -93 -810 0zm810 -1203l-1735 0 0 92 1735 0 0 -92zm-444 -266c278,0 468,-193 468,-517 0,-324 -190,-516 -468,-516l-268 0c-278,0 -468,192 -468,516 0,324 190,517 468,517l268 0zm-268 -100c-236,0 -399,-162 -399,-417 0,-256 165,-416 399,-416l268 0c236,0 398,160 398,416 0,257 -162,417 -398,417l-268 0zm268 -1141c278,0 468,-192 468,-516 0,-324 -190,-516 -468,-516l-268 0c-278,0 -468,192 -468,516 0,324 190,516 468,516l268 0zm-268 -100c-236,0 -399,-162 -399,-416 0,-257 165,-417 399,-417l268 0c236,0 398,160 398,417 0,257 -162,416 -398,416l-268 0zm-468 -1759l0 98c0,152 120,305 245,370l-222 0 0 92 1157 0 0 -92 -789 0c-90,0 -298,-185 -298,-410l0 -76 -93 18zm0 -601c0,236 86,444 317,444 343,0 296,-431 408,-650 46,-93 108,-137 192,-137 71,0 217,5 217,347 0,167 -48,315 -88,435l72 17c42,-116 86,-283 86,-452 0,-227 -35,-440 -287,-440 -348,0 -324,410 -424,658 -30,72 -93,129 -176,129 -90,0 -248,-74 -248,-347 0,-180 42,-273 79,-377l-69 -23c-33,88 -79,208 -79,396zm3065 4462c361,0 731,60 731,509 0,137 -30,246 -97,403l72 28c60,-137 94,-259 94,-431 0,-412 -252,-608 -636,-608l-394 0c-442,0 -636,208 -636,608 0,174 46,320 95,431l72 -28c-61,-139 -98,-289 -98,-428 0,-327 234,-484 644,-484l28 0 0 648 69 0 0 -648 56 0zm-299 -261l0 -417 1076 0 0 -93 -1076 0 0 -416 -81 0 0 926 81 0zm44 -1172c-23,-90 -76,-250 -76,-421 0,-185 67,-278 263,-278l220 0 0 371c0,238 93,423 304,423 217,0 347,-122 347,-423 0,-179 -77,-313 -118,-371l92 0 0 -92 -777 0c-216,0 -403,2 -403,370 0,201 55,375 69,438l79 -17zm986 -328c0,229 -97,324 -275,324 -98,0 -234,-95 -234,-324l0 -371 393 0c40,79 116,248 116,371zm-1111 -651l555 -555 602 558 0 -128 -590 -520 0 -21 590 0 0 -93 -590 0 0 -21 590 -516 0 -127 -602 553 -555 -555 0 129 544 516 0 21 -544 0 0 93 544 0 0 21 -544 516 0 129zm0 -1611l1157 0 0 -92 -1023 -764 1023 0 0 -93 -1157 0 0 93 1025 764 -1025 0 0 92z"/>
   <g>
    <path class="fil4" d="M102766 76931c-19,0 -34,-14 -34,-31l0 -3071c0,-17 15,-30 34,-30 20,0 35,13 35,30l0 3071c0,17 -15,31 -35,31z"/>
    <path class="fil4" d="M101381 76856c-19,0 -34,-14 -34,-33 -3,-81 -69,-1991 -69,-2171 0,-19 15,-34 34,-34 19,0 35,15 35,34 0,179 67,2149 68,2169 1,19 -14,35 -33,35 0,0 -1,0 -1,0z"/>
    <path class="fil4" d="M101667 76857c-19,0 -35,-16 -35,-35l0 -1188c0,-30 -18,-30 -24,-30 -11,0 -25,3 -25,30l0 1188c0,19 -15,35 -34,35 -19,0 -35,-16 -35,-35l0 -1188c0,-59 38,-99 94,-99 55,0 93,40 93,99l0 1188c0,19 -15,35 -34,35z"/>
    <path class="fil4" d="M101834 76856c-1,0 -1,0 -2,0 -19,0 -34,-16 -34,-35 1,-20 70,-1990 70,-2169 0,-19 15,-34 34,-34 19,0 34,15 34,34 0,180 -65,2090 -68,2171 -1,19 -16,33 -34,33z"/>
    <path class="fil4" d="M102111 75517c-19,0 -34,-16 -34,-35 0,-810 -38,-994 -113,-1065 -21,-17 -186,-44 -359,-44 -174,0 -339,27 -361,45 -74,70 -112,254 -112,1064 0,19 -15,35 -34,35 -19,0 -35,-16 -35,-35 0,-851 39,-1026 134,-1115 50,-47 297,-63 408,-63 110,0 357,16 407,63 94,89 134,264 134,1115 0,19 -16,35 -35,35z"/>
    <path class="fil4" d="M101601 74100c-64,-1 -116,-53 -116,-116 0,-64 52,-116 116,-116 63,0 114,52 114,116 0,63 -51,115 -114,116zm0 -301c0,0 0,0 0,0 0,0 0,0 -1,0 0,0 0,0 0,0 -101,0 -183,83 -183,185 0,101 82,184 183,184 0,0 0,0 0,0l1 0c0,0 0,0 0,0 101,0 183,-83 183,-184 0,-102 -82,-185 -183,-185z"/>
    <path class="fil4" d="M104450 75185c-151,-151 -170,-326 -186,-467 -11,-116 -22,-217 -107,-263 -71,-38 -142,-38 -222,-37 -13,0 -24,0 -37,0 0,0 0,0 0,0 0,0 0,0 0,0l0 0c-13,0 -24,0 -36,0 -82,-1 -151,-1 -223,37 -85,46 -95,147 -107,263 -15,141 -34,316 -186,467 -13,14 -13,36 0,49 7,7 16,11 25,11 9,0 18,-4 25,-11 168,-168 189,-365 205,-508 12,-116 21,-183 72,-210 55,-29 111,-29 188,-29 12,0 24,0 37,0l0 0c0,0 0,0 0,0l0 0c13,0 25,0 37,0 78,0 134,0 189,29 50,27 59,94 72,210 15,143 36,340 204,508 8,7 17,11 25,11 9,0 18,-4 25,-11 14,-13 14,-35 0,-49z"/>
    <path class="fil4" d="M103898 74240c-64,0 -116,-53 -116,-117 0,-64 52,-116 116,-117 64,1 116,53 116,117 0,64 -52,117 -116,117zm0 -304c0,0 0,0 0,0 0,0 0,0 0,0 0,0 0,0 0,0 -103,1 -186,85 -186,187 0,103 83,186 186,187 0,0 0,0 0,0l0 0c0,0 0,0 0,0 0,0 0,0 0,0 103,-1 186,-84 186,-187 0,-102 -83,-186 -186,-187z"/>
    <path class="fil4" d="M105005 76931c-19,0 -34,-14 -34,-31l0 -3071c0,-17 15,-30 34,-30 19,0 34,13 34,30l0 3071c0,17 -15,31 -34,31z"/>
    <path class="fil4" d="M106385 74816c-68,0 -123,54 -123,122 0,68 55,123 123,123 67,0 122,-55 122,-123 0,-68 -55,-122 -122,-122zm0 305c-101,0 -183,-82 -183,-183 0,-101 82,-183 183,-183 101,0 183,82 183,183 0,101 -82,183 -183,183z"/>
    <path class="fil4" d="M106296 76748c-323,0 -587,-263 -587,-587 0,-145 53,-285 151,-393 12,-12 30,-13 42,-2 13,11 14,30 3,42 -88,97 -135,223 -135,353 0,291 236,527 526,527 291,0 527,-236 527,-527 0,-29 -2,-58 -7,-87 -3,-16 8,-32 25,-35 16,-3 32,9 34,25 6,32 9,65 9,97 0,324 -264,587 -588,587z"/>
    <path class="fil4" d="M107151 76561c-11,0 -23,-7 -28,-19l-218 -561c-12,-31 -49,-51 -81,-45l-132 26c-53,10 -127,0 -168,-22 -43,-24 -83,-86 -93,-141l-72 -428c-6,-36 -41,-81 -75,-96l-69 -29c-30,-14 -79,-4 -102,21l-195 207c-20,22 -20,59 1,80l236 236c11,11 11,31 0,42 -12,12 -31,12 -43,0l-235 -235c-45,-45 -46,-118 -3,-165l195 -206c41,-44 116,-60 171,-36l68 30c52,23 101,85 110,141l72 428c7,37 36,83 63,98 29,16 89,23 128,15l131 -25c62,-12 127,24 149,82l218 561c7,16 -1,33 -17,39 -3,2 -7,2 -11,2z"/>
    <path class="fil4" d="M104103 75105c-6,-6 -10,-11 -14,-16 -60,-71 -45,-132 5,-221 49,-88 57,-130 9,-205 -11,-16 -33,-21 -49,-10 -16,10 -21,32 -10,48 29,45 31,57 -11,133 -35,63 -99,179 3,300 4,5 9,10 14,16 79,92 210,244 198,629l-706 0c-12,-385 119,-537 197,-629 6,-6 10,-11 15,-16 102,-121 37,-237 3,-300 -43,-77 -39,-87 -11,-134 10,-17 4,-38 -12,-48 -16,-10 -38,-4 -48,12 -46,77 -39,117 10,204 49,89 64,150 5,221 -5,5 -9,10 -14,16 -82,95 -235,273 -214,711 1,19 17,33 35,33l189 0c21,130 114,739 114,962 0,19 15,35 34,35 20,0 35,-16 35,-35 0,-225 -88,-810 -113,-962l250 0c-24,152 -113,737 -113,962 0,19 17,35 36,35 19,0 35,-16 35,-35 0,-223 92,-832 113,-962l193 0c18,0 34,-14 35,-33 22,-438 -131,-616 -213,-711z"/>
    <g>
     <path class="fil1" d="M107056 71837l-5868 0 0 -193 5868 0 0 0 0 193zm787 593l-193 0 0 0 -1 -30 -2 -30 -4 -30 -5 -29 -7 -28 -8 -28 -9 -28 -11 -27 -12 -26 -13 -26 -15 -24 -15 -24 -17 -24 -17 -22 -19 -22 -20 -20 -21 -20 -21 -19 -23 -18 -23 -16 -24 -16 -25 -14 -25 -13 -27 -12 -27 -11 -27 -9 -28 -8 -29 -7 -29 -5 -29 -4 -30 -2 -31 -1 0 -193 41 1 39 3 40 5 38 7 38 9 37 11 37 12 36 14 34 16 34 18 33 18 32 21 31 22 30 23 28 25 28 26 26 27 24 29 24 29 22 31 20 32 19 33 18 34 15 35 15 35 12 37 11 37 9 38 7 39 5 39 3 40 1 40 0 0zm-193 5869l0 -5869 193 0 0 5869 0 0 -193 0zm-594 786l0 -193 0 0 31 0 30 -3 29 -4 29 -5 29 -6 28 -8 27 -10 27 -10 27 -12 25 -13 25 -15 24 -15 23 -17 23 -18 21 -18 21 -20 20 -21 19 -21 17 -23 17 -23 15 -24 15 -25 13 -25 12 -27 11 -27 9 -27 8 -28 7 -29 5 -29 4 -29 2 -30 1 -31 193 0 -1 41 -3 39 -5 40 -7 38 -9 38 -11 38 -12 36 -15 36 -15 35 -18 34 -19 32 -20 32 -22 31 -24 30 -24 28 -26 28 -28 26 -28 24 -30 24 -31 22 -32 20 -33 19 -34 17 -34 16 -36 14 -37 13 -37 10 -38 9 -38 7 -40 5 -39 3 -41 1 0 0zm-5868 -193l5868 0 0 193 -5868 0 0 0 0 -193zm-787 -593l193 0 0 0 1 31 2 30 4 29 5 29 7 29 8 28 9 27 11 27 12 27 13 25 14 25 16 24 17 23 17 23 19 21 20 21 20 20 22 18 22 18 24 17 24 15 25 15 25 13 27 12 27 10 27 10 28 8 29 6 29 5 29 4 30 3 31 0 0 193 -41 -1 -39 -3 -40 -5 -38 -7 -38 -9 -38 -10 -36 -13 -36 -14 -35 -16 -34 -17 -32 -19 -32 -20 -31 -22 -30 -24 -28 -24 -28 -26 -26 -28 -24 -28 -24 -30 -22 -31 -20 -32 -19 -32 -18 -34 -16 -35 -14 -36 -12 -36 -11 -38 -9 -38 -7 -38 -5 -40 -3 -39 -1 -41 0 0zm193 -5869l0 5869 -193 0 0 -5869 0 0 193 0zm594 -786l0 193 0 0 -31 1 -30 2 -29 4 -29 5 -29 7 -28 8 -28 9 -26 11 -27 12 -25 13 -25 14 -24 16 -24 16 -22 18 -22 19 -20 20 -20 20 -19 22 -17 22 -17 24 -16 24 -14 24 -13 26 -12 26 -11 27 -9 28 -8 28 -7 28 -5 29 -4 30 -2 30 -1 30 -193 0 1 -40 3 -40 5 -39 7 -39 9 -38 11 -37 12 -37 14 -35 16 -35 18 -34 19 -33 20 -32 22 -31 24 -29 24 -29 26 -27 28 -26 28 -25 30 -23 31 -22 32 -21 33 -18 33 -18 35 -16 36 -14 36 -12 38 -11 38 -9 38 -7 40 -5 39 -3 41 -1 0 0z"/>
    </g>
   </g>
   <g>
    <path class="fil4" d="M82303 76931c-19,0 -35,-14 -35,-31l0 -3071c0,-17 16,-30 35,-30 20,0 35,13 35,30l0 3071c0,17 -15,31 -35,31z"/>
    <path class="fil4" d="M80917 76856c-19,0 -34,-14 -34,-33 -3,-81 -68,-1991 -68,-2171 0,-19 15,-34 34,-34 19,0 34,15 34,34 0,179 68,2149 69,2169 1,19 -15,35 -34,35 0,0 -1,0 -1,0z"/>
    <path class="fil4" d="M81203 76857c-19,0 -35,-16 -35,-35l0 -1188c0,-30 -17,-30 -23,-30 -11,0 -26,3 -26,30l0 1188c0,19 -15,35 -34,35 -19,0 -34,-16 -34,-35l0 -1188c0,-59 38,-99 94,-99 55,0 93,40 93,99l0 1188c0,19 -16,35 -35,35z"/>
    <path class="fil4" d="M81370 76856c-1,0 -1,0 -2,0 -19,0 -33,-16 -33,-35 1,-20 69,-1990 69,-2169 0,-19 16,-34 35,-34 19,0 34,15 34,34 0,180 -66,2090 -69,2171 -1,19 -16,33 -34,33z"/>
    <path class="fil4" d="M81648 75517c-19,0 -34,-16 -34,-35 0,-810 -38,-994 -113,-1065 -22,-17 -187,-44 -360,-44 -173,0 -338,27 -361,45 -74,70 -112,254 -112,1064 0,19 -15,35 -34,35 -19,0 -34,-16 -34,-35 0,-851 39,-1026 133,-1115 51,-47 297,-63 408,-63 111,0 357,16 408,63 94,89 133,264 133,1115 0,19 -15,35 -34,35z"/>
    <path class="fil4" d="M81137 74100c-64,-1 -115,-53 -115,-116 0,-64 51,-116 115,-116 64,0 115,52 115,116 0,63 -51,115 -115,116zm0 -301c0,0 0,0 0,0 0,0 0,0 0,0 0,0 0,0 0,0 -101,0 -184,83 -184,185 0,101 83,184 184,184 0,0 0,0 0,0l0 0c0,0 0,0 0,0 101,0 184,-83 184,-184 0,-102 -83,-185 -184,-185z"/>
    <path class="fil4" d="M83987 75185c-152,-151 -171,-326 -186,-467 -12,-116 -23,-217 -108,-263 -71,-38 -141,-38 -221,-38 -13,0 -25,0 -37,0 0,0 0,0 0,0 0,0 0,0 0,0l0 0c-13,0 -25,0 -36,0 -83,0 -152,0 -223,38 -85,46 -96,147 -108,263 -15,141 -34,316 -185,467 -14,14 -14,36 0,49 7,7 16,11 25,11 8,0 17,-4 24,-11 169,-168 190,-365 206,-508 12,-116 21,-183 71,-210 55,-29 111,-29 189,-29 11,0 24,0 37,0l0 0c0,0 0,0 0,0l0 0c12,0 25,0 37,0 77,0 133,0 188,29 51,27 60,94 72,210 16,143 36,340 205,508 7,7 16,11 24,11 9,0 18,-4 26,-11 13,-13 13,-35 0,-49z"/>
    <path class="fil4" d="M83435 74240c-64,0 -117,-53 -117,-117 0,-64 53,-116 117,-117 64,1 116,53 116,117 0,64 -52,117 -116,117zm0 -304c0,0 0,0 0,0 0,0 0,0 0,0 0,0 0,0 0,0 -103,1 -186,85 -186,187 0,103 83,186 186,187 0,0 0,0 0,0l0 0c0,0 0,0 0,0 0,0 0,0 0,0 102,-1 185,-84 185,-187 0,-102 -83,-186 -185,-187z"/>
    <path class="fil4" d="M84541 76931c-19,0 -34,-14 -34,-31l0 -3071c0,-17 15,-30 34,-30 19,0 35,13 35,30l0 3071c0,17 -16,31 -35,31z"/>
    <path class="fil4" d="M85921 74816c-67,0 -122,54 -122,122 0,68 55,122 122,122 68,0 123,-54 123,-122 0,-68 -55,-122 -123,-122zm0 305c-101,0 -183,-82 -183,-183 0,-101 82,-183 183,-183 101,0 183,82 183,183 0,101 -82,183 -183,183z"/>
    <path class="fil4" d="M85833 76748c-324,0 -587,-263 -587,-587 0,-145 53,-285 150,-393 12,-12 31,-13 43,-2 12,11 13,30 2,42 -87,97 -135,223 -135,353 0,291 236,527 527,527 290,0 527,-236 527,-527 0,-29 -2,-58 -8,-87 -2,-16 9,-32 26,-35 16,-3 31,9 34,25 5,32 8,65 8,97 0,324 -263,587 -587,587z"/>
    <path class="fil4" d="M86688 76561c-12,0 -24,-7 -28,-19l-218 -561c-12,-31 -49,-51 -81,-45l-132 26c-53,10 -127,0 -169,-22 -42,-24 -83,-86 -93,-141l-71 -428c-6,-36 -41,-81 -76,-96l-68 -29c-31,-14 -80,-4 -102,21l-195 207c-21,22 -21,59 1,80l235 236c12,11 12,31 0,42 -11,12 -30,12 -42,0l-236 -235c-45,-45 -46,-118 -2,-165l195 -206c40,-44 115,-60 170,-36l69 30c52,23 101,85 110,141l72 428c6,37 36,83 63,98 29,16 88,23 127,15l132 -25c61,-12 126,24 149,82l218 561c6,16 -1,33 -17,39 -4,2 -7,2 -11,2z"/>
    <path class="fil4" d="M83639 75105c-5,-6 -10,-11 -13,-16 -61,-71 -45,-132 4,-221 49,-88 57,-130 9,-205 -10,-16 -32,-21 -48,-10 -17,10 -21,32 -10,48 29,45 30,57 -12,133 -34,63 -98,179 4,300 3,5 9,10 13,16 80,92 210,244 199,629l-707 0c-11,-385 119,-537 198,-629 5,-6 10,-11 14,-16 102,-121 37,-237 3,-300 -42,-77 -39,-87 -11,-134 10,-17 5,-38 -12,-48 -16,-10 -37,-4 -47,12 -46,77 -39,117 10,204 48,89 64,150 4,221 -4,5 -9,10 -13,16 -82,95 -236,273 -214,711 1,19 16,33 35,33l189 0c20,130 113,739 113,962 0,19 15,35 34,35 20,0 36,-16 36,-35 0,-225 -89,-810 -113,-962l250 0c-25,152 -113,737 -113,962 0,19 16,35 35,35 20,0 35,-16 35,-35 0,-223 92,-832 113,-962l194 0c18,0 33,-14 34,-33 23,-438 -131,-616 -213,-711z"/>
    <g>
     <path class="fil1" d="M86593 71837l-5869 0 0 -193 5869 0 0 0 0 193zm786 593l-193 0 0 0 -1 -30 -2 -30 -4 -30 -5 -29 -6 -28 -9 -28 -9 -28 -11 -27 -11 -26 -14 -26 -14 -24 -15 -24 -17 -24 -18 -22 -19 -22 -19 -20 -21 -20 -22 -19 -22 -18 -23 -16 -25 -16 -24 -14 -26 -13 -26 -12 -27 -11 -28 -9 -28 -8 -28 -7 -29 -5 -30 -4 -30 -2 -30 -1 0 -193 40 1 40 3 39 5 39 7 38 9 37 11 37 12 35 14 35 16 34 18 33 18 32 21 31 22 29 23 29 25 27 26 26 27 25 29 23 29 22 31 21 32 19 33 17 34 16 35 14 35 13 37 10 37 9 38 7 39 5 39 3 40 1 40 0 0zm-193 5869l0 -5869 193 0 0 5869 0 0 -193 0zm-593 786l0 -193 0 0 30 0 30 -3 30 -4 29 -5 28 -6 28 -8 28 -10 27 -10 26 -12 26 -13 24 -15 25 -15 23 -17 22 -18 22 -18 21 -20 19 -21 19 -21 18 -23 17 -23 15 -24 14 -25 14 -25 11 -27 11 -27 9 -27 9 -28 6 -29 5 -29 4 -29 2 -30 1 -31 193 0 -1 41 -3 39 -5 40 -7 38 -9 38 -10 38 -13 36 -14 36 -16 35 -17 34 -19 32 -21 32 -22 31 -23 30 -25 28 -26 28 -27 26 -29 24 -29 24 -31 22 -32 20 -33 19 -34 17 -35 16 -35 14 -37 13 -37 10 -38 9 -39 7 -39 5 -40 3 -40 1 0 0zm-5869 -193l5869 0 0 193 -5869 0 0 0 0 -193zm-786 -593l193 0 0 0 0 31 3 30 4 29 5 29 6 29 8 28 10 27 10 27 12 27 14 25 14 25 15 24 17 23 18 23 18 21 20 21 21 20 22 18 22 18 23 17 24 15 25 15 26 13 26 12 27 10 28 10 28 8 28 6 29 5 30 4 30 3 30 0 0 193 -40 -1 -40 -3 -39 -5 -39 -7 -38 -9 -37 -10 -37 -13 -35 -14 -35 -16 -34 -17 -33 -19 -32 -20 -31 -22 -29 -24 -29 -24 -27 -26 -26 -28 -25 -28 -23 -30 -22 -31 -21 -32 -19 -32 -17 -34 -16 -35 -14 -36 -13 -36 -10 -38 -9 -38 -7 -38 -5 -40 -3 -39 -1 -41 0 0zm193 -5869l0 5869 -193 0 0 -5869 0 0 193 0zm593 -786l0 193 0 0 -30 1 -30 2 -30 4 -29 5 -28 7 -28 8 -28 9 -27 11 -26 12 -26 13 -25 14 -24 16 -23 16 -22 18 -22 19 -21 20 -20 20 -18 22 -18 22 -17 24 -15 24 -14 24 -14 26 -12 26 -10 27 -10 28 -8 28 -6 28 -5 29 -4 30 -3 30 0 30 -193 0 1 -40 3 -40 5 -39 7 -39 9 -38 10 -37 13 -37 14 -35 16 -35 17 -34 19 -33 21 -32 22 -31 23 -29 25 -29 26 -27 27 -26 29 -25 29 -23 31 -22 32 -21 33 -18 34 -18 35 -16 35 -14 37 -12 37 -11 38 -9 39 -7 39 -5 40 -3 40 -1 0 0z"/>
    </g>
   </g>
   <g>
    <path class="fil4" d="M126072 89530c-19,0 -34,-14 -34,-31l0 -3070c0,-17 15,-31 34,-31 20,0 35,14 35,31l0 3070c0,17 -15,31 -35,31z"/>
    <path class="fil4" d="M124687 89456c-19,0 -35,-15 -35,-34 -2,-81 -68,-1991 -68,-2170 0,-19 15,-35 34,-35 19,0 34,16 34,35 0,178 68,2148 69,2168 1,19 -14,35 -33,36 0,0 -1,0 -1,0z"/>
    <path class="fil4" d="M124973 89456c-19,0 -35,-16 -35,-35l0 -1188c0,-30 -18,-30 -24,-30 -11,0 -25,3 -25,30l0 1188c0,19 -16,35 -34,35 -19,0 -35,-16 -35,-35l0 -1188c0,-58 38,-99 94,-99 55,0 93,41 93,99l0 1188c0,19 -15,35 -34,35z"/>
    <path class="fil4" d="M125140 89456c-1,0 -1,0 -2,0 -19,-1 -34,-17 -34,-36 1,-20 70,-1990 70,-2168 0,-19 15,-35 34,-35 19,0 34,16 34,35 0,179 -65,2089 -68,2170 -1,19 -16,34 -34,34z"/>
    <path class="fil4" d="M125417 88116c-19,0 -34,-16 -34,-35 0,-810 -38,-994 -113,-1064 -21,-18 -186,-45 -360,-45 -173,0 -338,27 -360,45 -74,70 -112,254 -112,1064 0,19 -16,35 -34,35 -19,0 -35,-16 -35,-35 0,-851 39,-1025 134,-1115 50,-47 296,-62 407,-62 111,0 358,15 408,63 94,89 134,263 134,1114 0,19 -16,35 -35,35z"/>
    <path class="fil4" d="M124907 86699c-64,-1 -116,-53 -116,-116 0,-64 52,-115 116,-116 63,1 114,52 114,116 0,63 -51,115 -114,116zm0 -301c0,0 0,0 0,0 0,0 0,0 -1,0 0,0 0,0 0,0 -101,1 -183,84 -183,185 0,101 82,184 183,185 0,0 0,0 0,0l1 0c0,0 0,0 0,0 101,-1 183,-84 183,-185 0,-101 -82,-184 -183,-185z"/>
    <path class="fil4" d="M127756 87784c-151,-151 -170,-326 -186,-466 -11,-117 -22,-218 -107,-263 -71,-39 -142,-38 -222,-38 -13,0 -24,0 -37,0 0,0 0,0 0,0 0,0 0,0 0,0l0 0c-13,0 -24,0 -36,0 -82,0 -152,-1 -223,38 -85,45 -95,146 -107,263 -15,140 -34,315 -186,466 -13,14 -13,36 0,50 7,6 16,10 25,10 8,0 17,-4 25,-10 168,-169 189,-365 205,-509 12,-116 21,-182 72,-209 55,-30 110,-30 188,-29 12,0 24,0 37,0l0 0c0,0 0,0 0,0l0 0c13,0 25,0 37,0 78,-1 134,-1 189,29 50,27 59,93 72,209 15,144 36,340 204,509 8,6 17,10 25,10 9,0 18,-4 25,-10 14,-14 14,-36 0,-50z"/>
    <path class="fil4" d="M127204 86840c-64,-1 -116,-53 -116,-117 0,-64 52,-117 116,-118 64,1 116,54 116,118 0,64 -52,116 -116,117zm0 -304c0,0 0,0 0,0 0,0 0,0 0,0 0,0 0,0 0,0 -103,0 -186,84 -186,187 0,102 83,186 186,186 0,0 0,0 0,0l0 0c0,0 0,0 0,0 0,0 0,0 0,0 103,0 186,-84 186,-186 0,-103 -83,-187 -186,-187z"/>
    <path class="fil4" d="M128311 89530c-19,0 -35,-14 -35,-31l0 -3070c0,-17 16,-31 35,-31 19,0 34,14 34,31l0 3070c0,17 -15,31 -34,31z"/>
    <path class="fil4" d="M129691 87415c-68,0 -123,55 -123,122 0,68 55,123 123,123 67,0 122,-55 122,-123 0,-67 -55,-122 -122,-122zm0 305c-101,0 -183,-82 -183,-183 0,-101 82,-183 183,-183 101,0 183,82 183,183 0,101 -82,183 -183,183z"/>
    <path class="fil4" d="M129602 89348c-324,0 -587,-264 -587,-587 0,-146 53,-286 151,-393 11,-13 30,-14 42,-3 13,11 14,30 3,43 -88,97 -135,222 -135,353 0,290 236,527 526,527 291,0 527,-237 527,-527 0,-30 -2,-59 -7,-88 -3,-16 8,-32 25,-34 16,-3 32,8 34,24 6,32 8,65 8,98 0,323 -263,587 -587,587z"/>
    <path class="fil4" d="M130457 89161c-11,0 -23,-8 -28,-20l-218 -561c-12,-31 -49,-51 -81,-45l-132 26c-53,10 -127,0 -168,-22 -43,-24 -83,-86 -93,-141l-72 -428c-6,-36 -41,-81 -75,-95l-69 -30c-31,-14 -79,-4 -102,21l-195 207c-20,22 -20,59 1,81l236 235c11,12 11,31 0,42 -12,12 -31,12 -43,0l-235 -235c-45,-44 -46,-118 -3,-164l195 -207c41,-44 115,-59 170,-35l69 29c52,23 101,85 110,141l72 428c7,37 36,83 63,98 29,16 89,23 128,16l131 -26c62,-12 126,24 149,82l218 561c7,16 -1,33 -17,39 -3,2 -7,3 -11,3z"/>
    <path class="fil4" d="M127409 87704c-6,-5 -10,-11 -14,-16 -60,-71 -45,-132 5,-221 48,-88 57,-130 9,-205 -11,-16 -33,-21 -49,-10 -16,11 -21,32 -10,48 29,45 31,58 -12,134 -34,62 -98,178 4,299 4,5 9,11 14,16 79,92 210,244 198,630l-706 0c-12,-386 119,-538 197,-630 6,-5 10,-11 15,-16 102,-121 37,-237 2,-299 -42,-77 -38,-87 -10,-135 10,-16 4,-38 -12,-48 -16,-10 -38,-4 -48,12 -46,78 -39,117 10,204 49,89 64,150 5,221 -5,5 -9,11 -14,16 -82,95 -235,273 -214,711 1,19 16,33 35,33l189 0c21,131 114,740 114,962 0,19 15,35 34,35 20,0 35,-16 35,-35 0,-225 -88,-809 -113,-962l250 0c-24,153 -113,737 -113,962 0,19 17,35 36,35 19,0 35,-16 35,-35 0,-222 92,-831 112,-962l194 0c18,0 34,-14 35,-33 22,-438 -131,-615 -213,-711z"/>
    <g>
     <path class="fil1" d="M130362 84437l-5869 0 0 -193 5869 0 0 0 0 193zm787 592l-193 0 0 0 -1 -30 -2 -30 -4 -29 -5 -30 -7 -28 -8 -28 -9 -28 -11 -26 -12 -27 -13 -25 -15 -25 -15 -24 -17 -23 -17 -23 -19 -21 -20 -21 -21 -20 -21 -19 -23 -17 -23 -17 -24 -15 -25 -15 -26 -13 -26 -12 -27 -10 -27 -10 -28 -8 -29 -6 -29 -6 -29 -3 -30 -3 -31 0 0 -193 40 1 40 3 39 5 39 7 38 8 37 11 37 12 36 15 34 15 34 18 33 19 32 20 31 22 30 24 28 24 27 26 27 28 24 28 24 30 22 31 20 31 19 33 18 34 15 35 15 36 12 36 11 37 9 38 7 39 5 39 3 40 1 40 0 0zm-193 5870l0 -5870 193 0 0 5870 0 0 -193 0zm-594 786l0 -193 0 0 31 -1 30 -2 29 -4 29 -5 29 -7 28 -8 27 -9 27 -11 26 -12 26 -13 25 -14 24 -16 23 -17 23 -17 21 -19 21 -20 20 -20 19 -22 17 -22 17 -24 15 -24 15 -25 13 -25 12 -26 11 -27 9 -28 8 -28 7 -28 5 -29 4 -30 2 -30 1 -30 193 0 -1 40 -3 40 -5 39 -7 39 -9 38 -11 37 -12 36 -15 36 -15 35 -18 34 -19 33 -20 32 -22 30 -24 30 -24 29 -27 27 -27 26 -28 25 -30 23 -31 22 -32 20 -33 19 -34 18 -34 16 -36 14 -37 12 -37 11 -38 9 -39 7 -39 5 -40 3 -40 1 0 0zm-5869 -193l5869 0 0 193 -5869 0 0 0 0 -193zm-786 -593l193 0 0 0 1 30 2 30 4 30 5 29 7 28 8 28 9 28 11 27 12 26 13 25 14 25 16 24 16 24 18 22 19 22 20 20 20 20 22 19 22 17 24 17 24 16 25 14 25 13 27 12 26 11 28 9 28 8 29 7 29 5 29 4 30 2 30 1 0 193 -40 -1 -40 -3 -39 -5 -38 -7 -38 -9 -38 -11 -36 -12 -36 -14 -35 -16 -34 -18 -32 -19 -32 -20 -31 -22 -30 -23 -28 -25 -28 -26 -26 -27 -25 -29 -23 -30 -22 -30 -20 -32 -19 -33 -18 -34 -16 -35 -14 -36 -12 -36 -11 -37 -9 -38 -7 -39 -5 -39 -3 -40 -1 -40 0 0zm193 -5870l0 5870 -193 0 0 -5870 0 0 193 0zm593 -785l0 193 0 0 -30 0 -30 3 -29 3 -29 6 -29 6 -28 8 -28 10 -26 10 -27 12 -25 13 -25 15 -24 15 -24 17 -22 17 -22 19 -20 20 -20 21 -19 21 -18 23 -16 23 -16 24 -14 25 -13 25 -12 27 -11 26 -9 28 -8 28 -7 28 -5 30 -4 29 -2 30 -1 30 -193 0 1 -40 3 -40 5 -39 7 -39 9 -38 11 -37 12 -36 14 -36 16 -35 18 -34 19 -33 20 -31 22 -31 23 -30 25 -28 26 -28 28 -26 28 -24 30 -24 31 -22 32 -20 32 -19 34 -18 35 -15 36 -15 36 -12 38 -11 38 -8 38 -7 39 -5 40 -3 40 -1 0 0z"/>
    </g>
   </g>
   <g>
    <path class="fil4" d="M126072 120379c-19,0 -34,-13 -34,-30l0 -3071c0,-17 15,-31 34,-31 20,0 35,14 35,31l0 3071c0,17 -15,30 -35,30z"/>
    <path class="fil4" d="M124687 120305c-19,0 -35,-15 -35,-34 -2,-81 -68,-1991 -68,-2170 0,-19 15,-35 34,-35 19,0 34,16 34,35 0,178 68,2148 69,2168 1,19 -14,35 -33,36 0,0 -1,0 -1,0z"/>
    <path class="fil4" d="M124973 120305c-19,0 -35,-15 -35,-34l0 -1188c0,-31 -18,-31 -24,-31 -11,0 -25,3 -25,31l0 1188c0,19 -16,34 -34,34 -19,0 -35,-15 -35,-34l0 -1188c0,-59 38,-100 94,-100 55,0 93,41 93,100l0 1188c0,19 -15,34 -34,34z"/>
    <path class="fil4" d="M125140 120305c-1,0 -1,0 -2,0 -19,-1 -34,-17 -34,-36 1,-20 70,-1990 70,-2168 0,-19 15,-35 34,-35 19,0 34,16 34,35 0,179 -65,2089 -68,2170 -1,19 -16,34 -34,34z"/>
    <path class="fil4" d="M125417 118965c-19,0 -34,-15 -34,-34 0,-811 -38,-995 -113,-1065 -21,-17 -186,-44 -360,-44 -173,0 -338,27 -360,44 -74,70 -112,254 -112,1065 0,19 -15,34 -34,34 -19,0 -35,-15 -35,-34 0,-851 39,-1026 134,-1115 50,-48 297,-63 407,-63 111,0 358,15 408,63 94,89 134,264 134,1115 0,19 -16,34 -35,34z"/>
    <path class="fil4" d="M124907 117548c-64,-1 -116,-52 -116,-116 0,-63 52,-115 116,-116 63,1 114,53 114,116 0,64 -51,115 -114,116zm0 -301c0,0 0,0 0,0 0,0 0,0 -1,0 0,0 0,0 0,0 -101,1 -183,84 -183,185 0,101 82,184 183,185 0,0 0,0 0,0l1 0c0,0 0,0 0,0 101,-1 183,-84 183,-185 0,-101 -82,-184 -183,-185z"/>
    <path class="fil4" d="M127756 118634c-151,-151 -170,-326 -186,-467 -11,-117 -22,-217 -107,-263 -71,-38 -142,-38 -222,-38 -13,0 -24,0 -37,0 0,0 0,0 0,0 0,0 0,0 0,0l0 0c-13,0 -24,0 -36,0 -82,0 -152,0 -223,38 -85,46 -95,146 -107,263 -15,141 -34,316 -186,467 -13,13 -13,35 0,49 7,7 16,10 25,10 8,0 17,-3 25,-10 168,-169 189,-365 205,-509 12,-115 21,-182 72,-209 55,-30 111,-30 188,-29 12,0 24,0 37,0l0 0c0,0 0,0 0,0l0 0c13,0 25,0 37,0 78,-1 134,-1 189,29 50,27 59,94 72,209 15,144 36,340 204,509 8,7 17,10 25,10 9,0 18,-3 25,-10 14,-14 14,-36 0,-49z"/>
    <path class="fil4" d="M127204 117689c-64,0 -116,-53 -116,-117 0,-64 52,-117 116,-117 64,0 116,53 116,117 0,64 -52,117 -116,117zm0 -304c0,0 0,0 0,0 0,0 0,0 0,0 0,0 0,0 0,0 -103,1 -186,85 -186,187 0,102 83,186 186,187 0,0 0,0 0,0l0 0c0,0 0,0 0,0 0,0 0,0 0,0 103,-1 186,-85 186,-187 0,-102 -83,-186 -186,-187z"/>
    <path class="fil4" d="M128311 120379c-19,0 -35,-13 -35,-30l0 -3071c0,-17 16,-31 35,-31 19,0 34,14 34,31l0 3071c0,17 -15,30 -34,30z"/>
    <path class="fil4" d="M129691 118264c-68,0 -123,55 -123,123 0,67 55,122 123,122 67,0 122,-55 122,-122 0,-68 -55,-123 -122,-123zm0 306c-101,0 -183,-83 -183,-183 0,-101 82,-183 183,-183 101,0 183,82 183,183 0,100 -82,183 -183,183z"/>
    <path class="fil4" d="M129602 120197c-324,0 -587,-263 -587,-587 0,-146 53,-285 151,-393 11,-13 30,-14 42,-2 13,11 14,30 3,42 -88,97 -135,222 -135,353 0,290 236,527 526,527 291,0 527,-237 527,-527 0,-29 -2,-59 -7,-87 -3,-17 8,-32 25,-35 16,-3 32,8 34,25 6,32 8,64 8,97 0,324 -263,587 -587,587z"/>
    <path class="fil4" d="M130457 120010c-11,0 -23,-7 -28,-19l-218 -562c-12,-30 -49,-51 -81,-44l-132 25c-53,11 -127,1 -168,-22 -43,-24 -83,-85 -93,-141l-72 -427c-6,-37 -41,-81 -75,-96l-69 -30c-31,-13 -79,-4 -102,21l-195 207c-20,23 -20,60 1,81l236 235c11,12 11,31 0,43 -12,12 -31,12 -43,0l-235 -235c-45,-45 -46,-119 -3,-165l195 -207c41,-44 115,-59 170,-35l69 30c52,22 101,84 110,141l72 427c7,38 36,83 63,98 29,16 89,24 128,16l131 -26c62,-12 126,25 149,82l218 562c7,15 -1,33 -17,39 -3,1 -7,2 -11,2z"/>
    <path class="fil4" d="M127409 118553c-6,-5 -10,-11 -14,-16 -60,-70 -45,-132 5,-220 48,-89 57,-131 9,-205 -11,-17 -33,-21 -49,-11 -16,11 -21,32 -10,49 29,44 31,57 -12,133 -34,63 -98,179 4,299 4,6 9,11 14,17 79,92 210,243 198,629l-706 0c-12,-386 119,-537 197,-629 6,-6 10,-11 15,-17 102,-120 37,-236 2,-299 -42,-77 -38,-87 -10,-135 10,-16 4,-37 -12,-47 -16,-10 -38,-5 -48,12 -46,77 -39,117 10,204 49,88 64,150 5,220 -5,5 -9,11 -14,16 -82,96 -235,274 -214,712 1,18 16,33 35,33l189 0c21,130 114,739 114,961 0,20 15,35 34,35 20,0 35,-15 35,-35 0,-225 -88,-809 -113,-961l250 0c-24,152 -113,736 -113,961 0,20 17,35 36,35 19,0 35,-15 35,-35 0,-222 92,-831 112,-961l194 0c18,0 34,-15 35,-33 22,-438 -131,-616 -213,-712z"/>
    <g>
     <path class="fil1" d="M130362 115286l-5869 0 0 -193 5869 0 0 0 0 193zm787 593l-193 0 0 0 -1 -31 -2 -30 -4 -29 -5 -29 -7 -29 -8 -28 -9 -27 -11 -27 -12 -26 -13 -26 -15 -25 -15 -24 -17 -23 -17 -23 -19 -21 -20 -21 -21 -20 -21 -18 -23 -18 -23 -17 -24 -15 -25 -14 -26 -14 -26 -11 -27 -11 -27 -9 -28 -8 -29 -7 -29 -5 -29 -4 -30 -2 -31 -1 0 -193 40 1 40 3 39 5 39 7 38 9 37 10 37 13 36 14 34 16 34 17 33 19 32 21 31 22 30 23 28 25 27 26 27 27 24 28 24 30 22 31 20 32 19 33 18 33 15 35 15 36 12 36 11 38 9 38 7 38 5 40 3 39 1 41 0 0zm-193 5869l0 -5869 193 0 0 5869 0 0 -193 0zm-594 786l0 -193 0 0 31 -1 30 -2 29 -4 29 -5 29 -7 28 -8 27 -9 27 -11 26 -12 26 -13 25 -14 24 -16 23 -16 23 -18 21 -19 21 -19 20 -21 19 -22 17 -22 17 -23 15 -24 15 -25 13 -26 12 -26 11 -27 9 -27 8 -28 7 -29 5 -29 4 -30 2 -30 1 -30 193 0 -1 40 -3 40 -5 39 -7 39 -9 38 -11 37 -12 37 -15 35 -15 35 -18 34 -19 33 -20 32 -22 31 -24 29 -24 29 -27 27 -27 26 -28 25 -30 23 -31 22 -32 21 -33 19 -34 17 -34 16 -36 14 -37 12 -37 11 -38 9 -39 7 -39 5 -40 3 -40 1 0 0zm-5869 -193l5869 0 0 193 -5869 0 0 0 0 -193zm-786 -593l193 0 0 0 1 30 2 30 4 30 5 29 7 29 8 28 9 27 11 27 12 26 13 26 14 25 16 24 16 23 18 22 19 22 20 21 20 19 22 19 22 18 24 16 24 16 25 14 25 13 27 12 26 11 28 9 28 8 29 7 29 5 29 4 30 2 30 1 0 193 -40 -1 -40 -3 -39 -5 -38 -7 -38 -9 -38 -11 -36 -12 -36 -14 -35 -16 -34 -17 -32 -19 -32 -21 -31 -22 -30 -23 -28 -25 -28 -26 -26 -27 -25 -29 -23 -29 -22 -31 -20 -32 -19 -33 -18 -34 -16 -35 -14 -35 -12 -37 -11 -37 -9 -38 -7 -39 -5 -39 -3 -40 -1 -40 0 0zm193 -5869l0 5869 -193 0 0 -5869 0 0 193 0zm593 -786l0 193 0 0 -30 1 -30 2 -29 4 -29 5 -29 7 -28 8 -28 9 -26 11 -27 11 -25 14 -25 14 -24 15 -24 17 -22 18 -22 18 -20 20 -20 21 -19 21 -18 23 -16 23 -16 24 -14 25 -13 26 -12 26 -11 27 -9 27 -8 28 -7 29 -5 29 -4 29 -2 30 -1 31 -193 0 1 -41 3 -39 5 -40 7 -38 9 -38 11 -38 12 -36 14 -36 16 -35 18 -33 19 -33 20 -32 22 -31 23 -30 25 -28 26 -27 28 -26 28 -25 30 -23 31 -22 32 -21 32 -19 34 -17 35 -16 36 -14 36 -13 38 -10 38 -9 38 -7 39 -5 40 -3 40 -1 0 0z"/>
    </g>
   </g>
   <g>
    <path class="fil4" d="M173646 89530c-19,0 -35,-14 -35,-31l0 -3070c0,-17 16,-31 35,-31 20,0 35,14 35,31l0 3070c0,17 -15,31 -35,31z"/>
    <path class="fil4" d="M172260 89456c-19,0 -34,-15 -34,-34 -3,-81 -69,-1991 -69,-2170 0,-19 16,-35 35,-35 19,0 34,16 34,35 0,178 68,2148 69,2168 0,19 -15,35 -34,36 0,0 -1,0 -1,0z"/>
    <path class="fil4" d="M172546 89456c-19,0 -35,-16 -35,-35l0 -1188c0,-30 -17,-30 -23,-30 -11,0 -26,3 -26,30l0 1188c0,19 -15,35 -34,35 -19,0 -34,-16 -34,-35l0 -1188c0,-58 38,-99 94,-99 55,0 92,41 92,99l0 1188c0,19 -15,35 -34,35z"/>
    <path class="fil4" d="M172713 89456c-1,0 -1,0 -2,0 -19,-1 -33,-17 -33,-36 1,-20 69,-1990 69,-2168 0,-19 16,-35 35,-35 19,0 34,16 34,35 0,179 -66,2089 -69,2170 -1,19 -16,34 -34,34z"/>
    <path class="fil4" d="M172991 88116c-19,0 -34,-16 -34,-35 0,-810 -38,-994 -113,-1064 -22,-18 -187,-45 -360,-45 -173,0 -338,27 -361,45 -74,70 -112,254 -112,1064 0,19 -15,35 -34,35 -19,0 -34,-16 -34,-35 0,-851 39,-1025 133,-1115 51,-47 297,-62 408,-62 111,0 357,15 408,63 93,89 133,263 133,1114 0,19 -15,35 -34,35z"/>
    <path class="fil4" d="M172480 86699c-64,-1 -115,-53 -115,-116 0,-64 51,-115 115,-116 64,1 115,52 115,116 0,63 -51,115 -115,116zm0 -301c0,0 0,0 0,0 0,0 0,0 -1,0 0,0 0,0 0,0 -101,1 -183,84 -183,185 0,101 82,184 183,185 0,0 0,0 0,0l1 0c0,0 0,0 0,0 101,-1 183,-84 183,-185 0,-101 -82,-184 -183,-185z"/>
    <path class="fil4" d="M175330 87784c-152,-151 -171,-326 -186,-466 -12,-117 -23,-218 -108,-263 -71,-39 -141,-38 -221,-38 -13,0 -25,0 -37,0 0,0 0,0 0,0 0,0 0,0 0,0l0 0c-13,0 -25,0 -37,0 -82,0 -151,-1 -222,38 -85,45 -96,146 -108,263 -15,140 -34,315 -185,466 -14,14 -14,36 0,50 7,6 16,10 25,10 8,0 17,-4 24,-10 169,-169 190,-365 206,-509 12,-116 21,-182 71,-209 55,-30 111,-30 189,-29 11,0 24,0 37,0l0 0c0,0 0,0 0,0l0 0c12,0 25,0 37,0 77,-1 133,-1 188,29 51,27 60,93 72,209 16,144 36,340 205,509 7,6 16,10 24,10 9,0 18,-4 26,-10 13,-14 13,-36 0,-50z"/>
    <path class="fil4" d="M174778 86840c-64,-1 -117,-53 -117,-117 0,-64 53,-117 117,-118 64,1 116,54 116,118 0,64 -52,116 -116,117zm0 -304c0,0 0,0 0,0 0,0 0,0 0,0 0,0 0,0 0,0 -103,0 -186,84 -186,187 0,102 83,186 186,186 0,0 0,0 0,0l0 0c0,0 0,0 0,0 0,0 0,0 0,0 102,0 185,-84 185,-186 0,-103 -83,-187 -185,-187z"/>
    <path class="fil4" d="M175884 89530c-19,0 -34,-14 -34,-31l0 -3070c0,-17 15,-31 34,-31 19,0 35,14 35,31l0 3070c0,17 -16,31 -35,31z"/>
    <path class="fil4" d="M177264 87415c-67,0 -122,55 -122,122 0,68 55,123 122,123 68,0 123,-55 123,-123 0,-67 -55,-122 -123,-122zm0 305c-101,0 -183,-82 -183,-183 0,-101 82,-183 183,-183 101,0 183,82 183,183 0,101 -82,183 -183,183z"/>
    <path class="fil4" d="M177176 89348c-324,0 -587,-264 -587,-587 0,-146 53,-286 150,-393 12,-13 31,-14 43,-3 12,11 13,30 2,43 -87,97 -135,222 -135,353 0,290 236,527 527,527 290,0 527,-237 527,-527 0,-30 -2,-59 -8,-88 -2,-16 8,-32 26,-34 16,-3 31,8 34,24 5,32 8,65 8,98 0,323 -263,587 -587,587z"/>
    <path class="fil4" d="M178031 89161c-12,0 -24,-8 -28,-20l-218 -561c-12,-31 -49,-51 -82,-45l-131 26c-53,10 -127,0 -169,-22 -42,-24 -83,-86 -93,-141l-71 -428c-6,-36 -42,-81 -76,-95l-68 -30c-31,-14 -80,-4 -102,21l-195 207c-21,22 -21,59 1,81l235 235c12,12 12,31 0,43 -12,11 -30,11 -42,0l-236 -236c-45,-44 -46,-118 -2,-164l195 -207c40,-44 115,-59 170,-35l69 29c52,23 101,85 110,141l72 428c6,37 36,83 63,98 29,16 88,23 127,16l132 -26c61,-12 126,24 149,82l218 561c6,16 -1,34 -17,39 -4,2 -8,3 -11,3z"/>
    <path class="fil4" d="M174982 87704c-5,-5 -10,-11 -13,-16 -61,-71 -45,-132 4,-221 49,-88 57,-130 9,-205 -11,-16 -32,-21 -48,-10 -17,11 -21,32 -10,48 29,45 30,58 -12,134 -34,62 -98,178 4,299 3,5 9,11 13,16 79,92 210,244 199,630l-707 0c-11,-386 119,-538 198,-630 5,-5 10,-11 14,-16 102,-121 37,-237 3,-299 -42,-77 -39,-87 -11,-135 10,-16 5,-38 -12,-48 -16,-10 -37,-4 -47,12 -46,78 -39,117 10,204 48,89 64,150 4,221 -4,5 -9,11 -13,16 -83,95 -236,273 -214,711 1,19 16,33 35,33l188 0c21,131 114,740 114,962 0,19 15,35 34,35 20,0 36,-16 36,-35 0,-225 -89,-809 -113,-962l250 0c-25,153 -113,737 -113,962 0,19 16,35 35,35 20,0 35,-16 35,-35 0,-222 92,-831 113,-962l194 0c18,0 33,-14 34,-33 23,-438 -131,-615 -213,-711z"/>
    <g>
     <path class="fil1" d="M177936 84437l-5869 0 0 -193 5869 0 0 0 0 193zm786 592l-193 0 0 0 -1 -30 -2 -30 -4 -29 -5 -30 -7 -28 -8 -28 -9 -28 -11 -26 -12 -27 -13 -25 -14 -25 -16 -24 -16 -23 -18 -23 -19 -21 -19 -21 -21 -20 -22 -19 -22 -17 -23 -17 -25 -15 -24 -15 -26 -13 -26 -12 -27 -10 -28 -10 -28 -8 -28 -6 -29 -6 -30 -3 -30 -3 -30 0 0 -193 40 1 40 3 39 5 39 7 38 8 37 11 36 12 36 15 35 15 34 18 33 19 32 20 30 22 30 24 29 24 27 26 26 28 25 28 23 30 22 31 21 31 19 33 17 34 16 35 14 36 13 36 10 37 9 38 7 39 5 39 3 40 1 40 0 0zm-193 5870l0 -5870 193 0 0 5870 0 0 -193 0zm-593 786l0 -193 0 0 30 -1 30 -2 30 -4 29 -5 28 -7 28 -8 28 -9 27 -11 26 -12 26 -13 24 -14 25 -16 23 -17 22 -17 22 -19 21 -20 19 -20 19 -22 18 -22 16 -24 16 -24 14 -25 13 -25 12 -26 11 -27 9 -28 8 -28 7 -28 5 -29 4 -30 2 -30 1 -30 193 0 -1 40 -3 40 -5 39 -7 39 -9 38 -10 37 -13 36 -14 36 -16 35 -17 34 -19 33 -21 32 -22 30 -23 30 -25 29 -26 27 -27 26 -29 25 -30 23 -30 22 -32 20 -33 19 -34 18 -35 16 -36 14 -36 12 -37 11 -38 9 -39 7 -39 5 -40 3 -40 1 0 0zm-5869 -193l5869 0 0 193 -5869 0 0 0 0 -193zm-786 -593l193 0 0 0 0 30 3 30 3 30 6 29 6 28 8 28 10 28 10 27 12 26 13 25 15 25 15 24 17 24 18 22 18 22 20 20 21 20 21 19 23 17 23 17 24 16 25 14 26 13 26 12 27 11 27 9 28 8 29 7 29 5 30 4 30 2 30 1 0 193 -40 -1 -40 -3 -39 -5 -39 -7 -38 -9 -37 -11 -37 -12 -35 -14 -35 -16 -34 -18 -33 -19 -32 -20 -31 -22 -29 -23 -29 -25 -27 -26 -26 -27 -25 -29 -23 -30 -22 -30 -21 -32 -19 -33 -17 -34 -16 -35 -14 -36 -13 -36 -10 -37 -9 -38 -7 -39 -5 -39 -3 -40 -1 -40 0 0zm193 -5870l0 5870 -193 0 0 -5870 0 0 193 0zm593 -785l0 193 0 0 -30 0 -30 3 -30 3 -29 6 -29 6 -28 8 -27 10 -27 10 -26 12 -26 13 -25 15 -24 15 -23 17 -23 17 -21 19 -21 20 -20 21 -18 21 -18 23 -17 23 -15 24 -15 25 -13 25 -12 27 -10 26 -10 28 -8 28 -6 28 -6 30 -3 29 -3 30 0 30 -193 0 1 -40 3 -40 5 -39 7 -39 9 -38 10 -37 13 -36 14 -36 16 -35 17 -34 19 -33 21 -31 22 -31 23 -30 25 -28 26 -28 27 -26 29 -24 29 -24 31 -22 32 -20 33 -19 34 -18 35 -15 35 -15 37 -12 37 -11 38 -8 39 -7 39 -5 40 -3 40 -1 0 0z"/>
    </g>
   </g>
   <g>
    <path class="fil4" d="M173646 120379c-19,0 -35,-13 -35,-30l0 -3071c0,-17 16,-31 35,-31 20,0 35,14 35,31l0 3071c0,17 -15,30 -35,30z"/>
    <path class="fil4" d="M172260 120305c-19,0 -34,-15 -34,-34 -3,-81 -69,-1991 -69,-2170 0,-19 16,-35 35,-35 19,0 34,16 34,35 0,178 68,2148 69,2168 0,19 -15,35 -34,36 0,0 -1,0 -1,0z"/>
    <path class="fil4" d="M172546 120305c-19,0 -35,-15 -35,-34l0 -1188c0,-31 -17,-31 -23,-31 -11,0 -26,3 -26,31l0 1188c0,19 -15,34 -34,34 -19,0 -34,-15 -34,-34l0 -1188c0,-59 38,-100 94,-100 55,0 92,41 92,100l0 1188c0,19 -15,34 -34,34z"/>
    <path class="fil4" d="M172713 120305c-1,0 -1,0 -2,0 -19,-1 -33,-17 -33,-36 1,-20 69,-1990 69,-2168 0,-19 16,-35 35,-35 19,0 34,16 34,35 0,179 -66,2089 -69,2170 -1,19 -16,34 -34,34z"/>
    <path class="fil4" d="M172991 118965c-19,0 -34,-15 -34,-34 0,-811 -38,-995 -113,-1065 -22,-17 -187,-44 -360,-44 -173,0 -338,27 -361,44 -74,70 -112,254 -112,1065 0,19 -15,34 -34,34 -19,0 -34,-15 -34,-34 0,-851 39,-1026 133,-1115 51,-48 297,-63 408,-63 111,0 357,15 408,63 93,89 133,264 133,1115 0,19 -15,34 -34,34z"/>
    <path class="fil4" d="M172480 117548c-64,-1 -115,-52 -115,-116 0,-63 51,-115 115,-116 64,1 115,53 115,116 0,64 -51,115 -115,116zm0 -301c0,0 0,0 0,0 0,0 0,0 -1,0 0,0 0,0 0,0 -101,1 -183,84 -183,185 0,101 82,184 183,185 0,0 0,0 0,0l1 0c0,0 0,0 0,0 101,-1 183,-84 183,-185 0,-101 -82,-184 -183,-185z"/>
    <path class="fil4" d="M175330 118634c-152,-151 -171,-326 -186,-467 -12,-117 -23,-217 -108,-263 -71,-38 -141,-38 -221,-38 -13,0 -25,0 -37,0 0,0 0,0 0,0 0,0 0,0 0,0l0 0c-13,0 -25,0 -36,0 -83,0 -152,0 -223,38 -85,46 -96,146 -108,263 -15,141 -34,316 -185,467 -14,13 -14,35 0,49 7,7 16,10 25,10 8,0 17,-3 24,-10 169,-169 190,-365 206,-509 12,-115 21,-182 71,-209 55,-30 111,-30 189,-29 11,0 24,0 37,0l0 0c0,0 0,0 0,0l0 0c12,0 25,0 37,0 77,-1 133,-1 188,29 51,27 60,94 72,209 16,144 36,340 205,509 7,7 16,10 24,10 9,0 18,-3 26,-10 13,-14 13,-36 0,-49z"/>
    <path class="fil4" d="M174778 117689c-64,0 -117,-53 -117,-117 0,-64 53,-117 117,-117 64,0 116,53 116,117 0,64 -52,117 -116,117zm0 -304c0,0 0,0 0,0 0,0 0,0 0,0 0,0 0,0 0,0 -103,1 -186,85 -186,187 0,102 83,186 186,187 0,0 0,0 0,0l0 0c0,0 0,0 0,0 0,0 0,0 0,0 102,-1 185,-85 185,-187 0,-102 -83,-186 -185,-187z"/>
    <path class="fil4" d="M175884 120379c-19,0 -34,-13 -34,-30l0 -3071c0,-17 15,-31 34,-31 19,0 35,14 35,31l0 3071c0,17 -16,30 -35,30z"/>
    <path class="fil4" d="M177264 118264c-67,0 -122,55 -122,123 0,67 55,122 122,122 68,0 123,-55 123,-122 0,-68 -55,-123 -123,-123zm0 306c-101,0 -183,-83 -183,-183 0,-101 82,-183 183,-183 101,0 183,82 183,183 0,100 -82,183 -183,183z"/>
    <path class="fil4" d="M177176 120197c-324,0 -587,-263 -587,-587 0,-146 53,-285 150,-393 12,-13 31,-14 43,-2 12,11 13,30 2,42 -87,97 -135,222 -135,353 0,290 236,527 527,527 290,0 527,-237 527,-527 0,-29 -2,-59 -8,-87 -2,-17 8,-32 26,-35 16,-3 31,8 34,25 5,32 8,64 8,97 0,324 -263,587 -587,587z"/>
    <path class="fil4" d="M178031 120010c-12,0 -24,-7 -28,-19l-218 -562c-12,-30 -49,-51 -82,-44l-131 25c-53,11 -127,1 -169,-22 -42,-24 -83,-85 -93,-141l-71 -427c-6,-37 -42,-81 -76,-96l-68 -30c-31,-13 -80,-4 -102,21l-195 207c-21,23 -21,60 1,81l235 235c12,12 12,31 0,43 -11,12 -30,12 -42,0l-236 -235c-45,-45 -46,-119 -2,-165l195 -207c40,-43 115,-59 170,-35l69 30c52,22 101,84 110,141l72 427c6,38 36,83 63,98 29,16 88,24 127,16l132 -26c61,-12 126,25 149,82l218 562c6,15 -1,33 -17,39 -4,1 -8,2 -11,2z"/>
    <path class="fil4" d="M174982 118553c-5,-5 -10,-11 -13,-16 -61,-70 -45,-132 4,-220 49,-89 57,-131 9,-205 -10,-17 -32,-21 -48,-11 -17,11 -21,32 -10,49 29,44 30,57 -12,133 -34,63 -98,179 4,299 3,6 9,11 13,17 79,92 210,243 199,629l-707 0c-11,-386 119,-537 198,-629 5,-6 10,-11 14,-17 102,-120 37,-236 3,-299 -42,-77 -39,-87 -11,-135 10,-16 5,-37 -12,-47 -16,-10 -37,-5 -47,12 -46,77 -39,117 10,204 48,88 64,150 4,220 -4,5 -9,11 -13,16 -83,96 -236,274 -214,712 1,18 16,33 35,33l188 0c21,130 114,739 114,961 0,20 15,35 34,35 20,0 36,-15 36,-35 0,-225 -89,-809 -113,-961l250 0c-25,152 -113,736 -113,961 0,20 16,35 35,35 20,0 35,-15 35,-35 0,-222 92,-831 113,-961l194 0c18,0 33,-15 34,-33 23,-438 -131,-616 -213,-712z"/>
    <g>
     <path class="fil1" d="M177936 115286l-5869 0 0 -193 5869 0 0 0 0 193zm786 593l-193 0 0 0 -1 -31 -2 -30 -4 -29 -5 -29 -7 -29 -8 -28 -9 -27 -11 -27 -12 -26 -13 -26 -14 -25 -16 -24 -16 -23 -18 -23 -19 -21 -19 -21 -21 -20 -22 -18 -22 -18 -23 -17 -25 -15 -24 -14 -26 -14 -26 -11 -27 -11 -28 -9 -28 -8 -28 -7 -29 -5 -30 -4 -30 -2 -30 -1 0 -193 40 1 40 3 39 5 39 7 38 9 37 10 36 13 36 14 35 16 34 17 33 19 32 21 30 22 30 23 29 25 27 26 26 27 25 28 23 30 22 31 21 32 19 33 17 33 16 35 14 36 13 36 10 38 9 38 7 38 5 40 3 39 1 41 0 0zm-193 5869l0 -5869 193 0 0 5869 0 0 -193 0zm-593 786l0 -193 0 0 30 -1 30 -2 30 -4 29 -5 28 -7 28 -8 28 -9 27 -11 26 -12 26 -13 24 -14 25 -16 23 -16 22 -18 22 -19 21 -19 19 -21 19 -22 18 -22 16 -23 16 -24 14 -25 13 -26 12 -26 11 -27 9 -27 8 -28 7 -29 5 -29 4 -30 2 -30 1 -30 193 0 -1 40 -3 40 -5 39 -7 39 -9 38 -10 37 -13 37 -14 35 -16 35 -17 34 -19 33 -21 32 -22 31 -23 29 -25 29 -26 27 -27 26 -29 25 -30 23 -30 22 -32 21 -33 19 -34 17 -35 16 -36 14 -36 12 -37 11 -38 9 -39 7 -39 5 -40 3 -40 1 0 0zm-5869 -193l5869 0 0 193 -5869 0 0 0 0 -193zm-786 -593l193 0 0 0 0 30 3 30 3 30 6 29 6 29 8 28 10 27 10 27 12 26 13 26 15 25 15 24 17 23 18 22 18 22 20 21 21 19 21 19 23 18 23 16 24 16 25 14 26 13 26 12 27 11 27 9 28 8 29 7 29 5 30 4 30 2 30 1 0 193 -40 -1 -40 -3 -39 -5 -39 -7 -38 -9 -37 -11 -37 -12 -35 -14 -35 -16 -34 -17 -33 -19 -32 -21 -31 -22 -29 -23 -29 -25 -27 -26 -26 -27 -25 -29 -23 -29 -22 -31 -21 -32 -19 -33 -17 -34 -16 -35 -14 -35 -13 -37 -10 -37 -9 -38 -7 -39 -5 -39 -3 -40 -1 -40 0 0zm193 -5869l0 5869 -193 0 0 -5869 0 0 193 0zm593 -786l0 193 0 0 -30 1 -30 2 -30 4 -29 5 -29 7 -28 8 -27 9 -27 11 -26 11 -26 14 -25 14 -24 15 -23 17 -23 18 -21 18 -21 20 -20 21 -18 21 -18 23 -17 23 -15 24 -15 25 -13 26 -12 26 -10 27 -10 27 -8 28 -6 29 -6 29 -3 29 -3 30 0 31 -193 0 1 -41 3 -39 5 -40 7 -38 9 -38 10 -38 13 -36 14 -36 16 -35 17 -33 19 -33 21 -32 22 -31 23 -30 25 -28 26 -27 27 -26 29 -25 29 -23 31 -22 32 -21 33 -19 34 -17 35 -16 35 -14 37 -13 37 -10 38 -9 39 -7 39 -5 40 -3 40 -1 0 0z"/>
    </g>
   </g>
   <g>
    <path class="fil4" d="M124572 76931c-19,0 -35,-14 -35,-31l0 -3071c0,-17 16,-30 35,-30 19,0 35,13 35,30l0 3071c0,17 -16,31 -35,31z"/>
    <path class="fil4" d="M123186 76856c-19,0 -34,-14 -34,-33 -3,-81 -69,-1991 -69,-2171 0,-19 16,-34 35,-34 19,0 34,15 34,34 0,179 68,2149 69,2169 0,19 -15,35 -34,35 0,0 -1,0 -1,0z"/>
    <path class="fil4" d="M123472 76857c-19,0 -35,-16 -35,-35l0 -1188c0,-30 -17,-30 -23,-30 -11,0 -26,3 -26,30l0 1188c0,19 -15,35 -34,35 -19,0 -34,-16 -34,-35l0 -1188c0,-59 38,-99 94,-99 55,0 92,40 92,99l0 1188c0,19 -15,35 -34,35z"/>
    <path class="fil4" d="M123639 76856c-1,0 -1,0 -2,0 -19,0 -33,-16 -33,-35 1,-20 69,-1990 69,-2169 0,-19 16,-34 35,-34 19,0 34,15 34,34 0,180 -66,2090 -69,2171 -1,19 -16,33 -34,33z"/>
    <path class="fil4" d="M123917 75517c-19,0 -34,-16 -34,-35 0,-810 -38,-994 -113,-1065 -22,-17 -187,-44 -360,-44 -173,0 -338,27 -361,45 -74,70 -112,254 -112,1064 0,19 -15,35 -34,35 -19,0 -34,-16 -34,-35 0,-851 39,-1026 133,-1115 51,-47 297,-63 408,-63 111,0 357,16 408,63 93,89 133,264 133,1115 0,19 -15,35 -34,35z"/>
    <path class="fil4" d="M123406 74100c-64,-1 -115,-53 -115,-116 0,-64 51,-116 115,-116 63,0 115,52 115,116 0,63 -52,115 -115,116zm0 -301c0,0 0,0 0,0 0,0 0,0 -1,0 0,0 0,0 0,0 -101,0 -183,83 -183,185 0,101 82,184 183,184 0,0 0,0 0,0l1 0c0,0 0,0 0,0 101,0 183,-83 183,-184 0,-102 -82,-185 -183,-185z"/>
    <path class="fil4" d="M126256 75185c-152,-151 -171,-326 -186,-467 -12,-116 -23,-217 -108,-263 -71,-38 -141,-38 -221,-38 -13,0 -25,0 -37,0 0,0 0,0 0,0 0,0 0,0 0,0l0 0c-13,0 -25,0 -37,0 -82,0 -151,0 -222,38 -85,46 -96,147 -108,263 -15,141 -34,316 -185,467 -14,14 -14,36 0,49 7,7 16,11 25,11 8,0 17,-4 24,-11 169,-168 190,-365 206,-508 12,-116 21,-183 71,-210 55,-29 111,-29 189,-29 11,0 24,0 37,0l0 0c0,0 0,0 0,0l0 0c12,0 25,0 37,0 77,0 133,0 188,29 51,27 60,94 72,210 16,143 36,340 205,508 7,7 16,11 24,11 9,0 18,-4 26,-11 13,-13 13,-35 0,-49z"/>
    <path class="fil4" d="M125704 74240c-64,0 -117,-53 -117,-117 0,-64 53,-116 117,-117 64,1 116,53 116,117 0,64 -52,117 -116,117zm0 -304c0,0 0,0 0,0 0,0 0,0 0,0 0,0 0,0 0,0 -103,1 -186,85 -186,187 0,103 83,186 186,187 0,0 0,0 0,0l0 0c0,0 0,0 0,0 0,0 0,0 0,0 102,-1 185,-84 185,-187 0,-102 -83,-186 -185,-187z"/>
    <path class="fil4" d="M126810 76931c-19,0 -34,-14 -34,-31l0 -3071c0,-17 15,-30 34,-30 19,0 34,13 34,30l0 3071c0,17 -15,31 -34,31z"/>
    <path class="fil4" d="M128190 74816c-67,0 -122,54 -122,122 0,68 55,122 122,122 68,0 123,-54 123,-122 0,-68 -55,-122 -123,-122zm0 305c-101,0 -183,-82 -183,-183 0,-101 82,-183 183,-183 101,0 183,82 183,183 0,101 -82,183 -183,183z"/>
    <path class="fil4" d="M128102 76748c-324,0 -587,-263 -587,-587 0,-145 53,-285 150,-393 12,-12 31,-13 43,-2 12,11 13,30 2,42 -87,97 -135,223 -135,353 0,291 236,527 527,527 290,0 526,-236 526,-527 0,-29 -1,-58 -7,-87 -2,-16 8,-32 26,-35 16,-3 31,9 34,25 5,32 8,65 8,97 0,324 -263,587 -587,587z"/>
    <path class="fil4" d="M128957 76561c-12,0 -24,-7 -28,-19l-218 -561c-12,-31 -49,-51 -82,-45l-131 26c-53,10 -127,0 -169,-22 -42,-24 -83,-86 -93,-141l-71 -428c-6,-36 -42,-81 -76,-96l-68 -29c-31,-14 -80,-4 -102,21l-195 207c-21,22 -21,59 1,80l235 236c12,11 12,31 0,42 -12,12 -30,12 -42,0l-236 -235c-45,-45 -46,-118 -2,-165l194 -206c41,-44 116,-60 171,-36l69 30c52,23 101,85 110,141l72 428c6,37 36,83 63,98 29,16 88,23 127,15l132 -25c61,-12 126,24 148,82l219 561c6,16 -1,33 -17,39 -4,2 -8,2 -11,2z"/>
    <path class="fil4" d="M125908 75105c-5,-6 -10,-11 -13,-16 -61,-71 -45,-132 4,-221 49,-88 57,-130 9,-205 -11,-16 -32,-21 -48,-10 -17,10 -21,32 -10,48 29,45 30,57 -12,133 -34,63 -98,179 4,300 3,5 9,10 13,16 79,92 210,244 198,629l-706 0c-11,-385 119,-537 198,-629 5,-6 10,-11 14,-16 102,-121 37,-237 3,-300 -42,-77 -39,-87 -11,-134 10,-17 5,-38 -12,-48 -16,-10 -38,-4 -47,12 -46,77 -39,117 9,204 49,89 65,150 5,221 -5,5 -9,10 -14,16 -82,95 -235,273 -213,711 1,19 16,33 35,33l188 0c21,130 114,739 114,962 0,19 15,35 34,35 20,0 35,-16 35,-35 0,-225 -88,-810 -112,-962l250 0c-25,152 -113,737 -113,962 0,19 16,35 35,35 20,0 35,-16 35,-35 0,-223 92,-832 113,-962l194 0c18,0 33,-14 34,-33 23,-438 -131,-616 -213,-711z"/>
    <g>
     <path class="fil1" d="M128862 71837l-5869 0 0 -193 5869 0 0 0 0 193zm786 593l-193 0 0 0 -1 -30 -2 -30 -4 -30 -5 -29 -7 -28 -8 -28 -9 -28 -11 -27 -12 -26 -13 -26 -14 -24 -16 -24 -16 -24 -18 -22 -19 -22 -19 -20 -21 -20 -22 -19 -22 -18 -24 -16 -24 -16 -25 -14 -25 -13 -26 -12 -27 -11 -28 -9 -28 -8 -28 -7 -29 -5 -30 -4 -30 -2 -30 -1 0 -193 40 1 40 3 39 5 39 7 38 9 37 11 36 12 36 14 35 16 34 18 33 18 32 21 30 22 30 23 29 25 27 26 26 27 25 29 23 29 22 31 21 32 19 33 17 34 16 35 14 35 13 37 10 37 9 38 7 39 5 39 3 40 1 40 0 0zm-193 5869l0 -5869 193 0 0 5869 0 0 -193 0zm-593 786l0 -193 0 0 30 0 30 -3 30 -4 29 -5 28 -6 28 -8 28 -10 27 -10 26 -12 26 -13 24 -15 24 -15 24 -17 22 -18 22 -18 21 -20 19 -21 19 -21 18 -23 16 -23 16 -24 14 -25 13 -25 12 -27 11 -27 9 -27 8 -28 7 -29 5 -29 4 -29 2 -30 1 -31 193 0 -1 41 -3 39 -5 40 -7 38 -9 38 -10 38 -13 36 -14 36 -16 35 -17 34 -19 32 -21 32 -22 31 -23 30 -25 28 -26 28 -27 26 -29 24 -30 24 -30 22 -32 20 -33 19 -34 17 -35 16 -36 14 -36 13 -37 10 -38 9 -39 7 -39 5 -40 3 -40 1 0 0zm-5869 -193l5869 0 0 193 -5869 0 0 0 0 -193zm-786 -593l193 0 0 0 0 31 3 30 3 29 6 29 6 29 8 28 10 27 10 27 12 27 13 25 15 25 15 24 17 23 18 23 18 21 20 21 21 20 21 18 23 18 23 17 24 15 25 15 26 13 26 12 27 10 27 10 28 8 29 6 29 5 30 4 30 3 30 0 0 193 -40 -1 -40 -3 -39 -5 -39 -7 -38 -9 -37 -10 -37 -13 -35 -14 -35 -16 -34 -17 -33 -19 -32 -20 -31 -22 -29 -24 -29 -24 -27 -26 -26 -28 -25 -28 -23 -30 -22 -31 -21 -32 -19 -32 -17 -34 -16 -35 -14 -36 -13 -36 -11 -38 -8 -38 -7 -38 -5 -40 -3 -39 -1 -41 0 0zm193 -5869l0 5869 -193 0 0 -5869 0 0 193 0zm593 -786l0 193 0 0 -30 1 -30 2 -30 4 -29 5 -29 7 -28 8 -27 9 -27 11 -26 12 -26 13 -25 14 -24 16 -23 16 -23 18 -21 19 -21 20 -20 20 -18 22 -18 22 -17 24 -15 24 -15 24 -13 26 -12 26 -10 27 -10 28 -8 28 -6 28 -6 29 -3 30 -3 30 0 30 -193 0 1 -40 3 -40 5 -39 7 -39 8 -38 11 -37 13 -37 14 -35 16 -35 17 -34 19 -33 21 -32 22 -31 23 -29 25 -29 26 -27 27 -26 29 -25 29 -23 31 -22 32 -21 33 -18 34 -18 35 -16 35 -14 37 -12 37 -11 38 -9 39 -7 39 -5 40 -3 40 -1 0 0z"/>
    </g>
   </g>
   <g>
    <path class="fil4" d="M150226 76931c-19,0 -35,-14 -35,-31l0 -3071c0,-17 16,-30 35,-30 20,0 35,13 35,30l0 3071c0,17 -15,31 -35,31z"/>
    <path class="fil4" d="M148840 76856c-19,0 -34,-14 -34,-33 -3,-81 -68,-1991 -68,-2171 0,-19 15,-34 34,-34 19,0 34,15 34,34 0,179 68,2149 69,2169 1,19 -15,35 -34,35 0,0 -1,0 -1,0z"/>
    <path class="fil4" d="M149126 76857c-19,0 -35,-16 -35,-35l0 -1188c0,-30 -17,-30 -23,-30 -11,0 -26,3 -26,30l0 1188c0,19 -15,35 -34,35 -19,0 -34,-16 -34,-35l0 -1188c0,-59 38,-99 94,-99 55,0 93,40 93,99l0 1188c0,19 -16,35 -35,35z"/>
    <path class="fil4" d="M149293 76856c-1,0 -1,0 -2,0 -19,0 -33,-16 -33,-35 1,-20 69,-1990 69,-2169 0,-19 16,-34 35,-34 19,0 34,15 34,34 0,180 -66,2090 -69,2171 0,19 -16,33 -34,33z"/>
    <path class="fil4" d="M149571 75517c-19,0 -34,-16 -34,-35 0,-810 -38,-994 -113,-1065 -22,-17 -187,-44 -360,-44 -173,0 -338,27 -361,45 -74,70 -112,254 -112,1064 0,19 -15,35 -34,35 -19,0 -34,-16 -34,-35 0,-851 39,-1026 133,-1115 51,-47 297,-63 408,-63 111,0 357,16 408,63 94,89 133,264 133,1115 0,19 -15,35 -34,35z"/>
    <path class="fil4" d="M149060 74100c-64,-1 -115,-53 -115,-116 0,-64 51,-116 115,-116 64,0 115,52 115,116 0,63 -51,115 -115,116zm0 -301c0,0 0,0 0,0 0,0 0,0 0,0 0,0 0,0 0,0 -101,0 -184,83 -184,185 0,101 83,184 184,184 0,0 0,0 0,0l0 0c0,0 0,0 0,0 101,0 184,-83 184,-184 0,-102 -83,-185 -184,-185z"/>
    <path class="fil4" d="M151910 75185c-152,-151 -171,-326 -186,-467 -12,-116 -23,-217 -107,-263 -72,-38 -142,-38 -222,-37 -13,0 -25,0 -37,0 0,0 0,0 0,0 0,0 0,0 0,0l0 0c-13,0 -25,0 -36,0 -83,-1 -152,-1 -223,37 -85,46 -96,147 -108,263 -15,141 -34,316 -185,467 -14,14 -14,36 0,49 7,7 16,11 25,11 8,0 17,-4 24,-11 169,-168 190,-365 206,-508 12,-116 21,-183 71,-210 55,-29 111,-29 189,-29 11,0 24,0 37,0l0 0c0,0 0,0 0,0l0 0c12,0 25,0 37,0 77,0 133,0 188,29 51,27 60,94 72,210 16,143 36,340 205,508 7,7 16,11 24,11 9,0 18,-4 26,-11 13,-13 13,-35 0,-49z"/>
    <path class="fil4" d="M151358 74240c-64,0 -117,-53 -117,-117 0,-64 53,-116 117,-117 64,1 116,53 116,117 0,64 -52,117 -116,117zm0 -304c0,0 0,0 0,0 0,0 0,0 0,0 0,0 0,0 0,0 -103,1 -186,85 -186,187 0,103 83,186 186,187 0,0 0,0 0,0l0 0c0,0 0,0 0,0 0,0 0,0 0,0 102,-1 185,-84 185,-187 0,-102 -83,-186 -185,-187z"/>
    <path class="fil4" d="M152464 76931c-19,0 -34,-14 -34,-31l0 -3071c0,-17 15,-30 34,-30 19,0 35,13 35,30l0 3071c0,17 -16,31 -35,31z"/>
    <path class="fil4" d="M153844 74816c-67,0 -122,54 -122,122 0,68 55,122 122,122 68,0 123,-54 123,-122 0,-68 -55,-122 -123,-122zm0 305c-101,0 -183,-82 -183,-183 0,-101 82,-183 183,-183 101,0 183,82 183,183 0,101 -82,183 -183,183z"/>
    <path class="fil4" d="M153756 76748c-324,0 -587,-263 -587,-587 0,-145 53,-285 150,-393 12,-12 31,-13 43,-2 12,11 13,30 2,42 -87,97 -135,223 -135,353 0,291 236,527 527,527 290,0 527,-236 527,-527 0,-29 -2,-58 -8,-87 -2,-16 9,-32 26,-35 16,-3 31,9 34,25 5,32 8,65 8,97 0,324 -263,587 -587,587z"/>
    <path class="fil4" d="M154611 76561c-12,0 -24,-7 -28,-19l-218 -561c-12,-31 -49,-51 -81,-45l-132 26c-53,10 -127,0 -169,-22 -42,-24 -83,-86 -93,-141l-71 -428c-6,-36 -41,-81 -76,-96l-68 -29c-31,-14 -80,-4 -102,21l-195 207c-21,22 -21,59 1,80l235 236c12,11 12,31 0,42 -11,12 -30,12 -42,0l-236 -235c-45,-45 -46,-118 -2,-165l195 -206c40,-44 115,-60 170,-36l69 30c52,23 101,85 110,141l72 428c6,37 36,83 63,98 29,16 88,23 127,15l132 -25c61,-12 126,24 149,82l218 561c6,16 -1,33 -17,39 -4,2 -7,2 -11,2z"/>
    <path class="fil4" d="M151562 75105c-5,-6 -10,-11 -13,-16 -61,-71 -45,-132 4,-221 49,-88 57,-130 9,-205 -10,-16 -32,-21 -48,-10 -17,10 -21,32 -10,48 29,45 30,57 -12,133 -34,63 -98,179 4,300 3,5 9,10 13,16 80,92 210,244 199,629l-707 0c-11,-385 119,-537 198,-629 5,-6 10,-11 14,-16 102,-121 37,-237 3,-300 -42,-77 -39,-87 -11,-134 10,-17 5,-38 -11,-48 -17,-10 -38,-4 -48,12 -46,77 -39,117 10,204 48,89 64,150 4,221 -4,5 -9,10 -13,16 -82,95 -236,273 -214,711 1,19 16,33 35,33l189 0c20,130 113,739 113,962 0,19 15,35 34,35 20,0 36,-16 36,-35 0,-225 -89,-810 -113,-962l250 0c-25,152 -113,737 -113,962 0,19 16,35 35,35 20,0 35,-16 35,-35 0,-223 92,-832 113,-962l194 0c18,0 33,-14 34,-33 23,-438 -131,-616 -213,-711z"/>
    <g>
     <path class="fil1" d="M154516 71837l-5869 0 0 -193 5869 0 0 0 0 193zm786 593l-193 0 0 0 0 -30 -3 -30 -4 -30 -5 -29 -6 -28 -9 -28 -9 -28 -11 -27 -11 -26 -14 -26 -14 -24 -15 -24 -17 -24 -18 -22 -19 -22 -19 -20 -21 -20 -22 -19 -22 -18 -23 -16 -25 -16 -24 -14 -26 -13 -26 -12 -27 -11 -28 -9 -28 -8 -28 -7 -29 -5 -30 -4 -30 -2 -30 -1 0 -193 40 1 40 3 39 5 39 7 38 9 37 11 37 12 35 14 35 16 34 18 33 18 32 21 31 22 29 23 29 25 27 26 26 27 25 29 23 29 22 31 21 32 19 33 17 34 16 35 14 35 13 37 10 37 9 38 7 39 5 39 3 40 1 40 0 0zm-193 5869l0 -5869 193 0 0 5869 0 0 -193 0zm-593 786l0 -193 0 0 30 0 30 -3 30 -4 29 -5 28 -6 28 -8 28 -10 27 -10 26 -12 26 -13 24 -15 25 -15 23 -17 22 -18 22 -18 21 -20 19 -21 19 -21 18 -23 17 -23 15 -24 14 -25 14 -25 11 -27 11 -27 9 -27 9 -28 6 -29 5 -29 4 -29 3 -30 0 -31 193 0 -1 41 -3 39 -5 40 -7 38 -9 38 -10 38 -13 36 -14 36 -16 35 -17 34 -19 32 -21 32 -22 31 -23 30 -25 28 -26 28 -27 26 -29 24 -29 24 -31 22 -32 20 -33 19 -34 17 -35 16 -35 14 -37 13 -37 10 -38 9 -39 7 -39 5 -40 3 -40 1 0 0zm-5869 -193l5869 0 0 193 -5869 0 0 0 0 -193zm-786 -593l193 0 0 0 0 31 3 30 4 29 5 29 6 29 8 28 10 27 10 27 12 27 14 25 14 25 15 24 17 23 18 23 18 21 20 21 21 20 22 18 22 18 23 17 24 15 25 15 26 13 26 12 27 10 28 10 28 8 28 6 29 5 30 4 30 3 30 0 0 193 -40 -1 -40 -3 -39 -5 -39 -7 -38 -9 -37 -10 -37 -13 -35 -14 -35 -16 -34 -17 -33 -19 -32 -20 -31 -22 -29 -24 -29 -24 -27 -26 -26 -28 -25 -28 -23 -30 -22 -31 -21 -32 -19 -32 -17 -34 -16 -35 -14 -36 -13 -36 -10 -38 -9 -38 -7 -38 -5 -40 -3 -39 -1 -41 0 0zm193 -5869l0 5869 -193 0 0 -5869 0 0 193 0zm593 -786l0 193 0 0 -30 1 -30 2 -30 4 -29 5 -28 7 -28 8 -28 9 -27 11 -26 12 -26 13 -25 14 -24 16 -23 16 -22 18 -22 19 -21 20 -20 20 -18 22 -18 22 -17 24 -15 24 -14 24 -14 26 -12 26 -10 27 -10 28 -8 28 -6 28 -5 29 -4 30 -3 30 0 30 -193 0 1 -40 3 -40 5 -39 7 -39 9 -38 10 -37 13 -37 14 -35 16 -35 17 -34 19 -33 21 -32 22 -31 23 -29 25 -29 26 -27 27 -26 29 -25 29 -23 31 -22 32 -21 33 -18 34 -18 35 -16 35 -14 37 -12 37 -11 38 -9 39 -7 39 -5 40 -3 40 -1 0 0z"/>
    </g>
   </g>
   <path class="fil0" d="M132814 133977c-222,75 -360,131 -544,131 -500,0 -688,-309 -688,-766l0 -531c0,-504 191,-766 688,-766 184,0 322,56 544,131l37 -97c-222,-75 -378,-128 -581,-128 -613,0 -822,340 -822,860l0 531c0,519 209,860 822,860 203,0 359,-53 581,-128l-37 -97zm744 -1192l69 82 706 -735 0 2039 125 0 0 -2189 -115 0 -785 803zm1732 416l938 0 0 -125 -938 0 0 125zm2211 -1250c-269,0 -610,115 -704,172l38 90c122,-78 465,-168 666,-168 400,0 631,178 631,418 0,301 -406,479 -631,610 -454,263 -751,425 -751,1010l0 88 1517 0 0 -94 -1392 0c0,-557 310,-682 626,-885 265,-172 756,-350 756,-729 0,-350 -297,-512 -756,-512z"/>
   <g>
    <path class="fil3" d="M166456 126598c0,54 -43,98 -97,98 -54,0 -97,-44 -97,-98 0,-156 63,-297 166,-400l6 -6c102,-99 241,-160 394,-160 156,0 298,64 401,166 102,103 165,244 165,400 0,93 -24,178 -65,255 -44,83 -107,154 -179,211 -67,53 -126,106 -167,163 -35,51 -58,105 -58,168l0 215c0,53 -43,97 -97,97 -54,0 -97,-44 -97,-97l0 -215c0,-107 36,-198 94,-280 54,-75 126,-140 204,-203 53,-42 99,-93 130,-150 26,-49 41,-104 41,-164 0,-102 -42,-195 -109,-262 -67,-68 -160,-109 -263,-109 -100,0 -192,39 -259,104l-4 5c-67,67 -109,160 -109,262zm2790 1929c42,33 50,94 17,136 -33,42 -94,49 -136,16 -229,-179 -563,-330 -964,-435 -392,-103 -847,-161 -1335,-161 -487,0 -943,58 -1335,161 -401,105 -735,256 -964,435 -42,33 -103,26 -136,-16 -33,-42 -25,-103 17,-136 250,-196 608,-359 1035,-471 408,-107 881,-168 1383,-168 503,0 975,61 1383,168 428,112 785,275 1035,471z"/>
    <path class="fil2 str1" d="M163896 123745l5864 0c379,0 689,310 689,689l0 5864c0,379 -310,689 -689,689l-5864 0c-379,0 -689,-310 -689,-689l0 -5864c0,-379 310,-689 689,-689z"/>
   </g>
   <path class="fil0" d="M166492 133977c-222,75 -360,131 -544,131 -500,0 -688,-309 -688,-766l0 -532c0,-503 191,-766 688,-766 184,0 322,57 544,132l38 -97c-222,-75 -379,-128 -582,-128 -613,0 -822,340 -822,859l0 532c0,519 209,860 822,860 203,0 360,-53 582,-128l-38 -97zm1004 -1020c-276,72 -654,213 -654,610 0,457 297,635 844,635 547,0 845,-178 845,-635 0,-356 -385,-531 -723,-606 294,-75 629,-222 629,-516 0,-310 -263,-494 -751,-494 -487,0 -750,184 -750,494 0,309 372,456 560,512l0 0zm118 57c363,106 782,219 782,553 0,385 -278,541 -710,541 -441,0 -709,-156 -709,-541 0,-303 287,-472 637,-553l0 0zm72 -970c410,0 616,116 616,401 0,272 -406,412 -613,466 -206,-66 -619,-197 -619,-466 0,-279 207,-401 616,-401l0 0z"/>
  </g>
 </g>
</svg>
