<?xml version="1.0" encoding="UTF-8"?>
<!DOCTYPE svg PUBLIC "-//W3C//DTD SVG 1.1//EN" "http://www.w3.org/Graphics/SVG/1.1/DTD/svg11.dtd">
<!-- Creator: CorelDRAW X6 -->
<svg xmlns="http://www.w3.org/2000/svg" xml:space="preserve" width="297mm" height="297mm" version="1.1" style="shape-rendering:geometricPrecision; text-rendering:geometricPrecision; image-rendering:optimizeQuality; fill-rule:evenodd; clip-rule:evenodd"
viewBox="0 0 29700 29700"
 xmlns:xlink="http://www.w3.org/1999/xlink">
 <defs>
  <style type="text/css">
   <![CDATA[
    .fil1 {fill:none}
    .fil2 {fill:#727271}
    .fil4 {fill:#2B2A29;fill-rule:nonzero}
    .fil3 {fill:#1F1B20;fill-rule:nonzero}
    .fil0 {fill:#727271;fill-rule:nonzero}
   ]]>
  </style>
 </defs>
 <g id="Слой_x0020_1">
  <metadata id="CorelCorpID_0Corel-Layer"/>
  <polygon class="fil0" points="27826,24867 27826,24644 27322,24644 27312,24644 27312,24634 27312,3679 19800,3679 19790,3679 19790,3669 19790,2927 18525,2927 18525,3690 18525,3700 18515,3700 15443,3700 15433,3700 15433,3690 15441,1675 15461,1675 15453,3680 18505,3680 18505,2917 18505,2907 18515,2907 19800,2907 19810,2907 19810,2917 19810,3659 27322,3659 27332,3659 27332,3669 27332,24624 27836,24624 27846,24624 27846,24634 27846,24867 "/>
  <polygon class="fil0" points="14868,1675 14868,3685 14868,3695 14858,3695 11768,3695 11758,3695 11758,3685 11752,1675 11772,1675 11778,3675 14848,3675 14848,1675 "/>
  <polygon class="fil0" points="11217,1675 11217,3695 11217,3705 11207,3705 7614,3705 7604,3705 7604,3695 7604,2927 6338,2927 6338,3679 6338,3689 6328,3689 1475,3689 1475,3669 6318,3669 6318,2917 6318,2907 6328,2907 7614,2907 7624,2907 7624,2917 7624,3685 11197,3685 11197,1675 "/>
  <polygon class="fil0" points="1409,10241 1948,10241 1958,10241 1958,10251 1958,11412 26987,11412 26987,4222 1409,4222 1409,4202 26997,4202 27007,4202 27007,4212 27007,11422 27007,11432 26997,11432 1948,11432 1938,11432 1938,11422 1938,10261 1409,10261 "/>
  <path class="fil0" d="M26963 27775l0 -316 20 0 0 316 -20 0zm0 -984l0 -277 0 -10 10 0 1318 0 0 20 -1308 0 0 267 -20 0z"/>
  <polygon class="fil0" points="18946,22426 18421,22426 18421,22406 18946,22406 "/>
  <polygon class="fil0" points="18955,21550 18955,22426 18935,22426 18935,21550 "/>
  <path class="fil0" d="M18415 24843l1685 0 10 0 0 10 0 1297 0 10 -10 0 -724 0 -10 0 0 -10 0 -1287 -951 0 0 -20zm1675 20l-704 0 0 1277 704 0 0 -1277z"/>
  <polygon class="fil0" points="18472,14062 18928,14062 18938,14062 18938,14072 18938,14859 19398,14859 19398,12702 18348,12702 18348,12682 19408,12682 19418,12682 19418,12692 19418,14869 19418,14879 19408,14879 18928,14879 18918,14879 18918,14869 18918,14082 18472,14082 "/>
  <path class="fil0" d="M27714 26160l-1075 0 0 -20 1075 0 0 20zm-1551 0l-791 0 -10 0 0 -10 0 -1283 0 -10 10 0 2078 0 0 20 -2068 0 0 1263 781 0 0 20zm1551 -1303l577 0 0 20 -577 0 0 -20z"/>
  <polyline class="fil1" points="1409,1672 1409,14001 6330,14001 6330,12711 18415,12711 "/>
  <polygon class="fil0" points="1484,1672 1484,13926 6255,13926 6255,12711 6255,12636 6330,12636 18415,12636 18415,12786 6405,12786 6405,14001 6405,14076 6330,14076 1409,14076 1334,14076 1334,14001 1334,1672 "/>
  <path class="fil0" d="M18490 12636l0 15306c1093,-63 2329,-114 3711,-155 1412,-42 2974,-73 4687,-92l6 0 0 0c402,31 711,-52 929,-249 218,-197 349,-514 393,-948l0 -24748 -26882 0 0 -150 26957 0 75 0 0 75 0 24824 0 2 -1 6c-46,475 -194,825 -442,1050 -250,226 -596,322 -1039,287 -1708,20 -3268,50 -4679,92 -1409,42 -2671,95 -3786,160l-79 4 0 -79 0 -15385 150 0z"/>
  <path class="fil2" d="M27293 26944c-3,0 -5,2 -5,4 0,23 9,265 9,275 0,2 2,4 4,4 0,0 0,0 1,0 2,0 4,-2 4,-4 0,-3 -9,-252 -9,-275 0,-2 -2,-4 -4,-4z"/>
  <path class="fil2" d="M27330 27060c-7,0 -12,5 -12,13l0 150c0,2 2,4 5,4 2,0 4,-2 4,-4l0 -150c0,-4 2,-4 3,-4 1,0 3,0 3,4l0 150c0,2 2,4 5,4 2,0 4,-2 4,-4l0 -150c0,-8 -5,-13 -12,-13z"/>
  <path class="fil2" d="M27367 26944c-2,0 -4,2 -4,4 0,23 -9,272 -9,275 0,2 2,4 4,4 1,0 1,0 1,0 2,0 4,-2 4,-4 0,-10 9,-252 9,-275 0,-2 -2,-4 -5,-4z"/>
  <path class="fil2" d="M27381 26912c-6,-6 -37,-8 -51,-8 -14,0 -46,2 -52,8 -12,12 -17,34 -17,141 0,3 2,5 5,5 2,0 4,-2 4,-5 0,-102 5,-125 14,-134 3,-2 24,-6 46,-6 22,0 42,4 45,6 10,9 14,32 14,134 0,3 2,5 5,5 2,0 4,-2 4,-5 0,-107 -5,-129 -17,-141z"/>
  <path class="fil2" d="M27329 26849c8,0 15,7 15,15 0,8 -7,14 -15,15 -8,-1 -14,-7 -14,-15 0,-8 6,-15 14,-15zm0 38c0,0 0,0 0,0 0,0 0,0 0,0 0,0 0,0 0,0 0,0 0,0 0,0 13,0 23,-10 23,-23 0,-13 -10,-23 -23,-24 0,0 0,0 0,0 0,0 0,0 0,0 0,0 0,0 0,0 0,0 0,0 0,0 -13,1 -23,11 -23,24 0,13 10,23 23,23z"/>
  <path class="fil2" d="M27570 26958c-4,-4 -9,-6 -15,-6 -6,0 -11,2 -15,6l-29 29c-2,2 -2,5 0,7 1,1 4,1 6,0l29 -30c3,-2 6,-3 9,-3 3,0 6,1 9,3l29 30c1,0 2,1 3,1 1,0 3,-1 3,-1 2,-2 2,-5 0,-7l-29 -29z"/>
  <path class="fil2" d="M27593 27097l-29 29c-3,3 -6,4 -9,4 -3,0 -6,-1 -9,-4l-29 -29c-2,-2 -5,-2 -6,0 -2,1 -2,4 0,6l29 29c4,4 9,6 15,6 6,0 11,-2 15,-6l29 -29c2,-2 2,-5 0,-6 -1,-2 -4,-2 -6,0z"/>
  <path class="fil2" d="M27625 27207c0,6 -5,12 -12,12l-118 0c-7,0 -12,-6 -12,-12l0 -337c0,-7 5,-13 12,-13l118 0c7,0 12,6 12,13l0 337zm-12 -358l-118 0c-12,0 -21,9 -21,21l0 337c0,11 9,21 21,21l118 0c11,0 21,-10 21,-21l0 -337c0,-12 -10,-21 -21,-21z"/>
  <path class="fil0" d="M27160 26673l575 0c20,0 38,9 51,22l0 0c14,13 22,31 22,52l0 574c0,21 -8,39 -22,52 -13,13 -31,22 -51,22l-575 0c-20,0 -38,-9 -52,-22 -13,-13 -21,-31 -21,-52l0 -574c0,-21 8,-39 21,-52l0 0c14,-13 32,-22 52,-22zm575 12l-575 0c-17,0 -33,7 -44,18l0 0c-11,11 -18,26 -18,44l0 574c0,18 7,33 18,44 11,11 27,18 44,18l575 0c17,0 32,-7 44,-18 11,-11 18,-26 18,-44l0 -574c0,-18 -7,-33 -18,-44l0 0c-12,-11 -27,-18 -44,-18z"/>
  <path class="fil2" d="M22085 11764c-2,0 -4,2 -4,4 0,23 8,264 8,275 0,2 2,4 5,4 0,0 0,0 0,0 2,0 4,-2 4,-5 0,-2 -9,-251 -9,-274 0,-2 -2,-4 -4,-4z"/>
  <path class="fil2" d="M22122 11880c-6,0 -11,5 -11,12l0 151c0,2 2,4 4,4 2,0 4,-2 4,-4l0 -151c0,-3 2,-3 3,-3 1,0 4,0 4,3l0 151c0,2 1,4 4,4 2,0 4,-2 4,-4l0 -151c0,-7 -5,-12 -12,-12z"/>
  <path class="fil2" d="M22160 11764c-3,0 -5,2 -5,4 0,23 -8,272 -8,274 0,3 1,5 4,5 0,0 0,0 0,0 2,0 4,-2 4,-4 1,-11 9,-252 9,-275 0,-2 -2,-4 -4,-4z"/>
  <path class="fil2" d="M22174 11732c-7,-6 -38,-8 -52,-8 -14,0 -45,2 -51,8 -12,12 -17,34 -17,141 0,3 2,5 4,5 2,0 4,-2 4,-5 0,-102 5,-126 14,-134 3,-3 24,-6 46,-6 22,0 43,3 46,6 9,8 14,32 14,134 0,3 2,5 4,5 3,0 4,-2 4,-5 0,-107 -5,-129 -16,-141z"/>
  <path class="fil2" d="M22122 11669c8,0 14,7 14,15 0,8 -6,14 -14,14 -8,0 -15,-6 -15,-14 0,-8 7,-15 15,-15zm0 38c0,0 0,0 0,0 0,0 0,0 0,0 0,0 0,0 0,0 0,0 0,0 0,0 12,0 23,-11 23,-23 0,-13 -11,-24 -23,-24 0,0 0,0 0,0 0,0 0,0 0,0 0,0 0,0 0,0 0,0 0,0 0,0 -13,0 -24,11 -24,24 0,12 11,23 24,23z"/>
  <path class="fil2" d="M22362 11778c-4,-4 -9,-6 -15,-6 -5,0 -10,2 -14,6l-30 29c-2,2 -2,5 0,6 2,2 5,2 6,0l30 -29c2,-2 5,-4 8,-4 4,0 7,2 9,4l30 29c0,1 2,2 3,2 1,0 2,-1 3,-2 1,-1 1,-4 0,-6l-30 -29z"/>
  <path class="fil2" d="M22386 11917l-30 29c-2,2 -5,4 -9,4 -3,0 -6,-2 -8,-4l-30 -29c-1,-2 -4,-2 -6,0 -2,1 -2,4 0,6l30 29c4,4 9,6 14,6 6,0 11,-2 15,-6l30 -29c1,-2 1,-5 0,-6 -2,-2 -5,-2 -6,0z"/>
  <path class="fil2" d="M22417 12027c0,6 -5,12 -12,12l-118 0c-7,0 -12,-6 -12,-12l0 -338c0,-6 5,-12 12,-12l118 0c7,0 12,6 12,12l0 338zm-12 -358l-118 0c-11,0 -21,9 -21,20l0 338c0,11 10,20 21,20l118 0c12,0 21,-9 21,-20l0 -338c0,-11 -9,-20 -21,-20z"/>
  <path class="fil0" d="M21952 11493l575 0c20,0 39,9 52,22l0 0c13,13 21,31 21,51l0 575c0,20 -8,39 -21,52 -13,13 -32,21 -52,21l-575 0c-20,0 -38,-8 -51,-21 -13,-13 -22,-32 -22,-52l0 -575c0,-20 9,-38 22,-51l0 0c13,-13 31,-22 51,-22zm575 11l-575 0c-17,0 -32,7 -43,19l0 0c-12,11 -19,26 -19,43l0 575c0,17 7,33 19,44 11,11 26,18 43,18l575 0c17,0 33,-7 44,-18 11,-11 18,-27 18,-44l0 -575c0,-17 -7,-32 -18,-43l0 0c-11,-12 -27,-19 -44,-19z"/>
  <path class="fil2" d="M6582 3242c-3,0 -5,2 -5,5 0,22 9,264 9,274 0,3 2,4 4,4 0,0 0,0 1,0 2,0 4,-2 4,-4 0,-3 -9,-252 -9,-274 0,-3 -2,-5 -4,-5z"/>
  <path class="fil2" d="M6619 3358c-7,0 -12,5 -12,13l0 150c0,2 2,4 5,4 2,0 4,-2 4,-4l0 -150c0,-4 2,-4 3,-4 1,0 3,0 3,4l0 150c0,2 2,4 5,4 2,0 4,-2 4,-4l0 -150c0,-8 -5,-13 -12,-13z"/>
  <path class="fil2" d="M6656 3242c-2,0 -4,2 -4,5 0,22 -9,271 -9,274 0,2 2,4 4,4 1,0 1,0 1,0 2,0 4,-1 4,-4 0,-10 9,-252 9,-274 0,-3 -2,-5 -5,-5z"/>
  <path class="fil2" d="M6670 3211c-6,-6 -37,-8 -51,-8 -14,0 -45,2 -52,8 -12,11 -17,33 -17,141 0,2 2,4 5,4 2,0 4,-2 4,-4 0,-103 5,-126 14,-135 3,-2 24,-6 46,-6 22,0 42,4 45,6 10,9 14,32 14,135 0,2 2,4 5,4 2,0 4,-2 4,-4 0,-108 -5,-130 -17,-141z"/>
  <path class="fil2" d="M6618 3147c8,1 15,7 15,15 0,8 -7,15 -15,15 -8,0 -14,-7 -14,-15 0,-8 6,-14 14,-15zm0 39c0,0 0,0 0,0 0,0 0,0 0,0 0,0 0,0 0,0 0,0 0,0 0,0 13,-1 23,-11 23,-24 0,-13 -10,-23 -23,-23 0,0 0,0 0,0 0,0 0,0 0,0 0,0 0,0 0,0 0,0 0,0 0,0 -13,0 -23,10 -23,23 0,13 10,23 23,24z"/>
  <path class="fil2" d="M6859 3256c-4,-4 -9,-6 -15,-6 -5,0 -11,2 -15,6l-29 30c-2,1 -2,4 0,6 1,2 4,2 6,0l30 -30c2,-2 5,-3 8,-3 3,0 6,1 9,3l29 30c1,1 2,1 3,1 1,0 3,0 3,-1 2,-2 2,-5 0,-6l-29 -30z"/>
  <path class="fil2" d="M6882 3395l-29 30c-3,2 -6,3 -9,3 -3,0 -6,-1 -8,-3l-30 -30c-2,-2 -5,-2 -6,0 -2,2 -2,4 0,6l29 30c4,4 10,6 15,6 6,0 11,-2 15,-6l29 -30c2,-2 2,-4 0,-6 -1,-2 -4,-2 -6,0z"/>
  <path class="fil2" d="M6914 3505c0,7 -5,12 -12,12l-118 0c-7,0 -12,-5 -12,-12l0 -337c0,-7 5,-12 12,-12l118 0c7,0 12,5 12,12l0 337zm-12 -358l-118 0c-12,0 -21,9 -21,21l0 337c0,11 9,21 21,21l118 0c11,0 21,-10 21,-21l0 -337c0,-12 -10,-21 -21,-21z"/>
  <path class="fil0" d="M6449 2972l575 0c20,0 38,8 51,21l1 0c13,13 21,32 21,52l0 575c0,20 -8,38 -21,51 -14,14 -32,22 -52,22l-575 0c-20,0 -38,-8 -52,-22 -13,-13 -21,-31 -21,-51l0 -575c0,-20 8,-39 21,-52l0 0c14,-13 32,-21 52,-21zm575 11l-575 0c-17,0 -33,7 -44,18l0 0c-11,11 -18,27 -18,44l0 575c0,17 7,32 18,44 11,11 27,18 44,18l575 0c17,0 32,-7 44,-18 11,-12 18,-27 18,-44l0 -575c0,-17 -7,-33 -18,-44l0 0c-12,-11 -27,-18 -44,-18z"/>
  <path class="fil2" d="M18759 25203c-3,0 -5,2 -5,5 0,22 9,264 9,274 0,3 2,4 4,4 1,0 1,0 1,0 2,0 4,-2 4,-4 0,-3 -9,-252 -9,-274 0,-3 -2,-5 -4,-5z"/>
  <path class="fil2" d="M18796 25319c-7,0 -12,5 -12,13l0 150c0,3 2,4 5,4 2,0 4,-1 4,-4l0 -150c0,-4 2,-4 3,-4 1,0 3,0 3,4l0 150c0,3 2,4 5,4 2,0 4,-1 4,-4l0 -150c0,-8 -5,-13 -12,-13z"/>
  <path class="fil2" d="M18833 25203c-2,0 -4,2 -4,5 0,22 -9,271 -9,274 0,2 2,4 5,4 0,0 0,0 0,0 2,0 4,-1 4,-4 0,-10 9,-252 9,-274 0,-3 -2,-5 -5,-5z"/>
  <path class="fil2" d="M18847 25172c-6,-6 -37,-8 -51,-8 -14,0 -45,2 -52,8 -12,11 -17,33 -17,141 0,2 2,4 5,4 2,0 4,-2 4,-4 0,-103 5,-126 14,-135 3,-2 24,-6 46,-6 22,0 42,4 45,6 10,9 14,32 14,135 0,2 2,4 5,4 2,0 4,-2 4,-4 0,-108 -5,-130 -17,-141z"/>
  <path class="fil2" d="M18795 25109c8,0 15,6 15,14 0,8 -7,15 -15,15 -8,0 -14,-7 -14,-15 0,-8 6,-14 14,-14zm0 38c0,0 0,0 0,0 0,0 0,0 0,0 0,0 0,0 0,0 0,0 0,0 0,0 13,-1 24,-11 24,-24 0,-13 -11,-23 -24,-23 0,0 0,0 0,0 0,0 0,0 0,0 0,0 0,0 0,0 0,0 0,0 0,0 -13,0 -23,10 -23,23 0,13 10,23 23,24z"/>
  <path class="fil2" d="M19036 25217c-4,-4 -9,-6 -15,-6 -5,0 -11,2 -15,6l-29 30c-2,2 -2,4 0,6 2,2 4,2 6,0l30 -30c2,-2 5,-3 8,-3 3,0 6,1 9,3l29 30c1,1 2,1 3,1 1,0 3,0 3,-1 2,-2 2,-4 0,-6l-29 -30z"/>
  <path class="fil2" d="M19059 25356l-29 30c-3,2 -6,3 -9,3 -3,0 -6,-1 -8,-3l-30 -30c-2,-2 -4,-2 -6,0 -2,2 -2,4 0,6l29 30c4,4 10,6 15,6 6,0 11,-2 15,-6l29 -30c2,-2 2,-4 0,-6 -1,-2 -4,-2 -6,0z"/>
  <path class="fil2" d="M19091 25466c0,7 -5,12 -12,12l-118 0c-7,0 -12,-5 -12,-12l0 -337c0,-7 5,-12 12,-12l118 0c7,0 12,5 12,12l0 337zm-12 -358l-118 0c-12,0 -21,9 -21,21l0 337c0,12 9,21 21,21l118 0c11,0 21,-9 21,-21l0 -337c0,-12 -10,-21 -21,-21z"/>
  <path class="fil0" d="M18626 24933l575 0c20,0 38,8 52,21l0 0c13,14 21,32 21,52l0 575c0,20 -8,38 -21,51 -14,14 -32,22 -52,22l-575 0c-20,0 -38,-8 -52,-22 -13,-13 -21,-31 -21,-51l0 -575c0,-20 8,-38 21,-52l0 0c14,-13 32,-21 52,-21zm575 11l-575 0c-17,0 -33,7 -44,18l0 0c-11,11 -18,27 -18,44l0 575c0,17 7,32 18,44 11,11 27,18 44,18l575 0c17,0 33,-7 44,-18 11,-12 18,-27 18,-44l0 -575c0,-17 -7,-33 -18,-44l0 0c-11,-11 -27,-18 -44,-18z"/>
  <path class="fil2" d="M26380 25624c-2,0 -3,-1 -3,-3l0 -301c0,-1 1,-3 3,-3 2,0 4,2 4,3l0 301c0,2 -2,3 -4,3z"/>
  <path class="fil2" d="M26244 25617c-1,0 -3,-2 -3,-3 0,-8 -7,-195 -7,-213 0,-2 2,-3 4,-3 2,0 3,1 3,3 0,17 7,210 7,212 0,2 -2,4 -4,4 0,0 0,0 0,0z"/>
  <path class="fil2" d="M26272 25617c-1,0 -3,-2 -3,-3l0 -117c0,-3 -2,-3 -2,-3 -1,0 -3,0 -3,3l0 117c0,1 -1,3 -3,3 -2,0 -4,-2 -4,-3l0 -117c0,-6 4,-10 10,-10 5,0 9,4 9,10l0 117c0,1 -2,3 -4,3z"/>
  <path class="fil2" d="M26289 25617c0,0 0,0 0,0 -2,0 -4,-2 -4,-4 0,-2 7,-195 7,-212 0,-2 2,-3 3,-3 2,0 4,1 4,3 0,18 -7,205 -7,213 0,1 -2,3 -3,3z"/>
  <path class="fil2" d="M26316 25486c-2,0 -3,-2 -3,-4 0,-79 -4,-97 -11,-104 -3,-2 -19,-4 -36,-4 -17,0 -33,2 -35,4 -7,7 -11,25 -11,104 0,2 -2,4 -3,4 -2,0 -4,-2 -4,-4 0,-83 4,-100 13,-109 5,-5 29,-6 40,-6 11,0 35,1 40,6 9,9 13,26 13,109 0,2 -1,4 -3,4z"/>
  <path class="fil2" d="M26266 25347c-6,0 -11,-5 -11,-11 0,-7 5,-12 11,-12 6,0 11,5 11,12 0,6 -5,11 -11,11zm0 -30c0,0 0,0 0,0 0,0 0,0 0,0 0,0 0,0 0,0 -10,0 -18,9 -18,19 0,9 8,18 18,18 0,0 0,0 0,0l0 0c0,0 0,0 0,0 10,0 18,-9 18,-18 0,-10 -8,-19 -18,-19z"/>
  <path class="fil2" d="M26545 25453c-15,-15 -17,-32 -18,-46 -1,-11 -2,-21 -11,-25 -7,-4 -14,-4 -21,-4 -2,0 -3,0 -4,0 0,0 0,0 0,0 0,0 0,0 0,0l0 0c-1,0 -2,0 -4,0 -8,0 -14,0 -21,4 -9,4 -10,14 -11,25 -1,14 -3,31 -18,46 -1,2 -1,4 0,5 1,1 1,1 2,1 1,0 2,0 3,-1 16,-16 18,-36 20,-50 1,-11 2,-18 7,-20 5,-3 11,-3 18,-3 1,0 3,0 4,0l0 0c0,0 0,0 0,0l0 0c1,0 2,0 4,0 7,0 13,0 18,3 5,2 6,9 7,20 2,14 4,34 20,50 1,1 2,1 3,1 0,0 1,0 2,-1 1,-1 1,-3 0,-5z"/>
  <path class="fil2" d="M26491 25361c-6,0 -11,-6 -11,-12 0,-6 5,-11 11,-11 6,0 11,5 11,11 0,6 -5,12 -11,12zm0 -30c0,0 0,0 0,0 0,0 0,0 0,0 0,0 0,0 0,0 -10,0 -18,8 -18,18 0,10 8,18 18,18 0,0 0,0 0,0l0 0c0,0 0,0 0,0 0,0 0,0 0,0 10,0 18,-8 18,-18 0,-10 -8,-18 -18,-18z"/>
  <path class="fil2" d="M26599 25624c-1,0 -3,-1 -3,-3l0 -301c0,-1 2,-3 3,-3 2,0 4,2 4,3l0 301c0,2 -2,3 -4,3z"/>
  <path class="fil2" d="M26735 25417c-7,0 -12,5 -12,12 0,7 5,12 12,12 6,0 12,-5 12,-12 0,-7 -6,-12 -12,-12zm0 30c-10,0 -18,-8 -18,-18 0,-10 8,-18 18,-18 9,0 17,8 17,18 0,10 -8,18 -17,18z"/>
  <path class="fil2" d="M26726 25606c-32,0 -58,-25 -58,-57 0,-14 6,-28 15,-39 1,-1 3,-1 4,0 2,1 2,3 1,4 -9,10 -14,22 -14,35 0,28 23,51 52,51 28,0 51,-23 51,-51 0,-3 0,-6 0,-9 0,-1 1,-3 2,-3 2,0 3,1 4,2 0,3 0,7 0,10 0,32 -25,57 -57,57z"/>
  <path class="fil2" d="M26810 25588c-2,0 -3,-1 -3,-2l-21 -55c-2,-3 -5,-5 -8,-4l-13 2c-6,1 -13,0 -17,-2 -4,-2 -8,-8 -9,-14l-7 -42c-1,-3 -4,-8 -7,-9l-7 -3c-3,-1 -8,0 -10,2l-19 20c-2,3 -2,6 0,8l23 23c1,2 1,3 0,5 -1,1 -3,1 -4,0l-23 -23c-5,-5 -5,-12 0,-17l19 -20c4,-4 11,-6 16,-3l7 3c5,2 10,8 11,13l7 42c0,4 3,8 6,10 3,1 9,2 13,1l12 -2c6,-1 13,2 15,8l21 55c1,1 0,3 -1,4 -1,0 -1,0 -1,0z"/>
  <path class="fil2" d="M26511 25445c-1,0 -1,-1 -1,-1 -6,-7 -5,-13 0,-22 5,-9 6,-13 1,-20 -1,-2 -3,-2 -5,-1 -1,1 -2,3 -1,5 3,4 3,5 -1,13 -3,6 -10,17 0,29 1,1 1,1 2,2 8,9 20,24 19,61l-69 0c-1,-37 12,-52 19,-61 1,-1 1,-1 2,-2 10,-12 3,-23 0,-29 -4,-8 -4,-9 -1,-13 1,-2 0,-4 -1,-5 -2,-1 -4,0 -5,1 -4,8 -4,12 1,20 5,9 6,15 1,22 -1,0 -1,1 -2,1 -8,10 -23,27 -21,70 0,2 2,3 4,3l18 0c2,13 11,73 11,94 0,2 2,4 4,4 2,0 3,-2 3,-4 0,-22 -8,-79 -11,-94l25 0c-3,15 -11,72 -11,94 0,2 1,4 3,4 2,0 3,-2 3,-4 0,-21 9,-81 12,-94l19 0c1,0 3,-1 3,-3 2,-43 -13,-60 -21,-70z"/>
  <path class="fil0" d="M26225 25106l575 0c21,0 41,9 55,23 14,14 22,33 22,54l0 575c0,21 -8,41 -22,55 -14,14 -34,22 -55,22l-575 0c-21,0 -40,-8 -54,-22l0 0c-14,-14 -23,-34 -23,-55l0 -575c0,-21 9,-40 23,-54l0 0c14,-14 33,-23 54,-23zm575 19l-575 0c-16,0 -30,7 -41,17l0 0c-10,11 -17,25 -17,41l0 575c0,16 7,31 17,41l0 0c11,11 25,17 41,17l575 0c16,0 31,-6 41,-17 11,-10 17,-25 17,-41l0 -575c0,-16 -6,-30 -17,-41 -10,-10 -25,-17 -41,-17z"/>
  <path class="fil2" d="M23194 25252l1 0 0 0c11,-1 20,-3 27,-7 9,-5 15,-12 19,-20 1,-3 2,-7 3,-10 1,-3 1,-6 1,-10 0,-3 0,-6 -1,-9 -1,-4 -1,-7 -3,-10 -3,-8 -9,-15 -17,-20 -8,-4 -17,-7 -28,-7 -4,0 -8,0 -12,0l-1 0c-8,0 -16,-1 -24,0 -1,0 -2,0 -3,0 -1,1 -2,1 -3,1 -1,1 -2,1 -3,2 -1,0 -2,1 -2,2l-127 126c-14,14 -28,28 -42,42l-21 22 -16 16c-5,5 -11,11 -16,16 -5,5 -11,11 -16,16 -6,5 -11,10 -16,15 -1,1 -1,1 -2,2 0,0 -1,1 -2,1 0,0 -1,1 -1,1 -1,1 -2,1 -2,1 -1,0 -2,1 -2,1 -1,0 -2,0 -3,1 0,0 -1,0 -2,0 0,0 -1,0 -2,0l-27 0c-13,0 -24,3 -32,7 -9,5 -16,12 -20,20 -1,3 -2,6 -3,9 -1,3 -1,7 -1,10 0,3 0,6 1,10 0,3 2,6 3,9 4,8 11,15 20,20 8,5 18,8 31,8l0 0 78 0c1,0 1,0 1,0 1,0 1,-1 1,-1l0 0c1,0 1,0 1,-1 0,0 0,0 0,-1l0 -39c0,-1 0,-3 1,-4 0,-1 1,-3 2,-4l0 0c1,-1 3,-2 4,-2 1,-1 3,-1 4,-1l39 0c1,0 1,0 1,0 1,-1 1,-1 1,-1l0 0c1,0 1,-1 1,-1 0,0 0,0 0,-1l0 -39c0,-1 0,-3 1,-4 0,-1 1,-3 2,-4 1,-1 3,-2 4,-2 1,-1 3,-1 4,-1l39 0c1,0 1,0 1,0 1,0 1,-1 1,-1 0,0 1,0 1,-1 0,0 0,0 0,-1l0 -39c0,-1 0,-3 1,-4 0,-1 1,-3 2,-4l0 0c1,-1 3,-2 4,-3 1,0 3,0 4,0l40 0c0,0 0,0 1,-1 0,0 0,0 0,0l0 0c1,0 1,-1 1,-1 0,0 0,-1 0,-1l0 -39c0,-2 0,-3 1,-4 1,-2 1,-3 2,-4l1 0c1,-1 2,-2 3,-3 1,0 3,-1 4,-1l40 0c0,0 0,0 1,0 0,0 0,0 0,0l1 0c0,-1 0,-1 0,-1 0,0 0,-1 0,-1l0 -39c0,-2 1,-3 1,-4 1,-2 1,-3 3,-4 1,-1 2,-2 3,-2 2,-1 3,-1 4,-1l40 0zm-195 -52l-5 0c-1,0 -2,0 -3,1 -1,0 -2,0 -2,1l0 0c-1,1 -1,2 -1,3 -1,1 -1,2 -1,4 -2,33 -3,68 -6,101 0,3 -1,4 -3,5 -1,0 -1,1 -2,1 -1,-1 -1,-1 -2,-1 -1,-1 -2,-3 -2,-5l6 -102c0,-2 1,-4 1,-6 1,-2 1,-4 3,-5l0 -1c1,-1 3,-3 5,-3 2,-1 4,-2 7,-2 4,0 9,0 13,0 5,0 9,-1 13,0 3,0 5,0 7,1 2,1 4,2 5,4l0 0c1,2 2,3 3,5 1,2 1,4 1,6l3 42c0,3 -1,5 -2,5 0,1 -1,1 -2,1 0,0 -1,0 -2,0 -1,-1 -3,-3 -3,-5 -1,-14 -2,-28 -3,-42 0,-1 0,-3 -1,-4 0,-1 0,-2 -1,-2l0 0c0,-1 -1,-1 -2,-2 -1,0 -2,0 -3,0 -3,0 -18,0 -21,0zm7 -54c2,0 4,0 6,0 3,1 5,2 6,3 2,2 3,4 4,6 1,1 2,4 2,6 1,2 0,4 0,6 -1,3 -2,5 -3,6 -2,2 -3,3 -5,4 -2,1 -4,2 -7,2 -2,1 -4,0 -6,0 -2,-1 -4,-2 -6,-3 -2,-2 -3,-3 -4,-5 -1,-2 -2,-4 -2,-7 0,-2 0,-4 0,-6 1,-2 2,-4 3,-6 2,-2 4,-3 6,-4 1,-1 4,-2 6,-2zm6 11c0,-1 -1,-2 -2,-2 -1,0 -2,0 -3,0 -1,0 -2,0 -3,1 -1,0 -2,1 -2,2 -1,0 -2,1 -2,2 0,1 0,2 0,3 0,1 0,2 1,3 0,1 1,2 2,3 0,0 1,1 2,1 1,0 2,0 3,0 1,0 2,0 3,-1 1,0 2,-1 3,-2 0,0 1,-1 1,-2 0,-1 0,-2 0,-3 0,-1 0,-2 -1,-3 0,-1 -1,-2 -2,-2zm183 103l0 0 0 0c-13,1 -27,0 -41,0 0,0 0,0 -1,0 0,1 0,1 0,1l-1 0c0,0 0,0 0,1 0,0 0,1 0,1l0 39c0,1 0,3 -1,4 -1,2 -1,3 -2,4 -2,1 -3,2 -4,3 -1,0 -3,0 -4,0l-40 0c0,0 0,1 -1,1 0,0 0,0 0,0l-1 0c0,0 0,1 0,1 0,0 0,1 0,1l0 39c0,2 -1,3 -1,5 -1,1 -2,2 -3,3 -1,2 -2,2 -3,3 -1,0 -3,1 -4,1l-40 0c0,0 -1,0 -1,0 0,0 0,0 -1,0l0 1c0,0 0,0 0,0 0,0 0,1 0,1l0 39c0,2 -1,3 -1,5 -1,1 -2,2 -3,3 -1,1 -2,2 -3,3 -2,0 -3,1 -5,1l-39 0c0,0 -1,0 -1,0 0,0 0,0 0,0l-1 0c0,1 0,1 0,1 0,0 0,1 0,1l0 39c0,2 -1,3 -1,5 -1,1 -2,2 -3,3 -1,1 -2,2 -3,3 -2,0 -3,1 -5,1l-39 0c0,0 -1,0 -1,0 0,0 0,0 -1,0l0 1c0,0 0,0 0,0 0,1 0,1 0,1l0 39c0,2 -1,3 -1,5 -1,1 -2,2 -3,3 -1,1 -2,2 -3,3 -2,0 -3,0 -5,0l-78 0 0 0c-14,0 -26,-3 -35,-8 -11,-6 -19,-15 -23,-25 -2,-3 -3,-7 -4,-11 -1,-3 -1,-7 -1,-11 0,-4 0,-8 1,-12 1,-3 2,-7 4,-11 5,-9 12,-17 23,-23 10,-5 22,-8 36,-8l27 0 1 0 2 0 1 -1 1 0 2 -1 1 -1 1 -1 1 -1c6,-5 11,-10 16,-15 6,-5 11,-11 16,-16 6,-5 11,-10 16,-16l16 -16 21 -21c14,-14 28,-28 42,-42l127 -127c1,-1 2,-2 3,-3 2,-1 3,-2 4,-2 2,-1 3,-1 5,-2 1,0 3,0 4,0 9,-1 17,-1 25,0l1 0c4,0 7,0 12,0 13,0 23,3 32,8 10,6 17,15 21,24 1,4 2,7 3,11 1,4 1,8 1,12 0,3 0,7 -1,11 -1,4 -2,7 -4,11 -4,10 -11,18 -22,24 -8,5 -18,8 -31,8z"/>
  <path class="fil0" d="M22732 24975l575 0c20,0 39,8 52,22l0 0c13,13 21,31 21,51l0 575c0,20 -8,38 -21,52 -13,13 -32,21 -52,21l-575 0c-20,0 -38,-8 -51,-21l0 0c-13,-14 -22,-32 -22,-52l0 -575c0,-20 9,-38 22,-51l0 0c13,-14 31,-22 51,-22zm575 11l-575 0c-17,0 -32,7 -44,18l0 0c-11,11 -18,27 -18,44l0 575c0,17 7,33 18,44l0 0c12,11 27,18 44,18l575 0c17,0 33,-7 44,-18 11,-11 18,-27 18,-44l0 -575c0,-17 -7,-33 -18,-44l0 0c-11,-11 -27,-18 -44,-18z"/>
  <path class="fil0" d="M7515 12707c0,4 0,133 1,207 0,42 0,75 0,77 6,121 65,289 155,425 76,114 172,206 275,228 5,1 52,2 113,3 114,1 279,2 290,2l6 0 0 6 0 419 -12 0 0 -413c-10,0 -29,0 -55,0l0 429 -12 0 0 -430c-16,0 -35,0 -55,0l0 430 -12 0 0 -430c-16,0 -32,0 -49,0l0 430 -12 0 0 -430c-17,-1 -33,-1 -49,-1l0 431 -12 0 0 -431c-10,0 -19,0 -28,0l-22 -1 0 432 -12 0 0 -432c-19,0 -36,-1 -49,-1l0 433 -12 0 0 -433c-12,-1 -19,-1 -21,-2 -8,-1 -16,-4 -25,-6l1 441 -12 0 -1 -433 -110 411 -11 -3 113 -424c-13,-5 -27,-11 -40,-19l-141 458 -12 -4 143 -460c-14,-9 -28,-18 -41,-29l-158 484 -12 -4 160 -488c-12,-10 -24,-20 -35,-32l-192 534 -11 -4 194 -539c-12,-12 -24,-25 -35,-38l-235 593 -11 -5 237 -599c-16,-21 -32,-43 -48,-66 -91,-138 -151,-308 -157,-431 0,-2 0,-35 0,-78 -1,-92 -1,-204 -1,-207l12 0z"/>
  <path class="fil0" d="M27749 25399c1,-20 2,-54 2,-95 2,-115 2,-279 2,-290l0 -6 6 0 419 0 0 12 -413 0c0,9 0,29 0,54l413 0 0 12 -413 0c0,17 0,36 0,55l413 0 0 12 -413 0c-1,16 -1,33 -1,50l414 0 0 12 -414 0c0,16 0,33 0,49l414 0 0 12 -415 0c0,10 0,19 0,28l0 22 415 0 0 12 -415 0c-1,19 -1,36 -1,49l416 0 0 12 -417 0 0 0 -12 0z"/>
  <path class="fil0" d="M18494 22027c0,-20 1,-55 1,-96 2,-114 3,-279 3,-290l0 -6 6 0 419 0 0 6 0 6 -413 0c0,10 0,29 0,55l413 0 0 12 -414 0c0,16 0,35 0,54l414 0 0 13 -414 0c0,16 0,32 0,49l414 0 0 12 -415 0c0,17 0,33 0,49l415 0 0 12 -415 0c0,10 0,19 0,28l-1 22 416 0 0 12 -416 0c0,19 -1,36 -1,49l417 0 0 12 -417 0 0 1 -12 0z"/>
  <path class="fil3" d="M18488 27364c1,-20 2,-54 2,-95 2,-115 2,-279 2,-290l0 -6 6 0 420 0 0 12 -413 0c-1,9 -1,29 -1,54l430 0 0 12 -430 0c0,17 0,36 0,55l430 0 0 12 -430 0c0,16 -1,33 -1,50l431 0 0 12 -431 0c0,16 0,33 0,49l431 0 0 12 -431 0c-1,10 -1,19 -1,28l0 22 432 0 0 12 -432 0c-1,19 -1,36 -1,49l433 0 0 12 -434 0 0 0 -12 0z"/>
  <path class="fil0" d="M18488 14518c1,-20 2,-55 2,-95 2,-115 2,-280 2,-291l0 -6 6 0 420 0 0 6 0 6 -413 0c-1,10 -1,30 -1,55l414 0 0 12 -414 0c0,17 0,35 0,55l414 0 0 12 -414 0c0,16 -1,33 -1,49l415 0 0 12 -415 0c0,17 0,34 0,50l415 0 0 12 -415 0c-1,9 -1,19 -1,28l0 21 416 0 0 12 -416 0c-1,19 -1,36 -1,50l417 0 0 12 -418 0 0 0 -12 0z"/>
  <path class="fil1" d="M18415 26499l77 0m431 0l1154 0m477 0l734 0m476 0l744 0m476 0l738 0m476 0l592 0m476 0l490 0 0 1285"/>
  <path class="fil0" d="M18415 26424l77 0 0 150 -77 0 0 -150zm508 0l1154 0 0 150 -1154 0 0 -150zm1631 0l734 0 0 150 -734 0 0 -150zm1210 0l744 0 0 150 -744 0 0 -150zm1220 0l738 0 0 150 -738 0 0 -150zm1214 0l592 0 0 150 -592 0 0 -150zm1068 0l490 0 75 0 0 75 0 1285 -150 0 0 -1210 -415 0 0 -150z"/>
  <polygon class="fil0" points="24607,26499 24607,27805 24457,27805 24457,26499 "/>
  <polygon class="fil0" points="23397,26499 23397,27831 23247,27831 23247,26499 "/>
  <polygon class="fil0" points="22190,26499 22190,27860 22040,27860 22040,26499 "/>
  <polygon class="fil0" points="20966,26499 20966,27906 20816,27906 20816,26499 "/>
  <polygon class="fil0" points="19071,26499 19071,27989 18921,27989 18921,26499 "/>
  <path class="fil0" d="M27724 24857l0 731 -20 0 0 -731 20 0zm0 1187l0 116 -20 0 0 -116 20 0zm0 460l0 10 -20 0 0 -10 20 0z"/>
  <polygon class="fil0" points="25372,24877 20894,24877 20884,24877 20884,24867 20884,22436 19671,22436 19661,22436 19661,22426 19661,12697 19681,12697 19681,22416 20894,22416 20904,22416 20904,22426 20904,24857 25372,24857 "/>
  <polyline class="fil1" points="18415,24853 20100,24853 20100,26150 19376,26150 19376,24853 "/>
  <path class="fil0" d="M18480 20711l208 0 0 150 -208 0 0 -150zm684 0l157 0 0 -2469 -54 0 0 -150 129 0 75 0 0 75 0 2619 0 75 -75 0 -232 0 0 -150zm-373 -2469l-334 0 0 -150 334 0 0 150z"/>
  <polygon class="fil0" points="18467,19924 19396,19924 19396,20074 18467,20074 "/>
  <path class="fil0" d="M18457 17487l249 0 0 150 -249 0 0 -150zm726 0l141 0 0 -1884 -141 0 0 -150 216 0 75 0 0 75 0 2034 0 75 -75 0 -216 0 0 -150zm-477 -1884l-291 0 0 -150 291 0 0 150z"/>
  <polygon class="fil0" points="18467,16266 19399,16266 19399,16416 18467,16416 "/>
  <polygon class="fil0" points="19660,12687 27006,12687 27016,12687 27016,12697 27016,22363 27016,22373 27006,22373 25743,22373 25743,24867 25723,24867 25723,22363 25723,22353 25733,22353 26996,22353 26996,12707 19660,12707 "/>
  <polygon class="fil0" points="20884,22426 20884,12697 20904,12697 20904,22426 "/>
  <line class="fil1" x1="18940" y1="22426" x2="18415" y2= "22426" />
  <path class="fil4" d="M25054 27292l127 0 32 79 36 0 -122 -296 -19 0 -122 296 36 0 32 -79zm64 -156l51 126 -103 0 52 -126zm263 235l0 -290 -19 0 -74 89 22 17 38 -45 0 229 33 0z"/>
  <path class="fil4" d="M23774 27293l126 0 32 78 37 0 -123 -296 -18 0 -123 296 36 0 33 -78zm63 -157l52 126 -104 0 52 -126zm395 235l0 -31 -163 0 82 -72c51,-42 74,-69 74,-108 0,-46 -40,-82 -98,-82l-4 0c-40,0 -78,17 -105,51l22 20c22,-27 50,-40 81,-40l4 0c35,0 67,21 67,57 0,26 -15,44 -50,74l-130 113 0 18 220 0z"/>
  <path class="fil4" d="M22623 27284l126 0 32 78 37 0 -123 -296 -18 0 -123 296 36 0 33 -78zm63 -157l52 126 -104 0 52 -126zm389 -36l0 -19 -188 0 0 31 137 0 -112 100 17 13c13,-6 30,-12 49,-12 53,0 76,24 76,60 0,42 -31,70 -75,70l-3 0c-41,0 -72,-16 -94,-50l-21 20c21,36 61,61 115,61l4 0c66,-1 105,-42 105,-97 0,-45 -29,-80 -87,-83 -14,0 -24,1 -33,3l110 -97z"/>
  <path class="fil4" d="M21296 27292l127 0 32 78 36 0 -122 -296 -19 0 -122 296 36 0 32 -78zm64 -157l51 126 -103 0 52 -126zm364 178l34 0 0 -31 -34 0 0 -202 -18 0 -176 214 0 19 161 0 0 57 33 0 0 -57zm-33 -176l0 145 -120 0 120 -145z"/>
  <path class="fil4" d="M19772 27278l127 0 32 78 36 0 -122 -296 -19 0 -122 296 36 0 32 -78zm64 -157l51 126 -103 0 52 -126zm371 -24l0 -30 -175 0 0 140 17 13c15,-13 46,-26 77,-26 48,0 76,24 76,67 0,41 -33,67 -75,68l-2 0c-42,0 -71,-17 -93,-51l-21 20c21,36 59,61 113,61l4 0c67,-1 106,-45 106,-96 0,-56 -36,-93 -97,-93 -32,0 -60,9 -75,20l0 -93 145 0z"/>
  <path class="fil4" d="M18700 20444l126 0 32 79 37 0 -122 -296 -19 0 -123 296 37 0 32 -79zm63 -157l52 126 -103 0 51 -126zm291 -58c-83,0 -116,78 -116,156l1 26c0,64 42,115 109,115 66,0 106,-48 106,-101 0,-59 -44,-99 -101,-99 -39,0 -69,19 -83,46 3,-53 23,-112 84,-112l3 1c28,0 48,9 67,29l21 -20c-19,-24 -46,-40 -88,-41l-3 0zm-8 125c44,0 75,30 75,71 0,39 -31,69 -75,69 -47,0 -74,-34 -74,-74 0,-36 30,-66 74,-66z"/>
  <path class="fil4" d="M18786 19185l126 0 32 79 37 0 -123 -297 -18 0 -123 297 36 0 33 -79zm63 -157l52 126 -104 0 52 -126zm363 -36l0 -18 -192 0 0 30 149 0 -149 260 36 0 156 -272z"/>
  <path class="fil4" d="M18688 17100l127 0 32 79 36 0 -122 -296 -19 0 -122 296 36 0 32 -79zm64 -156l51 126 -103 0 52 -126zm323 80c26,-9 48,-29 48,-65 0,-43 -36,-73 -90,-74l-4 0c-54,0 -91,31 -91,74 0,36 22,56 48,65 -35,10 -59,36 -59,74 0,51 40,84 103,84l2 0c63,0 103,-33 103,-84 0,-38 -25,-64 -60,-74zm-106 -59c0,-35 30,-50 62,-50 32,0 61,15 61,50 0,34 -29,49 -61,49 -32,0 -62,-15 -62,-49zm62 187c-42,0 -73,-22 -73,-59 0,-48 47,-59 73,-59 43,1 72,22 72,59 0,37 -31,59 -72,59z"/>
  <path class="fil4" d="M18714 16015l127 0 32 79 36 0 -122 -296 -19 0 -122 296 36 0 32 -79zm64 -156l51 125 -103 0 52 -125zm274 238c83,0 116,-78 116,-156l0 -25c0,-64 -42,-115 -109,-115 -66,0 -107,48 -107,101 0,59 45,99 102,99 39,0 69,-20 83,-46 -3,53 -23,111 -85,111l-2 0c-28,0 -48,-10 -67,-29l-22 20c19,23 47,40 88,40l3 0zm9 -124c-44,0 -75,-31 -75,-71 0,-39 31,-70 75,-70 48,0 74,34 74,74 0,36 -31,67 -74,67z"/>
  <line class="fil1" x1="27442" y1="26150" x2="27442" y2= "24867" />
  <polygon class="fil0" points="27432,26150 27432,24867 27452,24867 27452,26150 "/>
  <path class="fil0" d="M1491 11093c1,-20 1,-55 2,-95 1,-115 2,-280 2,-290l0 -6 6 0 419 -1 0 13 -413 0c0,9 0,29 0,54l413 0 0 12 -413 0c0,17 0,35 0,55l413 0 0 12 -414 0c0,16 0,33 0,49l414 0 0 13 -414 0c0,16 0,33 -1,49l415 0 0 12 -415 0c0,10 0,19 0,28l0 21 415 0 0 12 -416 0c0,20 0,36 -1,50l417 0 0 12 -417 0 0 0 -12 0z"/>
  <path class="fil0" d="M7168 11447c20,0 54,1 95,1 115,2 279,3 290,3l6 0 0 6 0 418 -12 0 0 -412c-9,0 -29,0 -54,-1l0 413 -12 0 0 -413c-17,0 -36,0 -55,0l0 413 -12 0 0 -413c-16,0 -33,0 -50,-1l0 414 -12 0 0 -414c-16,0 -33,0 -49,0l0 414 -12 0 0 -414c-10,0 -19,0 -28,-1l-22 0 0 415 -12 0 0 -415c-19,0 -36,-1 -49,-1l0 416 -12 0 0 -416 0 0 0 -12z"/>
  <path class="fil0" d="M1517 3735c20,0 54,1 95,1 115,2 279,3 290,3l6 0 0 6 0 413 -12 0 0 -407c-9,0 -29,0 -55,-1l0 408 -12 0 0 -408c-16,0 -35,0 -54,0l0 408 -12 0 0 -408c-16,0 -33,0 -50,0l0 408 -12 0 0 -409c-16,0 -33,0 -49,0l0 409 -12 0 0 -409c-10,0 -19,0 -28,-1l-22 0 0 410 -12 0 0 -410c-19,0 -36,-1 -49,-1l0 411 -12 0 0 -411 0 0 0 -12z"/>
  <path class="fil0" d="M18626 3016c20,0 55,1 95,1 115,2 280,3 291,3l6 0 0 6 0 417 -12 0 0 -411c-10,0 -29,0 -55,-1l0 412 -12 0 0 -412c-17,0 -35,0 -55,0l0 412 -12 0 0 -412c-16,0 -32,0 -49,0l0 412 -12 0 0 -413c-17,0 -33,0 -50,0l0 413 -12 0 0 -413c-9,0 -19,0 -28,-1l-21 0 0 414 -12 0 0 -414c-19,0 -36,-1 -50,-1l0 415 -12 0 0 -415 0 0 0 -12z"/>
  <path class="fil0" d="M7143 3471c1,-20 1,-55 2,-96 1,-114 2,-279 2,-290l0 -6 6 0 419 0 0 12 -413 0c0,10 0,29 0,55l413 0 0 12 -413 0c0,16 0,35 -1,55l414 0 0 12 -414 0c0,16 0,32 0,49l414 0 0 12 -414 0c0,17 -1,33 -1,49l415 0 0 12 -415 0c0,10 0,19 0,28l0 22 415 0 0 12 -416 0c0,19 0,36 -1,49l417 0 0 12 -417 0 0 1 -12 0z"/>
  <path class="fil0" d="M11263 2213c1,-20 1,-55 2,-95 1,-115 2,-280 2,-291l0 -6 6 0 413 0 0 12 -407 0c0,10 0,30 0,55l407 0 0 12 -407 0c-1,17 -1,35 -1,55l408 0 0 12 -408 0c0,16 0,33 0,49l408 0 0 12 -408 0c-1,17 -1,34 -1,50l409 0 0 12 -409 0c0,9 0,19 0,28l-1 21 410 0 0 12 -410 0c0,19 0,36 -1,50l411 0 0 12 -411 0 0 0 -12 0z"/>
  <path class="fil0" d="M14925 2213c1,-20 2,-55 2,-95 2,-115 2,-280 2,-291l0 -6 6 0 419 0 0 12 -413 0c0,10 0,30 0,55l416 0 0 12 -416 0c0,17 0,35 0,55l416 0 0 12 -416 0c-1,16 -1,33 -1,49l417 0 0 12 -417 0c0,17 0,34 0,50l417 0 0 12 -418 0c0,9 0,19 0,28l0 21 418 0 0 12 -418 0c-1,19 -1,36 -1,50l419 0 0 12 -420 0 0 0 -12 0z"/>
  <path class="fil0" d="M12022 11445c20,1 54,1 95,2 115,1 279,2 290,2l6 0 0 6 0 414 -12 0 0 -408c-9,0 -29,0 -55,0l0 408 -12 0 0 -408c-16,0 -35,-1 -54,-1l0 409 -12 0 0 -409c-16,0 -33,0 -50,0l0 409 -12 0 0 -409c-16,0 -33,-1 -49,-1l0 410 -12 0 0 -410c-10,0 -19,0 -28,0l-22 -1 0 411 -12 0 0 -411c-19,0 -36,0 -49,-1l0 412 -12 0 0 -412 0 0 0 -12z"/>
  <path class="fil0" d="M16855 11468c20,1 55,1 96,2 114,1 279,2 290,2l6 0 0 6 0 413 -12 0 0 -407c-10,0 -29,0 -55,0l0 407 -12 0 0 -407c-16,0 -35,0 -55,-1l0 408 -12 0 0 -408c-16,0 -32,0 -49,0l0 408 -12 0 0 -408c-17,0 -33,0 -49,-1l0 409 -13 0 0 -409c-9,0 -18,0 -28,0l-21 0 0 409 -12 0 0 -410c-19,0 -36,0 -49,-1l0 411 -12 0 0 -411 -1 0 0 -12z"/>
  <path class="fil0" d="M21034 11465c20,0 55,1 95,2 115,1 280,2 291,2l6 0 0 6 0 418 -12 0 0 -412c-10,0 -30,0 -55,0l0 412 -12 0 0 -412c-17,-1 -35,-1 -55,-1l0 413 -12 0 0 -413c-16,0 -33,0 -49,0l0 413 -12 0 0 -413c-17,-1 -34,-1 -50,-1l0 414 -12 0 0 -414c-9,0 -19,0 -28,0l-21 -1 0 415 -12 0 0 -415c-19,0 -36,-1 -50,-1l0 416 -12 0 0 -416 0 0 0 -12z"/>
  <path class="fil0" d="M25815 11461c20,1 55,2 95,2 115,2 280,3 290,3l6 0 0 6 0 419 -12 0 0 -413c-9,0 -29,-1 -54,-1l0 414 -12 0 0 -414c-17,0 -35,0 -55,0l0 414 -12 0 0 -414c-16,0 -33,0 -49,-1l0 415 -13 0 0 -415c-16,0 -33,0 -49,0l0 415 -12 0 0 -415c-10,0 -19,-1 -28,-1l-21 0 0 416 -12 0 0 -416c-20,0 -36,-1 -50,-1l0 417 -12 0 0 -418 0 0 0 -12z"/>
  <polyline class="fil1" points="1449,11911 5143,11905 5143,13916 "/>
  <polygon class="fil0" points="1449,11901 5143,11895 5153,11895 5153,11905 5153,13916 5133,13916 5133,11915 1449,11921 "/>
  <line class="fil1" x1="6307" y1="11422" x2="6307" y2= "11916" />
  <polygon class="fil0" points="6317,11422 6317,11916 6297,11916 6297,11422 "/>
  <polyline class="fil1" points="7603,11422 7603,11911 6693,11911 6693,12429 11170,12429 11170,11422 "/>
  <polygon class="fil0" points="7613,11422 7613,11911 7613,11921 7603,11921 6703,11921 6703,12419 11160,12419 11160,11422 11180,11422 11180,12429 11180,12439 11170,12439 6693,12439 6683,12439 6683,12429 6683,11911 6683,11901 6693,11901 7593,11901 7593,11422 "/>
  <polyline class="fil1" points="12461,11422 12461,11895 11567,11895 11567,12419 16044,12419 16044,11422 "/>
  <polygon class="fil0" points="12471,11422 12471,11895 12471,11905 12461,11905 11577,11905 11577,12409 16034,12409 16034,11422 16054,11422 16054,12419 16054,12429 16044,12429 11567,12429 11557,12429 11557,12419 11557,11895 11557,11885 11567,11885 12451,11885 12451,11422 "/>
  <line class="fil1" x1="16435" y1="11927" x2="16435" y2= "12403" />
  <polygon class="fil0" points="16445,11927 16445,12403 16425,12403 16425,11927 "/>
  <line class="fil1" x1="17319" y1="11937" x2="17319" y2= "11422" />
  <polygon class="fil0" points="17309,11937 17309,11422 17329,11422 17329,11937 "/>
  <polyline class="fil1" points="16435,12403 18869,12403 21822,12403 21822,11917 "/>
  <polygon class="fil0" points="16435,12393 18869,12393 21812,12393 21812,11917 21832,11917 21832,12403 21832,12413 21822,12413 18869,12413 16435,12413 "/>
  <polyline class="fil1" points="21822,11927 20981,11927 20981,11422 "/>
  <polygon class="fil0" points="21822,11937 20981,11937 20971,11937 20971,11927 20971,11422 20991,11422 20991,11917 21822,11917 "/>
  <polyline class="fil1" points="22637,11422 22637,12419 26791,12419 26791,11927 25733,11927 25733,11422 "/>
  <polygon class="fil0" points="22647,11422 22647,12409 26781,12409 26781,11937 25733,11937 25723,11937 25723,11927 25723,11422 25743,11422 25743,11917 26791,11917 26801,11917 26801,11927 26801,12419 26801,12429 26791,12429 22637,12429 22627,12429 22627,12419 22627,11422 "/>
  <line class="fil1" x1="26997" y1="11422" x2="26997" y2= "11921" />
  <polygon class="fil0" points="27007,11422 27007,11921 26987,11921 26987,11422 "/>
  <line class="fil1" x1="17329" y1="11937" x2="16435" y2= "11937" />
  <polygon class="fil0" points="17329,11947 16435,11947 16435,11927 17329,11927 "/>
  <polyline class="fil1" points="14858,1675 14858,3685 11768,3685 11762,1675 "/>
  <polyline class="fil1" points="11207,1675 11207,3695 7614,3695 7614,2917 6328,2917 6328,3679 1475,3679 "/>
  <line class="fil1" x1="27006" y1="22363" x2="27006" y2= "24867" />
  <polygon class="fil0" points="27016,22363 27016,24867 26996,24867 26996,22363 "/>
 </g>
</svg>
