<?xml version="1.0" encoding="UTF-8"?>
<!DOCTYPE svg PUBLIC "-//W3C//DTD SVG 1.1//EN" "http://www.w3.org/Graphics/SVG/1.1/DTD/svg11.dtd">
<!-- Creator: CorelDRAW X6 -->
<svg xmlns="http://www.w3.org/2000/svg" xml:space="preserve" width="297mm" height="297mm" version="1.1" style="shape-rendering:geometricPrecision; text-rendering:geometricPrecision; image-rendering:optimizeQuality; fill-rule:evenodd; clip-rule:evenodd"
viewBox="0 0 29700 29700"
 xmlns:xlink="http://www.w3.org/1999/xlink">
 <defs>
  <style type="text/css">
   <![CDATA[
    .fil0 {fill:none}
    .fil2 {fill:#727271}
    .fil3 {fill:#2B2A29;fill-rule:nonzero}
    .fil1 {fill:#727271;fill-rule:nonzero}
   ]]>
  </style>
 </defs>
 <g id="Слой_x0020_1">
  <metadata id="CorelCorpID_0Corel-Layer"/>
  <g id="_1480193104">
   <path class="fil0" d="M1432 10653l26846 0 0 2794 -8403 0 0 2074m0 508l0 3018 1024 0 0 -5600"/>
   <polygon class="fil1" points="1432,10578 28278,10578 28353,10578 28353,10653 28353,13447 28353,13522 28278,13522 20974,13522 20974,19047 20974,19122 20899,19122 19875,19122 19800,19122 19800,19047 19800,16043 19950,16043 19950,18972 20824,18972 20824,13522 19950,13522 19950,15521 19800,15521 19800,13447 19800,13372 19875,13372 28203,13372 28203,10728 1432,10728 "/>
   <polyline class="fil0" points="19875,19047 7812,19047 7812,13413 "/>
   <polygon class="fil1" points="19875,19122 7812,19122 7737,19122 7737,19047 7737,13413 7887,13413 7887,18972 19875,18972 "/>
   <path class="fil0" d="M8818 19056l0 -3088m0 -428l0 -2144"/>
   <path class="fil1" d="M8743 19056l0 -3088 150 0 0 3088 -150 0zm0 -3516l0 -2144 150 0 0 2144 -150 0z"/>
   <line class="fil0" x1="10354" y1="19092" x2="10354" y2= "16135" />
   <polygon class="fil1" points="10279,19092 10279,16135 10429,16135 10429,19092 "/>
   <line class="fil0" x1="11542" y1="19047" x2="11542" y2= "16126" />
   <polygon class="fil1" points="11467,19047 11467,16126 11617,16126 11617,19047 "/>
   <line class="fil0" x1="13025" y1="19077" x2="13025" y2= "16118" />
   <polygon class="fil1" points="12950,19077 12950,16118 13100,16118 13100,19077 "/>
   <line class="fil0" x1="15701" y1="19094" x2="15701" y2= "16084" />
   <polygon class="fil1" points="15626,19094 15626,16084 15776,16084 15776,19094 "/>
   <line class="fil0" x1="18372" y1="19073" x2="18372" y2= "16084" />
   <polygon class="fil1" points="17937,19073 17937,16084 18087,16084 18087,19073 "/>
   <path class="fil0" d="M1422 13447l0 -170m0 -385l0 -2239"/>
   <path class="fil1" d="M1347 13522l0 -174 150 0 0 174 -150 0zm0 -506l0 -2438 150 0 0 2438 -150 0z"/>
   <line class="fil0" x1="2490" y1="10649" x2="2490" y2= "12888" />
   <polygon class="fil1" points="2565,10649 2565,12959 2415,12958 2415,10649 "/>
   <path class="fil0" d="M2480 12884l626 0m538 0l2628 0m538 0l1671 0m657 0l1199 0"/>
   <path class="fil1" d="M2480 12809l626 0 0 150 -626 0 0 -150zm1164 0l2628 0 0 150 -2628 0 0 -150zm3166 0l1671 0 0 150 -1671 0 0 -150zm2328 0l1199 0 0 150 -1199 0 0 -150z"/>
   <path class="fil0" d="M10354 10653l0 3932 1049 0m565 0l2103 0m564 0l2148 0m564 0l1127 0 0 -3932"/>
   <path class="fil1" d="M10429 10653l0 3857 974 0 0 150 -1049 0 -75 0 0 -75 0 -3932 150 0zm1539 3857l2103 0 0 150 -2103 0 0 -150zm2667 0l2148 0 0 150 -2148 0 0 -150zm2712 0l1052 0 0 -3857 150 0 0 3932 0 75 -75 0 -1127 0 0 -150z"/>
   <path class="fil0" d="M18474 11913l931 0m367 0l1161 0"/>
   <path class="fil1" d="M18474 11838l931 0 0 150 -931 0 0 -150zm1298 0l1161 0 0 150 -1161 0 0 -150z"/>
   <path class="fil0" d="M20940 10653l0 2205 155 0m724 0l551 0m516 0l2319 0m516 0l741 0m419 0l596 0m419 0l401 0"/>
   <path class="fil1" d="M21015 10653l0 2130 80 0 0 150 -155 0 -75 0 0 -75 0 -2205 150 0zm804 2130l709 0 1 150 -710 0 0 -150zm1067 0l2319 0 0 150 -2319 0 0 -150zm2835 0l741 0 0 150 -741 0 0 -150zm1160 0l596 0 0 150 -596 0 0 -150zm1015 0l401 0 0 150 -401 0 0 -150z"/>
   <path class="fil0" d="M21430 10653l212 198m230 213l94 88 0 1715"/>
   <path class="fil1" d="M21967 10598l213 198 -102 109 -213 -197 102 -110zm442 411l95 88 24 23 0 32 0 1715 -150 0 0 -1682 -71 -66 102 -110z"/>
   <line class="fil0" x1="23723" y1="10682" x2="23723" y2= "12875" />
   <polygon class="fil1" points="24135,10682 24135,12875 23985,12875 23985,10682 "/>
   <polygon class="fil1" points="5051,10682 5051,12875 4901,12875 4901,10682 "/>
   <line class="fil0" x1="26166" y1="10653" x2="26166" y2= "12845" />
   <polygon class="fil1" points="26241,10653 26241,12845 26091,12845 26091,10653 "/>
   <line class="fil0" x1="27264" y1="10653" x2="27264" y2= "12850" />
   <polygon class="fil1" points="27339,10653 27339,12850 27189,12850 27189,10653 "/>
   <line class="fil0" x1="13025" y1="10653" x2="13025" y2= "14585" />
   <polygon class="fil1" points="13100,10653 13100,14585 12950,14585 12950,10653 "/>
   <line class="fil0" x1="15701" y1="10653" x2="15701" y2= "14607" />
   <polygon class="fil1" points="15776,10653 15776,14607 15626,14607 15626,10653 "/>
   <line class="fil0" x1="1422" y1="13447" x2="8851" y2= "13447" />
   <polygon class="fil1" points="1422,13372 8891,13372 8893,13522 1422,13522 "/>
   <path class="fil0" d="M8826 16169l495 -3m520 -2l1005 -5m391 -2l317 -1m390 -2l2174 -10m521 -2l2143 -10m520 -2l1610 -8m520 -2l452 -2"/>
   <path class="fil1" d="M8826 16094l494 -2 1 149 -494 2 -1 -149zm1015 -5l1005 -4 1 149 -1006 5 0 -150zm1395 -6l381 -2 0 150 -380 1 -1 -149zm708 -3l2174 -10 1 149 -2174 10 -1 -149zm2694 -13l2144 -10 0 150 -2143 10 -1 -150zm2664 -12l1609 -7 1 149 -1610 7 0 -149zm2130 -10l452 -2 0 149 -452 3 0 -150z"/>
   <line class="fil0" x1="2032" y1="12879" x2="1431" y2= "12879" />
   <polygon class="fil1" points="2032,12954 1431,12954 1431,12804 2032,12804 "/>
   <g>
    <path class="fil2" d="M8629 12019c-4,0 -6,-2 -6,-5l0 -495c0,-2 2,-5 6,-5 3,0 5,3 5,5l0 495c0,3 -2,5 -5,5z"/>
    <path class="fil2" d="M8405 12007c-3,0 -5,-2 -5,-5 -1,-13 -11,-321 -11,-350 0,-3 2,-6 5,-6 3,0 6,3 6,6 0,29 11,346 11,350 0,3 -3,5 -6,5 0,0 0,0 0,0z"/>
    <path class="fil2" d="M8451 12007c-3,0 -5,-2 -5,-5l0 -192c0,-5 -3,-5 -4,-5 -2,0 -4,1 -4,5l0 192c0,3 -3,5 -6,5 -3,0 -5,-2 -5,-5l0 -192c0,-9 6,-16 15,-16 9,0 15,7 15,16l0 192c0,3 -3,5 -6,5z"/>
    <path class="fil2" d="M8478 12007c0,0 0,0 0,0 -3,0 -6,-2 -6,-5 1,-4 12,-321 12,-350 0,-3 2,-6 5,-6 3,0 6,3 6,6 0,29 -11,337 -11,350 0,3 -3,5 -6,5z"/>
    <path class="fil2" d="M8523 11791c-3,0 -6,-2 -6,-5 0,-131 -6,-161 -18,-172 -3,-3 -30,-7 -58,-7 -28,0 -54,4 -58,7 -12,11 -18,41 -18,172 0,3 -2,5 -6,5 -3,0 -5,-2 -5,-5 0,-137 6,-166 21,-180 9,-8 48,-10 66,-10 18,0 58,2 66,10 15,14 21,43 21,180 0,3 -2,5 -5,5z"/>
    <path class="fil2" d="M8441 11563c-11,0 -19,-9 -19,-19 0,-10 8,-18 19,-19 10,1 18,9 18,19 0,10 -8,19 -18,19zm0 -49c0,0 0,0 0,0 0,0 0,0 -1,0 0,0 0,0 0,0 -16,0 -29,14 -29,30 0,16 13,30 29,30 0,0 0,0 0,0l1 0c0,0 0,0 0,0 16,0 29,-14 29,-30 0,-16 -13,-30 -29,-30z"/>
    <path class="fil2" d="M8900 11738c-24,-24 -27,-53 -30,-75 -2,-19 -4,-35 -17,-43 -12,-6 -23,-6 -36,-6 -2,0 -4,0 -6,0 0,0 0,0 0,0 0,0 0,0 0,0l0 0c-2,0 -4,0 -6,0 -13,0 -24,0 -36,6 -13,8 -15,24 -17,43 -2,22 -6,51 -30,75 -2,2 -2,6 0,8 1,1 3,2 4,2 1,0 3,-1 4,-2 27,-27 31,-59 33,-82 2,-19 4,-30 12,-34 9,-5 18,-5 30,-5 2,0 4,0 6,0l0 0c0,0 0,0 0,0l0 0c2,0 4,0 6,0 13,0 22,0 30,5 9,4 10,15 12,34 3,23 6,55 33,82 1,1 3,2 4,2 1,0 3,-1 4,-2 2,-2 2,-6 0,-8z"/>
    <path class="fil2" d="M8811 11586c-10,0 -19,-9 -19,-19 0,-11 9,-19 19,-19 10,0 19,8 19,19 0,10 -9,19 -19,19zm0 -49c0,0 0,0 0,0 0,0 0,0 0,0 0,0 0,0 0,0 -17,0 -30,13 -30,30 0,16 13,30 30,30 0,0 0,0 0,0l0 0c0,0 0,0 0,0 0,0 0,0 0,0 17,0 30,-14 30,-30 0,-17 -13,-30 -30,-30z"/>
    <path class="fil2" d="M8990 12019c-4,0 -6,-2 -6,-5l0 -495c0,-2 2,-5 6,-5 3,0 5,3 5,5l0 495c0,3 -2,5 -5,5z"/>
    <path class="fil2" d="M9212 11678c-11,0 -20,9 -20,20 0,11 9,20 20,20 11,0 20,-9 20,-20 0,-11 -9,-20 -20,-20zm0 50c-16,0 -29,-14 -29,-30 0,-16 13,-29 29,-29 16,0 30,13 30,29 0,16 -14,30 -30,30z"/>
    <path class="fil2" d="M9198 11990c-52,0 -95,-42 -95,-95 0,-23 9,-46 24,-63 2,-2 5,-2 7,0 2,1 2,4 1,6 -14,16 -22,36 -22,57 0,47 38,85 85,85 47,0 85,-38 85,-85 0,-4 -1,-9 -1,-14 -1,-2 1,-5 4,-5 2,-1 5,1 5,4 1,5 2,10 2,15 0,53 -43,95 -95,95z"/>
    <path class="fil2" d="M9336 11960c-2,0 -4,-1 -5,-3l-35 -91c-2,-5 -8,-8 -13,-7l-21 4c-9,2 -21,0 -28,-3 -6,-4 -13,-14 -14,-23l-12 -69c-1,-6 -7,-13 -12,-16l-11 -4c-5,-3 -13,-1 -17,3l-31 33c-3,4 -3,10 0,13l38 38c2,2 2,5 0,7 -2,2 -5,2 -7,0l-38 -38c-7,-7 -7,-19 0,-26l31 -34c7,-7 19,-9 28,-5l11 5c8,3 16,13 17,22l12 69c1,6 6,14 10,16 5,3 15,4 21,3l21 -5c10,-1 20,4 24,14l35 90c1,3 0,6 -3,7 0,0 -1,0 -1,0z"/>
    <path class="fil2" d="M8844 11725c-1,-1 -2,-2 -2,-3 -10,-11 -7,-21 1,-35 7,-14 9,-21 1,-33 -2,-3 -5,-4 -8,-2 -2,2 -3,5 -1,8 4,7 5,9 -2,21 -6,10 -16,29 0,49 1,1 2,1 3,2 12,15 33,40 32,102l-114 0c-2,-62 19,-87 31,-102 1,-1 2,-1 3,-2 16,-20 6,-39 0,-49 -7,-12 -6,-14 -2,-21 2,-3 1,-6 -1,-8 -3,-2 -7,-1 -8,2 -8,12 -6,19 1,33 8,14 11,24 1,35 -1,1 -1,2 -2,3 -13,15 -38,44 -34,115 0,3 2,5 5,5l31 0c3,21 18,119 18,155 0,3 2,6 5,6 4,0 6,-3 6,-6 0,-36 -14,-130 -18,-155l40 0c-4,25 -18,119 -18,155 0,3 3,6 6,6 3,0 5,-3 5,-6 0,-36 15,-134 19,-155l31 0c3,0 5,-2 5,-5 4,-71 -21,-100 -34,-115z"/>
    <path class="fil1" d="M8374 11167l946 0c35,0 67,14 90,37 23,23 37,55 37,90l0 946c0,35 -14,67 -37,90 -23,23 -55,37 -90,37l-946 0c-35,0 -67,-14 -90,-37l0 0c-23,-23 -37,-55 -37,-90l0 -946c0,-35 14,-67 37,-90l0 0c23,-23 55,-37 90,-37zm946 31l-946 0c-26,0 -50,11 -68,28l0 0c-17,17 -28,41 -28,68l0 946c0,26 11,50 28,68l0 0c18,17 42,28 68,28l946 0c27,0 51,-11 68,-28 17,-18 28,-42 28,-68l0 -946c0,-27 -11,-51 -28,-68 -17,-17 -41,-28 -68,-28z"/>
   </g>
   <g>
    <g>
     <path class="fil2" d="M21700 12019c-3,0 -5,-2 -5,-5l0 -495c0,-2 2,-5 5,-5 3,0 6,3 6,5l0 495c0,3 -3,5 -6,5z"/>
     <path class="fil2" d="M21477 12007c-3,0 -6,-2 -6,-5 0,-13 -11,-321 -11,-350 0,-3 3,-6 6,-6 3,0 5,3 5,6 0,29 11,346 11,350 0,3 -2,5 -5,5 0,0 0,0 0,0z"/>
     <path class="fil2" d="M21523 12007c-3,0 -6,-2 -6,-5l0 -192c0,-5 -3,-5 -4,-5 -1,0 -4,1 -4,5l0 192c0,3 -2,5 -5,5 -3,0 -6,-2 -6,-5l0 -192c0,-9 6,-16 15,-16 9,0 15,7 15,16l0 192c0,3 -2,5 -5,5z"/>
     <path class="fil2" d="M21550 12007c0,0 0,0 0,0 -4,0 -6,-2 -6,-5 0,-4 11,-321 11,-350 0,-3 3,-6 6,-6 3,0 5,3 5,6 0,29 -10,337 -11,350 0,3 -2,5 -5,5z"/>
     <path class="fil2" d="M21595 11791c-3,0 -6,-2 -6,-5 0,-131 -6,-161 -18,-172 -4,-3 -30,-7 -58,-7 -28,0 -55,4 -58,7 -12,11 -18,41 -18,172 0,3 -3,5 -6,5 -3,0 -5,-2 -5,-5 0,-137 6,-166 21,-180 8,-8 48,-10 66,-10 18,0 57,2 66,10 15,14 21,43 21,180 0,3 -2,5 -5,5z"/>
     <path class="fil2" d="M21512 11563c-10,0 -18,-9 -18,-19 0,-10 8,-18 18,-19 10,1 19,9 19,19 0,10 -9,19 -19,19zm0 -49c0,0 0,0 0,0 0,0 0,0 0,0 0,0 0,0 0,0 -16,0 -29,14 -29,30 0,16 13,30 29,30 0,0 0,0 0,0l0 0c0,0 0,0 0,0 17,0 30,-14 30,-30 0,-16 -13,-30 -30,-30z"/>
     <path class="fil2" d="M21972 11738c-25,-24 -28,-53 -30,-75 -2,-19 -4,-35 -18,-43 -11,-6 -22,-6 -35,-6 -2,0 -4,0 -6,0 0,0 0,0 0,0 0,0 0,0 0,0l0 0c-2,0 -4,0 -6,0 -13,0 -25,0 -36,6 -14,8 -15,24 -17,43 -3,22 -6,51 -30,75 -2,2 -2,6 0,8 1,1 2,2 4,2 1,0 3,-1 4,-2 27,-27 30,-59 33,-82 2,-19 3,-30 11,-34 9,-5 18,-5 31,-5 2,0 4,0 6,0l0 0c0,0 0,0 0,0l0 0c2,0 4,0 6,0 12,0 21,0 30,5 8,4 10,15 12,34 2,23 6,55 33,82 1,1 2,2 4,2 1,0 3,-1 4,-2 2,-2 2,-6 0,-8z"/>
     <path class="fil2" d="M21883 11586c-11,0 -19,-9 -19,-19 0,-11 8,-19 19,-19 10,0 19,8 19,19 0,10 -9,19 -19,19zm0 -49c0,0 0,0 0,0 0,0 0,0 0,0 0,0 0,0 0,0 -17,0 -30,13 -30,30 0,16 13,30 30,30 0,0 0,0 0,0l0 0c0,0 0,0 0,0 0,0 0,0 0,0 16,0 30,-14 30,-30 0,-17 -14,-30 -30,-30z"/>
     <path class="fil2" d="M21916 11725c-1,-1 -2,-2 -2,-3 -10,-11 -8,-21 0,-35 8,-14 9,-21 2,-33 -2,-3 -5,-4 -8,-2 -3,2 -3,5 -2,8 5,7 5,9 -2,21 -5,10 -15,29 1,49 1,1 1,1 2,2 13,15 34,40 32,102l-114 0c-2,-62 19,-87 32,-102 1,-1 2,-1 2,-2 17,-20 6,-39 1,-49 -7,-12 -6,-14 -2,-21 2,-3 1,-6 -2,-8 -2,-2 -6,-1 -7,2 -8,12 -7,19 1,33 8,14 10,24 1,35 -1,1 -2,2 -2,3 -14,15 -38,44 -35,115 0,3 3,5 6,5l30 0c4,21 19,119 19,155 0,3 2,6 5,6 3,0 6,-3 6,-6 0,-36 -14,-130 -18,-155l40 0c-4,25 -18,119 -18,155 0,3 2,6 5,6 4,0 6,-3 6,-6 0,-36 15,-134 18,-155l32 0c2,0 5,-2 5,-5 4,-71 -21,-100 -34,-115z"/>
    </g>
    <path class="fil1" d="M21226 11167l947 0c35,0 66,14 89,37 23,23 38,55 38,90l0 946c0,35 -15,67 -38,90 -23,23 -54,37 -89,37l-947 0c-35,0 -66,-14 -89,-37l0 0c-23,-23 -38,-55 -38,-90l0 -946c0,-35 15,-67 38,-90l0 0c23,-23 54,-37 89,-37zm947 31l-947 0c-26,0 -50,11 -67,28l0 0c-18,17 -28,41 -28,68l0 946c0,26 10,50 28,68l0 0c17,17 41,28 67,28l947 0c26,0 50,-11 67,-28 18,-18 28,-42 28,-68l0 -946c0,-27 -10,-51 -28,-68 -17,-17 -41,-28 -67,-28z"/>
   </g>
   <polygon class="fil1" points="7347,12809 7347,10578 7497,10578 7497,12809 "/>
   <path class="fil3" d="M5864 12046c-111,0 -201,91 -201,202 0,112 90,201 201,201 59,0 112,-24 149,-64l0 -147 -152 0 0 35 108 0 0 95c-28,26 -64,40 -105,40 -88,0 -157,-68 -157,-160 0,-91 69,-160 157,-160 47,0 90,19 120,51l29 -26c-37,-41 -90,-67 -149,-67zm532 400l0 -42 -217 0 109 -96c68,-56 99,-92 99,-144 0,-61 -54,-109 -130,-110l-6 0c-54,0 -104,24 -140,69l29 26c30,-36 67,-53 108,-53l5 0c47,0 90,28 90,75 0,36 -20,59 -66,100l-174 150 0 25 293 0zm262 -207c35,-12 64,-39 64,-87 0,-57 -49,-97 -120,-98l-5 0c-73,0 -123,40 -123,98 0,48 29,75 64,87 -46,13 -79,48 -79,98 0,68 55,112 139,112l3 0c82,0 136,-44 136,-112 0,-50 -33,-85 -79,-98zm-142 -80c0,-46 39,-66 82,-66 43,0 82,20 82,66 0,47 -39,66 -82,66 -43,0 -82,-19 -82,-66zm82 250c-56,0 -96,-29 -96,-79 0,-63 62,-78 96,-78 58,1 97,29 97,78 0,50 -41,79 -97,79z"/>
   <path class="fil3" d="M3303 12048c-111,0 -201,90 -201,201 0,112 90,202 201,202 59,0 112,-25 149,-65l0 -146 -153 0 0 34 109 0 0 96c-28,25 -65,40 -105,40 -88,0 -157,-69 -157,-161 0,-91 69,-160 157,-160 47,0 90,19 120,52l29 -27c-37,-41 -90,-66 -149,-66zm532 399l0 -41 -217 0 109 -97c67,-56 99,-92 99,-144 0,-61 -54,-109 -130,-109l-7 0c-53,0 -103,23 -139,68l29 27c30,-37 67,-54 108,-54l5 1c47,0 90,27 90,75 0,35 -20,59 -67,99l-173 150 0 25 293 0zm197 4c110,0 154,-104 154,-208l0 -33c0,-86 -57,-154 -146,-154 -87,0 -142,64 -142,135 0,79 59,132 135,132 53,0 92,-26 111,-62 -4,71 -31,149 -112,149l-4 0c-37,0 -64,-13 -90,-39l-28 26c26,31 62,54 118,54l4 0zm11 -166c-58,0 -100,-41 -100,-94 0,-53 42,-93 100,-93 64,0 99,45 99,98 0,48 -41,89 -99,89z"/>
   <path class="fil3" d="M11969 16794c-111,0 -201,90 -201,201 0,112 90,202 201,202 59,0 112,-25 149,-65l0 -146 -152 0 0 34 108 0 0 95c-28,26 -64,41 -105,41 -87,0 -157,-69 -157,-161 0,-91 70,-160 157,-160 47,0 90,19 120,51l29 -26c-37,-41 -90,-66 -149,-66zm532 399l0 -41 -217 0 109 -97c68,-56 99,-92 99,-144 0,-61 -54,-109 -130,-109l-6 0c-54,0 -104,23 -140,68l29 26c30,-36 67,-53 108,-53l5 0c47,0 90,28 90,75 0,36 -20,60 -66,100l-174 150 0 25 293 0zm314 -363l0 -24 -256 0 0 41 199 0 -199 346 48 0 208 -363z"/>
   <path class="fil3" d="M14088 16795c-112,0 -201,90 -201,201 0,112 89,202 201,202 59,0 112,-25 149,-65l0 -146 -153 0 0 34 109 0 0 95c-28,26 -65,41 -105,41 -88,0 -157,-69 -157,-161 0,-91 69,-160 157,-160 47,0 89,19 120,51l29 -26c-37,-41 -90,-66 -149,-66zm531 399l0 -41 -217 0 110 -97c67,-56 98,-92 98,-144 0,-61 -53,-109 -130,-109l-6 0c-53,0 -103,23 -139,68l29 26c29,-36 67,-53 107,-53l5 0c48,0 91,28 91,75 0,36 -21,60 -67,100l-174 150 0 25 293 0zm219 -391c-111,0 -155,103 -155,207l1 34c0,87 56,154 145,154 88,0 142,-64 142,-135 0,-79 -59,-132 -135,-132 -52,0 -92,26 -110,61 3,-70 30,-148 112,-148l4 0c37,0 63,13 89,39l28 -26c-25,-32 -61,-54 -117,-54l-4 0zm-11 166c59,0 100,40 100,94 0,53 -41,93 -100,93 -63,0 -99,-46 -99,-99 0,-48 41,-88 99,-88z"/>
   <path class="fil3" d="M16796 16793c-111,0 -201,91 -201,202 0,112 90,201 201,201 59,0 112,-25 149,-65l0 -146 -152 0 0 35 108 0 0 95c-28,25 -64,40 -105,40 -87,0 -157,-68 -157,-160 0,-92 70,-161 157,-161 47,0 90,20 120,52l29 -27c-37,-40 -90,-66 -149,-66zm532 399l0 -41 -217 0 110 -96c67,-56 98,-92 98,-144 0,-61 -54,-109 -130,-110l-6 0c-54,0 -104,23 -140,68l29 27c30,-37 67,-54 108,-54l5 1c47,0 90,28 90,75 0,36 -20,59 -66,99l-174 150 0 25 293 0zm325 -345l0 -41 -233 0 0 188 23 17c20,-17 61,-35 102,-35 65,0 102,32 102,89 0,55 -44,89 -100,90l-2 0c-57,0 -95,-23 -125,-68l-28 27c28,49 79,82 151,82l5 0c90,-1 141,-60 141,-128 0,-74 -47,-125 -129,-125 -43,0 -79,12 -100,27l0 -123 193 0z"/>
   <path class="fil3" d="M11325 13341c-111,0 -201,90 -201,201 0,112 90,202 201,202 59,0 112,-25 149,-65l0 -146 -153 0 0 34 109 0 0 95c-28,26 -65,41 -105,41 -88,0 -157,-69 -157,-161 0,-91 69,-160 157,-160 47,0 89,19 120,51l29 -26c-37,-41 -90,-66 -149,-66zm531 399l0 -41 -216 0 109 -97c67,-56 98,-92 98,-144 0,-61 -53,-109 -129,-109l-7 0c-53,0 -103,23 -139,68l29 26c30,-36 67,-53 108,-53l5 0c47,0 90,28 90,75 0,36 -20,60 -67,100l-174 150 0 25 293 0zm317 -77l45 0 0 -41 -45 0 0 -269 -25 0 -233 285 0 25 214 0 0 77 44 0 0 -77zm-44 -234l0 193 -160 0 160 -193z"/>
   <path class="fil3" d="M14041 13341c-111,0 -201,90 -201,201 0,112 90,202 201,202 60,0 113,-25 149,-65l0 -147 -152 0 0 35 108 0 0 95c-27,26 -64,40 -105,40 -87,0 -157,-68 -157,-160 0,-91 70,-160 157,-160 48,0 90,19 120,51l29 -26c-36,-41 -89,-66 -149,-66zm532 399l0 -42 -217 0 110 -96c67,-56 98,-92 98,-144 0,-61 -54,-109 -130,-110l-6 0c-54,0 -103,24 -139,69l28 26c30,-36 67,-53 108,-53l5 0c48,0 90,28 90,75 0,36 -20,60 -66,100l-174 150 0 25 293 0zm349 -363l0 -24 -250 0 0 41 182 0 -150 133 24 17c17,-8 39,-16 65,-16 71,0 101,32 101,80 0,57 -42,93 -100,94l-3 0c-56,0 -96,-22 -125,-67l-29 26c28,49 81,82 153,83l5 0c89,-2 140,-56 140,-130 0,-60 -39,-106 -115,-111 -19,0 -33,1 -45,5l147 -131z"/>
   <path class="fil3" d="M16733 13341c-111,0 -201,90 -201,201 0,112 90,202 201,202 60,0 113,-25 149,-65l0 -146 -152 0 0 34 108 0 0 95c-27,26 -64,40 -105,40 -87,0 -157,-68 -157,-160 0,-91 70,-160 157,-160 48,0 90,19 121,51l28 -26c-36,-41 -89,-66 -149,-66zm532 399l0 -41 -217 0 110 -97c67,-56 98,-92 98,-144 0,-61 -54,-109 -130,-109l-6 0c-54,0 -103,23 -139,68l28 26c30,-36 68,-53 108,-53l5 0c48,0 91,28 91,75 0,36 -21,60 -67,100l-174 150 0 25 293 0zm357 0l0 -41 -217 0 110 -97c67,-56 98,-92 98,-144 0,-61 -54,-109 -130,-109l-6 0c-54,0 -104,23 -140,68l29 26c30,-36 67,-53 108,-53l5 0c47,0 90,28 90,75 0,36 -20,60 -66,100l-174 150 0 25 293 0z"/>
   <path class="fil3" d="M22998 11472c-111,0 -201,90 -201,201 0,112 90,202 201,202 59,0 112,-25 149,-65l0 -146 -153 0 0 34 109 0 0 95c-28,26 -65,41 -105,41 -88,0 -157,-69 -157,-161 0,-91 69,-160 157,-160 47,0 90,19 120,51l29 -26c-37,-41 -90,-66 -149,-66zm532 399l0 -41 -217 0 109 -97c67,-56 98,-92 98,-144 0,-61 -53,-109 -129,-109l-7 0c-53,0 -103,23 -139,68l29 26c30,-36 67,-53 108,-53l5 0c47,0 90,28 90,75 0,36 -20,60 -67,100l-173 150 0 25 293 0zm181 0l0 -387 -25 0 -98 118 29 23 50 -60 0 306 44 0z"/>
   <path class="fil3" d="M24757 11473c-111,0 -201,90 -201,201 0,112 90,202 201,202 60,0 113,-25 149,-65l0 -146 -152 0 0 34 108 0 0 96c-27,25 -64,40 -105,40 -87,0 -157,-69 -157,-161 0,-91 70,-160 157,-160 48,0 90,19 120,51l29 -26c-36,-41 -89,-66 -149,-66zm532 399l0 -41 -217 0 110 -97c67,-56 98,-92 98,-144 0,-61 -54,-109 -130,-109l-6 0c-54,0 -103,23 -140,68l29 27c30,-37 67,-54 108,-54l5 1c48,0 90,27 90,75 0,35 -20,59 -66,99l-174 150 0 25 293 0zm268 -391c-109,0 -197,88 -197,197 0,110 88,198 197,198 110,0 198,-88 198,-198 0,-109 -88,-197 -198,-197zm1 42c85,0 153,66 153,155 0,89 -68,156 -153,156 -86,0 -153,-67 -153,-156 0,-89 67,-155 153,-155z"/>
   <path class="fil1" d="M20030 14269c2,-33 3,-90 3,-156 3,-188 4,-458 4,-476l0 -10 10 0 687 0 0 20 -677 0c0,16 0,48 -1,89l678 0 0 20 -678 0c0,27 0,58 0,90l678 0 0 20 -678 0c-1,26 -1,53 -1,81l679 0 0 20 -679 0c-1,27 -1,54 -1,80l680 0 0 20 -680 0c-1,16 -1,31 -1,46l0 35 681 0 0 20 -682 0c0,31 -1,59 -1,81l683 0 0 20 -684 0 0 0 -20 0z"/>
   <path class="fil1" d="M7960 14269c1,-33 2,-90 3,-156 2,-188 3,-458 3,-476l0 -10 10 0 687 0 0 20 -677 0c0,16 0,48 0,89l677 0 0 20 -678 0c0,27 0,58 0,90l678 0 0 20 -678 0c0,26 -1,53 -1,81l679 0 0 20 -679 0c0,27 -1,54 -1,80l680 0 0 20 -680 0c0,16 -1,31 -1,46l0 35 681 0 0 20 -681 0c-1,31 -2,59 -2,81l683 0 0 20 -684 0 0 0 -19 0z"/>
   <path class="fil1" d="M20030 17083c2,-33 3,-89 3,-156 3,-188 4,-458 4,-476l0 -10 10 0 687 0 0 20 -677 0c0,16 0,48 -1,90l678 0 0 19 -678 0c0,28 0,58 0,90l678 0 0 20 -678 0c-1,26 -1,53 -1,81l679 0 0 20 -679 0c-1,27 -1,54 -1,81l680 0 0 19 -680 0c-1,16 -1,31 -1,46l0 35 681 0 0 20 -682 0c0,31 -1,59 -1,81l683 0 0 20 -684 0 0 0 -20 0z"/>
   <path class="fil1" d="M7960 17083c1,-33 2,-89 3,-156 2,-188 3,-458 3,-476l0 -10 10 0 687 0 0 20 -677 0c0,16 0,48 0,90l677 0 0 19 -678 0c0,28 0,58 0,90l678 0 0 20 -678 0c0,26 -1,53 -1,81l679 0 0 20 -679 0c0,27 -1,54 -1,81l680 0 0 19 -680 0c0,16 -1,31 -1,46l0 35 681 0 0 20 -681 0c-1,31 -2,59 -2,81l683 0 0 20 -684 0 0 0 -19 0z"/>
   <g>
    <path class="fil2" d="M18716 17994c-4,0 -7,3 -7,7 0,38 13,440 14,457 0,4 3,7 7,7 0,0 0,0 1,0 4,0 7,-3 7,-7 -1,-4 -15,-419 -15,-457 0,-4 -3,-7 -7,-7z"/>
    <path class="fil2" d="M18778 18187c-11,0 -20,9 -20,21l0 250c0,4 4,7 8,7 4,0 7,-3 7,-7l0 -250c0,-6 3,-6 5,-6 1,0 5,0 5,6l0 250c0,4 3,7 7,7 4,0 8,-3 8,-7l0 -250c0,-12 -8,-21 -20,-21z"/>
    <path class="fil2" d="M18840 17994c-4,0 -7,3 -7,7 0,38 -15,453 -15,457 0,4 3,7 7,7 0,0 0,0 1,0 3,0 7,-3 7,-7 0,-17 14,-419 14,-457 0,-4 -3,-7 -7,-7z"/>
    <path class="fil2" d="M18863 17941c-10,-10 -62,-13 -86,-13 -23,0 -75,3 -85,13 -20,19 -29,56 -29,235 0,4 4,7 8,7 4,0 7,-3 7,-7 0,-171 8,-209 24,-224 4,-4 39,-9 75,-9 37,0 72,5 76,9 16,15 24,53 24,224 0,4 3,7 7,7 4,0 7,-3 7,-7 0,-179 -8,-216 -28,-235z"/>
    <path class="fil2" d="M18777 17836c13,0 24,11 24,25 0,13 -11,24 -24,24 -14,0 -25,-11 -25,-24 0,-14 11,-25 25,-25zm0 64c0,0 0,0 0,0 0,0 0,0 0,0 0,0 0,0 0,0 0,0 0,0 0,0 21,-1 38,-18 38,-39 0,-22 -17,-39 -38,-39 0,0 0,0 0,0 0,0 0,0 0,0 0,0 0,0 0,0 0,0 0,0 0,0 -22,0 -39,17 -39,39 0,21 17,38 39,39z"/>
    <path class="fil2" d="M19177 18017c-6,-6 -15,-10 -24,-10 -10,0 -18,4 -25,10l-49 49c-3,3 -3,8 0,11 3,2 7,2 10,0l49 -50c4,-3 9,-5 15,-5 5,0 10,2 14,5l49 50c1,1 3,2 5,2 2,0 4,-1 5,-2 3,-3 3,-8 0,-11l-49 -49z"/>
    <path class="fil2" d="M19216 18248l-49 49c-4,4 -9,6 -14,6 -6,0 -11,-2 -15,-6l-49 -49c-3,-3 -7,-3 -10,0 -3,3 -3,8 0,10l49 50c7,6 15,10 25,10 9,0 18,-4 24,-10l49 -50c3,-2 3,-7 0,-10 -3,-3 -7,-3 -10,0z"/>
    <path class="fil2" d="M19269 18431c0,11 -9,20 -20,20l-197 0c-11,0 -20,-9 -20,-20l0 -561c0,-11 9,-20 20,-20l197 0c11,0 20,9 20,20l0 561zm-20 -596l-197 0c-19,0 -35,16 -35,35l0 561c0,19 16,35 35,35l197 0c19,0 34,-16 34,-35l0 -561c0,-19 -15,-35 -34,-35z"/>
    <path class="fil1" d="M18495 17544l957 0c33,0 64,14 86,36l0 0c22,22 35,52 35,85l0 957c0,34 -13,64 -35,86 -22,22 -53,36 -86,36l-957 0c-33,0 -64,-14 -86,-36 -22,-22 -36,-52 -36,-86l0 -957c0,-33 14,-63 36,-85l0 0c22,-22 53,-36 86,-36zm957 18l-957 0c-28,0 -54,12 -73,31l0 0c-19,18 -30,44 -30,72l0 957c0,29 11,54 30,73 19,19 45,30 73,30l957 0c28,0 54,-11 73,-30 18,-19 30,-44 30,-73l0 -957c0,-28 -12,-54 -30,-72l0 0c-19,-19 -45,-31 -73,-31z"/>
   </g>
  </g>
 </g>
</svg>
