<?xml version="1.0" encoding="UTF-8"?>
<!DOCTYPE svg PUBLIC "-//W3C//DTD SVG 1.1//EN" "http://www.w3.org/Graphics/SVG/1.1/DTD/svg11.dtd">
<!-- Creator: CorelDRAW X6 -->
<svg xmlns="http://www.w3.org/2000/svg" xml:space="preserve" width="297mm" height="297mm" version="1.1" style="shape-rendering:geometricPrecision; text-rendering:geometricPrecision; image-rendering:optimizeQuality; fill-rule:evenodd; clip-rule:evenodd"
viewBox="0 0 29700 29700"
 xmlns:xlink="http://www.w3.org/1999/xlink">
 <defs>
  <style type="text/css">
   <![CDATA[
    .str3 {stroke:#2B2A29;stroke-width:20}
    .str0 {stroke:#727271;stroke-width:150}
    .str2 {stroke:#727271;stroke-width:50;stroke-dasharray:250.000000 150.000000}
    .str4 {stroke:black;stroke-width:3.88}
    .str1 {stroke:#1F1B20;stroke-width:11.04}
    .fil1 {fill:none}
    .fil6 {fill:none;fill-rule:nonzero}
    .fil2 {fill:#727271}
    .fil3 {fill:black}
    .fil5 {fill:#2B2A29;fill-rule:nonzero}
    .fil4 {fill:#1F1B20;fill-rule:nonzero}
    .fil0 {fill:#727271;fill-rule:nonzero}
    .fil7 {fill:black;fill-rule:nonzero}
   ]]>
  </style>
 </defs>
 <g id="Слой_x0020_1">
  <metadata id="CorelCorpID_0Corel-Layer"/>
  <path class="fil0" d="M18471 12687l670 0 0 20 -670 0 0 -20zm1023 0l407 0 0 20 -407 0 0 -20z"/>
  <polygon class="fil0" points="19055,21339 18446,21339 18446,21319 19055,21319 "/>
  <polyline class="fil1" points="20073,21289 20073,20542 20904,20542 "/>
  <polygon class="fil0" points="20063,21289 20063,20542 20063,20532 20073,20532 20904,20532 20904,20552 20083,20552 20083,21289 "/>
  <polyline class="fil1" points="19642,21329 19219,21329 19219,20079 19639,20079 "/>
  <polygon class="fil0" points="19642,21339 19219,21339 19209,21339 19209,21329 19209,20079 19209,20069 19219,20069 19639,20069 19639,20089 19229,20089 19229,21319 19642,21319 "/>
  <polygon class="fil0" points="20563,23082 20904,23082 20904,23102 20563,23102 "/>
  <polygon class="fil0" points="20884,22426 20884,12697 20904,12697 20904,22426 "/>
  <polyline class="fil1 str0" points="20829,22363 21020,22363 25743,22363 "/>
  <polygon class="fil0" points="27826,24867 27826,24644 27322,24644 27312,24644 27312,24634 27312,3679 19800,3679 19790,3679 19790,3669 19790,2927 18525,2927 18525,3690 18525,3700 18515,3700 15443,3700 15433,3700 15433,3690 15441,1675 15461,1675 15453,3680 18505,3680 18505,2917 18505,2907 18515,2907 19800,2907 19810,2907 19810,2917 19810,3659 27322,3659 27332,3659 27332,3669 27332,24624 27836,24624 27846,24624 27846,24634 27846,24867 "/>
  <polygon class="fil0" points="14868,1675 14868,3685 14868,3695 14858,3695 11768,3695 11758,3695 11758,3685 11752,1675 11772,1675 11778,3675 14848,3675 14848,1675 "/>
  <polygon class="fil0" points="11217,1675 11217,3695 11217,3705 11207,3705 7614,3705 7604,3705 7604,3695 7604,2927 6338,2927 6338,3679 6338,3689 6328,3689 1475,3689 1475,3669 6318,3669 6318,2917 6318,2907 6328,2907 7614,2907 7624,2907 7624,2917 7624,3685 11197,3685 11197,1675 "/>
  <path class="fil0" d="M1409 10241l539 0 10 0 0 10 0 1161 3583 0 0 20 -3593 0 -10 0 0 -10 0 -1161 -529 0 0 -20zm4888 1171l20690 0 0 -7190 -25578 0 0 -20 25588 0 10 0 0 10 0 7210 0 10 -10 0 -20700 0 0 -20z"/>
  <path class="fil0" d="M26963 27775l0 -316 20 0 0 316 -20 0zm0 -984l0 -277 0 -10 10 0 1318 0 0 20 -1308 0 0 267 -20 0z"/>
  <polygon class="fil0" points="18946,22426 18421,22426 18421,22406 18946,22406 "/>
  <polygon class="fil0" points="18955,21550 18955,22426 18935,22426 18935,21550 "/>
  <path class="fil0" d="M18472 14062l456 0 10 0 0 10 0 787 203 0 0 20 -213 0 -10 0 0 -10 0 -787 -446 0 0 -20zm-77 -1360l-47 0 0 -20 47 0 0 20z"/>
  <path class="fil0" d="M27714 26160l-1075 0 0 -20 1075 0 0 20zm-1551 0l-791 0 -10 0 0 -10 0 -1283 0 -10 10 0 2078 0 0 20 -2068 0 0 1263 781 0 0 20zm1551 -1303l577 0 0 20 -577 0 0 -20z"/>
  <polyline class="fil1" points="1409,1672 1409,14001 6330,14001 6330,12711 18415,12711 "/>
  <path class="fil0" d="M1484 1672l0 12254 4771 0 0 -1215 0 -75 75 0 76 0 0 150 -1 0 0 1215 0 75 -75 0 -4921 0 -75 0 0 -75 0 -12329 150 0zm6020 10961l10911 3 0 150 -10912 0 1 -153z"/>
  <path class="fil0" d="M18490 12636l0 15306c1093,-63 2329,-114 3711,-155 1412,-42 2974,-73 4687,-92l6 0 0 0c402,31 711,-52 929,-249 218,-197 349,-514 393,-948l0 -24748 -26882 0 0 -150 26957 0 75 0 0 75 0 24824 0 2 -1 6c-46,475 -194,825 -442,1050 -250,226 -596,322 -1039,287 -1708,20 -3268,50 -4679,92 -1409,42 -2671,95 -3786,160l-79 4 0 -79 0 -15385 150 0z"/>
  <path class="fil2" d="M27293 26944c-3,0 -5,2 -5,4 0,23 9,265 9,275 0,2 2,4 4,4 0,0 0,0 1,0 2,0 4,-2 4,-4 0,-3 -9,-252 -9,-275 0,-2 -2,-4 -4,-4z"/>
  <path class="fil2" d="M27330 27060c-7,0 -12,5 -12,13l0 150c0,2 2,4 5,4 2,0 4,-2 4,-4l0 -150c0,-4 2,-4 3,-4 1,0 3,0 3,4l0 150c0,2 2,4 5,4 2,0 4,-2 4,-4l0 -150c0,-8 -5,-13 -12,-13z"/>
  <path class="fil2" d="M27367 26944c-2,0 -4,2 -4,4 0,23 -9,272 -9,275 0,2 2,4 4,4 1,0 1,0 1,0 2,0 4,-2 4,-4 0,-10 9,-252 9,-275 0,-2 -2,-4 -5,-4z"/>
  <path class="fil2" d="M27381 26912c-6,-6 -37,-8 -51,-8 -14,0 -45,2 -52,8 -12,12 -17,34 -17,141 0,3 2,5 5,5 2,0 4,-2 4,-5 0,-102 5,-125 14,-134 3,-2 24,-6 46,-6 22,0 42,4 45,6 10,9 14,32 14,134 0,3 2,5 5,5 2,0 4,-2 4,-5 0,-107 -5,-129 -17,-141z"/>
  <path class="fil2" d="M27329 26849c8,0 15,7 15,15 0,8 -7,14 -15,15 -8,-1 -14,-7 -14,-15 0,-8 6,-15 14,-15zm0 38c0,0 0,0 0,0 0,0 0,0 0,0 0,0 0,0 0,0 0,0 0,0 0,0 13,0 23,-10 23,-23 0,-13 -10,-23 -23,-24 0,0 0,0 0,0 0,0 0,0 0,0 0,0 0,0 0,0 0,0 0,0 0,0 -13,1 -23,11 -23,24 0,13 10,23 23,23z"/>
  <path class="fil2" d="M27570 26958c-4,-4 -9,-6 -15,-6 -6,0 -11,2 -15,6l-29 29c-2,2 -2,5 0,7 1,1 4,1 6,0l29 -30c3,-2 6,-3 9,-3 3,0 6,1 9,3l29 30c1,0 2,1 3,1 1,0 3,-1 3,-1 2,-2 2,-5 0,-7l-29 -29z"/>
  <path class="fil2" d="M27593 27097l-29 29c-3,3 -6,4 -9,4 -3,0 -6,-1 -9,-4l-29 -29c-2,-2 -5,-2 -6,0 -2,1 -2,4 0,6l29 29c4,4 9,6 15,6 6,0 11,-2 15,-6l29 -29c2,-2 2,-5 0,-6 -1,-2 -4,-2 -6,0z"/>
  <path class="fil2" d="M27625 27207c0,6 -5,12 -12,12l-118 0c-7,0 -12,-6 -12,-12l0 -337c0,-7 5,-13 12,-13l118 0c7,0 12,6 12,13l0 337zm-12 -358l-118 0c-12,0 -21,9 -21,21l0 337c0,11 9,21 21,21l118 0c11,0 21,-10 21,-21l0 -337c0,-12 -10,-21 -21,-21z"/>
  <path class="fil0" d="M27160 26673l575 0c20,0 38,9 51,22l0 0c14,13 22,31 22,52l0 574c0,21 -8,39 -22,52 -13,13 -31,22 -51,22l-575 0c-20,0 -38,-9 -52,-22 -13,-13 -21,-31 -21,-52l0 -574c0,-21 8,-39 21,-52l0 0c14,-13 32,-22 52,-22zm575 12l-575 0c-17,0 -33,7 -44,18l0 0c-11,11 -18,26 -18,44l0 574c0,18 7,33 18,44 11,11 27,18 44,18l575 0c17,0 32,-7 44,-18 11,-11 18,-26 18,-44l0 -574c0,-18 -7,-33 -18,-44l0 0c-12,-11 -27,-18 -44,-18z"/>
  <path class="fil2" d="M22085 11764c-2,0 -4,2 -4,4 0,23 8,264 8,275 0,2 2,4 5,4 0,0 0,0 0,0 2,0 4,-2 4,-5 0,-2 -9,-251 -9,-274 0,-2 -1,-4 -4,-4z"/>
  <path class="fil2" d="M22122 11880c-6,0 -11,5 -11,12l0 151c0,2 2,4 4,4 2,0 4,-2 4,-4l0 -151c0,-3 2,-3 3,-3 1,0 4,0 4,3l0 151c0,2 1,4 4,4 2,0 4,-2 4,-4l0 -151c0,-7 -5,-12 -12,-12z"/>
  <path class="fil2" d="M22160 11764c-3,0 -5,2 -5,4 0,23 -8,272 -8,274 0,3 1,5 4,5 0,0 0,0 0,0 2,0 4,-2 4,-4 1,-11 9,-252 9,-275 0,-2 -2,-4 -4,-4z"/>
  <path class="fil2" d="M22174 11732c-7,-6 -38,-8 -52,-8 -14,0 -45,2 -51,8 -12,12 -17,34 -17,141 0,3 2,5 4,5 2,0 4,-2 4,-5 0,-102 5,-126 14,-134 3,-3 24,-6 46,-6 22,0 43,3 46,6 9,8 14,32 14,134 0,3 2,5 4,5 3,0 5,-2 5,-5 0,-107 -5,-129 -17,-141z"/>
  <path class="fil2" d="M22122 11669c8,0 14,7 14,15 0,8 -6,14 -14,14 -8,0 -15,-6 -15,-14 0,-8 7,-15 15,-15zm0 38c0,0 0,0 0,0 0,0 0,0 0,0 0,0 0,0 0,0 0,0 0,0 0,0 12,0 23,-11 23,-23 0,-13 -11,-24 -23,-24 0,0 0,0 0,0 0,0 0,0 0,0 0,0 0,0 0,0 0,0 0,0 0,0 -13,0 -24,11 -24,24 0,12 11,23 24,23z"/>
  <path class="fil2" d="M22362 11778c-4,-4 -9,-6 -15,-6 -5,0 -10,2 -14,6l-30 29c-2,2 -2,5 0,6 2,2 5,2 6,0l30 -29c2,-2 5,-4 8,-4 4,0 7,2 9,4l30 29c0,1 2,2 3,2 1,0 2,-1 3,-2 1,-1 1,-4 0,-6l-30 -29z"/>
  <path class="fil2" d="M22386 11917l-30 29c-2,2 -5,4 -9,4 -3,0 -6,-2 -8,-4l-30 -29c-1,-2 -4,-2 -6,0 -2,1 -2,4 0,6l30 29c4,4 9,6 14,6 6,0 11,-2 15,-6l30 -29c1,-2 1,-5 0,-6 -2,-2 -5,-2 -6,0z"/>
  <path class="fil2" d="M22417 12027c0,6 -5,12 -12,12l-118 0c-7,0 -12,-6 -12,-12l0 -338c0,-6 5,-12 12,-12l118 0c7,0 12,6 12,12l0 338zm-12 -358l-118 0c-11,0 -21,9 -21,20l0 338c0,11 10,20 21,20l118 0c12,0 21,-9 21,-20l0 -338c0,-11 -9,-20 -21,-20z"/>
  <path class="fil0" d="M21952 11493l575 0c20,0 39,9 52,22l0 0c13,13 21,31 21,51l0 575c0,20 -8,39 -21,52 -13,13 -32,21 -52,21l-575 0c-20,0 -38,-8 -51,-21 -13,-13 -22,-32 -22,-52l0 -575c0,-20 9,-38 22,-51l0 0c13,-13 31,-22 51,-22zm575 11l-575 0c-17,0 -32,7 -43,19l0 0c-12,11 -19,26 -19,43l0 575c0,17 7,33 19,44 11,11 26,18 43,18l575 0c17,0 33,-7 44,-18 11,-11 18,-27 18,-44l0 -575c0,-17 -7,-32 -18,-43l0 0c-11,-12 -27,-19 -44,-19z"/>
  <path class="fil2" d="M6582 3242c-3,0 -5,2 -5,5 0,22 9,264 9,274 0,3 2,4 4,4 0,0 1,0 1,0 2,0 4,-2 4,-4 0,-3 -9,-252 -9,-274 0,-3 -2,-5 -4,-5z"/>
  <path class="fil2" d="M6619 3358c-7,0 -12,5 -12,13l0 150c0,2 2,4 5,4 2,0 4,-2 4,-4l0 -150c0,-4 2,-4 3,-4 1,0 3,0 3,4l0 150c0,2 2,4 5,4 2,0 4,-2 4,-4l0 -150c0,-8 -5,-13 -12,-13z"/>
  <path class="fil2" d="M6656 3242c-2,0 -4,2 -4,5 0,22 -9,271 -9,274 0,2 2,4 4,4 1,0 1,0 1,0 2,0 4,-1 4,-4 0,-10 9,-252 9,-274 0,-3 -2,-5 -5,-5z"/>
  <path class="fil2" d="M6670 3211c-6,-6 -37,-8 -51,-8 -14,0 -45,2 -52,8 -12,11 -17,33 -17,141 0,2 2,4 5,4 2,0 4,-2 4,-4 0,-103 5,-126 14,-135 3,-2 24,-6 46,-6 22,0 42,4 45,6 10,9 14,32 14,135 0,2 2,4 5,4 2,0 4,-2 4,-4 0,-108 -5,-130 -17,-141z"/>
  <path class="fil2" d="M6618 3147c8,1 15,7 15,15 0,8 -7,15 -15,15 -8,0 -14,-7 -14,-15 0,-8 6,-14 14,-15zm0 39c0,0 0,0 0,0 0,0 0,0 0,0 0,0 0,0 0,0 0,0 0,0 0,0 13,-1 23,-11 23,-24 0,-13 -10,-23 -23,-23 0,0 0,0 0,0 0,0 0,0 0,0 0,0 0,0 0,0 0,0 0,0 0,0 -13,0 -23,10 -23,23 0,13 10,23 23,24z"/>
  <path class="fil2" d="M6859 3256c-4,-4 -9,-6 -15,-6 -5,0 -11,2 -15,6l-29 30c-2,1 -2,4 0,6 1,2 4,2 6,0l30 -30c2,-2 5,-3 8,-3 3,0 6,1 9,3l29 30c1,1 2,1 3,1 1,0 3,0 3,-1 2,-2 2,-5 0,-6l-29 -30z"/>
  <path class="fil2" d="M6882 3395l-29 30c-3,2 -6,3 -9,3 -3,0 -6,-1 -8,-3l-30 -30c-2,-2 -5,-2 -6,0 -2,2 -2,4 0,6l29 30c4,4 10,6 15,6 6,0 11,-2 15,-6l29 -30c2,-2 2,-4 0,-6 -1,-2 -4,-2 -6,0z"/>
  <path class="fil2" d="M6914 3505c0,7 -5,12 -12,12l-118 0c-7,0 -12,-5 -12,-12l0 -337c0,-7 5,-12 12,-12l118 0c7,0 12,5 12,12l0 337zm-12 -358l-118 0c-12,0 -21,9 -21,21l0 337c0,11 9,21 21,21l118 0c11,0 21,-10 21,-21l0 -337c0,-12 -10,-21 -21,-21z"/>
  <path class="fil0" d="M6449 2972l575 0c20,0 38,8 52,21l0 0c13,13 21,32 21,52l0 575c0,20 -8,38 -21,51 -14,14 -32,22 -52,22l-575 0c-20,0 -38,-8 -52,-22 -13,-13 -21,-31 -21,-51l0 -575c0,-20 8,-39 21,-52l0 0c14,-13 32,-21 52,-21zm575 11l-575 0c-17,0 -33,7 -44,18l0 0c-11,11 -18,27 -18,44l0 575c0,17 7,32 18,44 11,11 27,18 44,18l575 0c17,0 32,-7 44,-18 11,-12 18,-27 18,-44l0 -575c0,-17 -7,-33 -18,-44l0 0c-11,-11 -27,-18 -44,-18z"/>
  <g id="_1081297680">
   <path class="fil3" d="M18759 25203c-3,0 -5,2 -5,5 0,22 9,264 9,274 0,3 2,4 4,4 1,0 1,0 1,0 2,0 4,-2 4,-4 0,-3 -9,-252 -9,-274 0,-3 -2,-5 -4,-5z"/>
   <path class="fil3" d="M18796 25319c-7,0 -12,5 -12,13l0 150c0,3 2,4 5,4 2,0 4,-1 4,-4l0 -150c0,-4 2,-4 3,-4 1,0 3,0 3,4l0 150c0,3 2,4 5,4 2,0 4,-1 4,-4l0 -150c0,-8 -5,-13 -12,-13z"/>
   <path class="fil3" d="M18833 25203c-2,0 -4,2 -4,5 0,22 -9,271 -9,274 0,2 2,4 5,4 0,0 0,0 0,0 2,0 4,-1 4,-4 0,-10 9,-252 9,-274 0,-3 -2,-5 -5,-5z"/>
   <path class="fil3" d="M18847 25172c-6,-6 -37,-8 -51,-8 -14,0 -45,2 -52,8 -12,11 -17,33 -17,141 0,2 2,4 5,4 2,0 4,-2 4,-4 0,-103 5,-126 14,-135 3,-2 24,-6 46,-6 22,0 43,4 45,6 10,9 14,32 14,135 0,2 2,4 5,4 2,0 4,-2 4,-4 0,-108 -5,-130 -17,-141z"/>
   <path class="fil3" d="M18795 25109c8,0 15,6 15,14 0,8 -7,15 -15,15 -8,0 -14,-7 -14,-15 0,-8 6,-14 14,-14zm0 38c0,0 0,0 0,0 0,0 0,0 0,0 0,0 0,0 0,0 0,0 0,0 0,0 13,-1 24,-11 24,-24 0,-13 -11,-23 -24,-23 0,0 0,0 0,0 0,0 0,0 0,0 0,0 0,0 0,0 0,0 0,0 0,0 -13,0 -23,10 -23,23 0,13 10,23 23,24z"/>
   <path class="fil3" d="M19036 25217c-4,-4 -9,-6 -15,-6 -5,0 -11,2 -15,6l-29 30c-2,2 -2,4 0,6 2,2 4,2 6,0l30 -30c2,-2 5,-3 8,-3 3,0 6,1 9,3l29 30c1,1 2,1 3,1 1,0 3,0 3,-1 2,-2 2,-4 0,-6l-29 -30z"/>
   <path class="fil3" d="M19059 25356l-29 30c-3,2 -6,3 -9,3 -3,0 -6,-1 -8,-3l-30 -30c-2,-2 -4,-2 -6,0 -2,2 -2,4 0,6l29 30c4,4 10,6 15,6 6,0 11,-2 15,-6l29 -30c2,-2 2,-4 0,-6 -1,-2 -4,-2 -6,0z"/>
   <path class="fil3" d="M19091 25466c0,7 -5,12 -12,12l-118 0c-7,0 -12,-5 -12,-12l0 -337c0,-7 5,-12 12,-12l118 0c7,0 12,5 12,12l0 337zm-12 -358l-118 0c-12,0 -21,9 -21,21l0 337c0,12 9,21 21,21l118 0c11,0 21,-9 21,-21l0 -337c0,-12 -10,-21 -21,-21z"/>
   <path class="fil1 str1" d="M18626 24938l575 0c37,0 68,31 68,68l0 575c0,37 -31,67 -68,67l-575 0c-37,0 -67,-30 -67,-67l0 -575c0,-37 30,-68 67,-68z"/>
  </g>
  <path class="fil2" d="M26380 25624c-2,0 -3,-1 -3,-3l0 -301c0,-1 1,-3 3,-3 2,0 4,2 4,3l0 301c0,2 -2,3 -4,3z"/>
  <path class="fil2" d="M26244 25617c-1,0 -3,-2 -3,-3 0,-8 -7,-195 -7,-213 0,-2 2,-3 4,-3 2,0 3,1 3,3 0,17 7,210 7,212 0,2 -2,4 -4,4 0,0 0,0 0,0z"/>
  <path class="fil2" d="M26272 25617c-1,0 -3,-2 -3,-3l0 -117c0,-3 -2,-3 -2,-3 -1,0 -3,0 -3,3l0 117c0,1 -1,3 -3,3 -2,0 -4,-2 -4,-3l0 -117c0,-6 4,-10 10,-10 5,0 9,4 9,10l0 117c0,1 -2,3 -4,3z"/>
  <path class="fil2" d="M26289 25617c0,0 0,0 0,0 -2,0 -4,-2 -4,-4 0,-2 7,-195 7,-212 0,-2 2,-3 3,-3 2,0 4,1 4,3 0,18 -7,205 -7,213 0,1 -1,3 -3,3z"/>
  <path class="fil2" d="M26316 25486c-2,0 -3,-2 -3,-4 0,-79 -4,-97 -11,-104 -3,-2 -19,-4 -36,-4 -17,0 -33,2 -35,4 -7,7 -11,25 -11,104 0,2 -1,4 -3,4 -2,0 -4,-2 -4,-4 0,-83 4,-100 13,-109 5,-5 29,-6 40,-6 11,0 35,1 40,6 9,9 13,26 13,109 0,2 -1,4 -3,4z"/>
  <path class="fil2" d="M26266 25347c-6,0 -11,-5 -11,-11 0,-7 5,-12 11,-12 6,0 11,5 11,12 0,6 -5,11 -11,11zm0 -30c0,0 0,0 0,0 0,0 0,0 0,0 0,0 0,0 0,0 -10,0 -18,9 -18,19 0,9 8,18 18,18 0,0 0,0 0,0l0 0c0,0 0,0 0,0 10,0 18,-9 18,-18 0,-10 -8,-19 -18,-19z"/>
  <path class="fil2" d="M26545 25453c-15,-15 -17,-32 -18,-46 -1,-11 -2,-21 -11,-25 -7,-4 -14,-4 -21,-4 -2,0 -3,0 -4,0 0,0 0,0 0,0 0,0 0,0 0,0l0 0c-1,0 -2,0 -4,0 -8,0 -14,0 -21,4 -9,4 -10,14 -11,25 -1,14 -3,31 -18,46 -1,2 -1,4 0,5 1,1 1,1 2,1 1,0 2,0 3,-1 16,-16 18,-36 20,-50 1,-11 2,-18 7,-20 5,-3 11,-3 18,-3 1,0 3,0 4,0l0 0c0,0 0,0 0,0l0 0c1,0 2,0 4,0 7,0 13,0 18,3 5,2 6,9 7,20 2,14 4,34 20,50 1,1 2,1 3,1 0,0 1,0 2,-1 1,-1 1,-3 0,-5z"/>
  <path class="fil2" d="M26491 25361c-6,0 -11,-6 -11,-12 0,-6 5,-11 11,-11 6,0 11,5 11,11 0,6 -5,12 -11,12zm0 -30c0,0 0,0 0,0 0,0 0,0 0,0 0,0 0,0 0,0 -10,0 -18,8 -18,18 0,10 8,18 18,18 0,0 0,0 0,0l0 0c0,0 0,0 0,0 0,0 0,0 0,0 10,0 18,-8 18,-18 0,-10 -8,-18 -18,-18z"/>
  <path class="fil2" d="M26599 25624c-1,0 -3,-1 -3,-3l0 -301c0,-1 2,-3 3,-3 2,0 4,2 4,3l0 301c0,2 -2,3 -4,3z"/>
  <path class="fil2" d="M26735 25417c-7,0 -12,5 -12,12 0,7 5,12 12,12 6,0 12,-5 12,-12 0,-7 -6,-12 -12,-12zm0 30c-10,0 -18,-8 -18,-18 0,-10 8,-18 18,-18 9,0 17,8 17,18 0,10 -8,18 -17,18z"/>
  <path class="fil2" d="M26726 25606c-32,0 -58,-25 -58,-57 0,-14 6,-28 15,-39 1,-1 3,-1 4,0 2,1 2,3 1,4 -9,10 -14,22 -14,35 0,28 23,51 52,51 28,0 51,-23 51,-51 0,-3 0,-6 0,-9 0,-1 1,-3 2,-3 2,0 3,1 4,2 0,3 0,7 0,10 0,32 -25,57 -57,57z"/>
  <path class="fil2" d="M26810 25588c-1,0 -3,-1 -3,-2l-21 -55c-2,-3 -5,-5 -8,-4l-13 2c-6,1 -13,0 -17,-2 -4,-2 -8,-8 -9,-14l-7 -42c-1,-3 -4,-8 -7,-9l-7 -3c-3,-1 -8,0 -10,2l-19 20c-2,3 -2,6 0,8l23 23c1,2 1,3 0,5 -1,1 -3,1 -4,0l-23 -23c-5,-5 -5,-12 0,-17l19 -20c4,-4 11,-6 16,-3l7 3c5,2 10,8 11,13l7 42c1,4 3,8 6,10 3,1 9,2 13,1l12 -2c6,-1 13,2 15,8l21 55c1,1 0,3 -1,4 -1,0 -1,0 -1,0z"/>
  <path class="fil2" d="M26511 25445c-1,0 -1,-1 -1,-1 -6,-7 -5,-13 0,-22 5,-9 6,-13 1,-20 -1,-2 -3,-2 -5,-1 -1,1 -2,3 -1,5 3,4 3,5 -1,13 -3,6 -9,17 0,29 1,1 1,1 2,2 8,9 20,24 19,61l-69 0c-1,-37 12,-52 19,-61 1,-1 1,-1 2,-2 10,-12 3,-23 0,-29 -4,-8 -4,-9 -1,-13 1,-2 0,-4 -1,-5 -2,-1 -4,0 -5,1 -4,8 -4,12 1,20 5,9 6,15 1,22 -1,0 -1,1 -2,1 -8,10 -23,27 -21,70 0,2 2,3 4,3l18 0c2,13 11,73 11,94 0,2 2,4 4,4 2,0 3,-2 3,-4 0,-22 -8,-79 -11,-94l25 0c-3,15 -11,72 -11,94 0,2 1,4 3,4 2,0 3,-2 3,-4 0,-21 9,-81 12,-94l19 0c1,0 3,-1 3,-3 2,-43 -13,-60 -21,-70z"/>
  <path class="fil0" d="M26225 25106l575 0c21,0 41,9 55,23 14,14 22,33 22,54l0 575c0,21 -8,41 -22,55 -14,14 -34,22 -55,22l-575 0c-21,0 -40,-8 -54,-22l0 0c-14,-14 -23,-34 -23,-55l0 -575c0,-21 9,-40 23,-54l0 0c14,-14 33,-23 54,-23zm575 19l-575 0c-16,0 -30,7 -41,17l0 0c-10,11 -17,25 -17,41l0 575c0,16 7,31 17,41l0 0c11,11 25,17 41,17l575 0c16,0 31,-6 41,-17 11,-10 17,-25 17,-41l0 -575c0,-16 -6,-30 -17,-41 -10,-10 -25,-17 -41,-17z"/>
  <path class="fil2" d="M19522 20847c-2,0 -3,-1 -3,-3l0 -301c0,-1 1,-3 3,-3 2,0 4,2 4,3l0 301c0,2 -2,3 -4,3z"/>
  <path class="fil2" d="M19387 20840c-2,0 -4,-2 -4,-3 0,-8 -6,-195 -6,-213 0,-2 1,-3 3,-3 2,0 3,1 3,3 0,17 7,210 7,212 0,2 -1,4 -3,4 0,0 0,0 0,0z"/>
  <path class="fil2" d="M19415 20840c-2,0 -4,-2 -4,-3l0 -117c0,-3 -2,-3 -2,-3 -1,0 -3,1 -3,3l0 117c0,1 -1,3 -3,3 -2,0 -3,-2 -3,-3l0 -117c0,-6 3,-10 9,-10 5,0 9,4 9,10l0 117c0,1 -2,3 -3,3z"/>
  <path class="fil2" d="M19431 20840c0,0 0,0 0,0 -2,0 -3,-2 -3,-4 0,-2 6,-195 6,-212 0,-2 2,-3 4,-3 2,0 3,1 3,3 0,18 -6,205 -7,213 0,1 -1,3 -3,3z"/>
  <path class="fil2" d="M19458 20709c-2,0 -3,-2 -3,-4 0,-79 -4,-97 -11,-104 -2,-2 -19,-4 -35,-4 -17,0 -34,2 -36,4 -7,7 -11,25 -11,104 0,2 -1,4 -3,4 -2,0 -3,-2 -3,-4 0,-83 3,-100 13,-109 5,-5 29,-6 40,-6 10,0 35,1 39,6 10,9 14,26 14,109 0,2 -2,4 -4,4z"/>
  <path class="fil2" d="M19408 20570c-6,0 -11,-5 -11,-11 0,-7 5,-12 11,-12 6,0 11,5 11,12 0,6 -5,11 -11,11zm0 -30c0,0 0,0 0,0 0,0 0,0 0,0 0,0 0,0 0,0 -10,0 -18,9 -18,19 0,9 8,18 18,18 0,0 0,0 0,0l0 0c0,0 0,0 0,0 10,0 18,-9 18,-18 0,-10 -8,-19 -18,-19z"/>
  <path class="fil2" d="M19687 20676c-15,-15 -16,-32 -18,-46 -1,-11 -2,-21 -10,-25 -7,-4 -14,-4 -22,-4 -1,0 -3,0 -4,0 0,0 0,0 0,0 0,0 0,0 0,0l0 0c-1,0 -2,0 -3,0 -8,0 -15,0 -22,4 -8,4 -10,14 -11,25 -1,14 -3,31 -18,46 -1,2 -1,4 0,5 1,1 2,1 3,1 0,0 1,0 2,-1 17,-16 19,-36 20,-50 1,-11 2,-18 7,-20 5,-3 11,-3 19,-3 1,0 2,0 3,0l0 0c0,0 0,0 0,0l0 0c1,0 3,0 4,0 7,0 13,0 18,3 5,2 6,9 7,20 2,14 4,34 20,50 1,1 2,1 3,1 1,0 2,0 2,-1 2,-1 2,-3 0,-5z"/>
  <path class="fil2" d="M19633 20584c-6,0 -11,-6 -11,-12 0,-6 5,-11 11,-11 6,0 12,5 12,11 0,6 -6,12 -12,12zm0 -30c0,0 0,0 0,0 0,0 0,0 0,0 0,0 0,0 0,0 -10,0 -18,8 -18,18 0,10 8,18 18,19 0,0 0,0 0,0l0 0c0,0 0,0 0,0 0,0 0,0 0,0 10,-1 18,-9 18,-19 0,-10 -8,-18 -18,-18z"/>
  <path class="fil2" d="M19742 20847c-2,0 -4,-1 -4,-3l0 -301c0,-1 2,-3 4,-3 1,0 3,2 3,3l0 301c0,2 -2,3 -3,3z"/>
  <path class="fil2" d="M19877 20640c-7,0 -12,5 -12,12 0,7 5,12 12,12 6,0 12,-5 12,-12 0,-7 -6,-12 -12,-12zm0 30c-10,0 -18,-8 -18,-18 0,-10 8,-18 18,-18 10,0 18,8 18,18 0,10 -8,18 -18,18z"/>
  <path class="fil2" d="M19868 20829c-32,0 -57,-25 -57,-57 0,-14 5,-28 14,-39 2,-1 3,-1 5,0 1,1 1,3 0,4 -9,10 -13,22 -13,35 0,28 23,51 51,51 29,0 52,-23 52,-51 0,-3 0,-6 -1,-9 0,-1 1,-3 2,-3 2,0 4,1 4,2 0,3 1,7 1,10 0,32 -26,57 -58,57z"/>
  <path class="fil2" d="M19952 20811c-1,0 -2,-1 -3,-2l-21 -55c-1,-3 -5,-5 -8,-4l-13 2c-5,1 -13,0 -17,-2 -4,-2 -8,-8 -9,-14l-7 -42c0,-3 -4,-8 -7,-9l-7 -3c-3,-1 -8,0 -10,2l-19 20c-2,3 -2,6 0,8l23 23c1,2 1,3 0,5 -1,1 -3,1 -4,0l-23 -23c-4,-5 -4,-12 0,-17l19 -20c4,-4 11,-6 17,-3l6 3c5,2 10,8 11,13l7 42c1,4 4,8 6,10 3,2 9,2 13,1l13 -2c6,-1 12,2 14,8l22 55c0,2 0,3 -2,4 0,0 -1,0 -1,0z"/>
  <path class="fil2" d="M19653 20668c0,0 -1,-1 -1,-1 -6,-7 -4,-13 0,-22 5,-9 6,-13 1,-20 -1,-2 -3,-2 -5,-1 -1,1 -2,3 0,5 2,4 3,5 -2,13 -3,6 -9,17 1,29 0,1 1,1 1,2 8,9 21,24 19,61l-69 0c-1,-37 12,-52 20,-61 0,-1 1,-1 1,-2 10,-12 4,-23 0,-29 -4,-8 -3,-9 -1,-13 1,-2 1,-4 -1,-5 -1,-1 -4,0 -5,1 -4,8 -3,12 1,20 5,9 7,15 1,22 -1,0 -1,1 -1,1 -9,10 -24,27 -21,70 0,2 1,3 3,3l18 0c3,13 12,73 12,94 0,2 1,4 3,4 2,0 3,-2 3,-4 0,-22 -8,-79 -11,-94l25 0c-3,15 -11,72 -11,94 0,2 1,4 3,4 2,0 4,-2 4,-4 0,-21 9,-81 11,-94l19 0c2,0 3,-1 3,-3 2,-43 -13,-60 -21,-70z"/>
  <path class="fil0" d="M19368 20329l575 0c21,0 40,9 54,23 14,14 23,33 23,54l0 575c0,21 -9,41 -23,55 -14,14 -33,22 -54,22l-575 0c-21,0 -41,-8 -55,-22l0 0c-14,-14 -22,-34 -22,-55l0 -575c0,-21 8,-40 22,-54l0 0c14,-14 34,-23 55,-23zm575 19l-575 0c-16,0 -31,7 -41,17l0 0c-11,11 -17,25 -17,41l0 575c0,16 6,31 17,41l0 0c10,11 25,17 41,17l575 0c16,0 30,-6 41,-17 10,-10 17,-25 17,-41l0 -575c0,-16 -7,-30 -17,-41 -11,-10 -25,-17 -41,-17z"/>
  <g id="_1248576432">
   <path class="fil3" d="M23194 25305l1 0 0 0c11,-1 20,-3 27,-7 9,-5 15,-12 19,-20 1,-3 2,-7 3,-10 1,-3 1,-6 1,-10 0,-3 0,-6 -1,-9 -1,-4 -1,-7 -3,-10 -3,-8 -9,-15 -17,-20 -8,-4 -17,-7 -28,-7 -4,0 -8,0 -12,0l-1 0c-8,0 -16,-1 -24,0 -1,0 -2,0 -3,0 -1,0 -2,1 -3,1 -1,1 -2,1 -3,2 -1,0 -2,1 -2,1l-127 127c-14,14 -28,28 -42,42l-21 22 -16 16c-5,5 -11,11 -16,16 -5,5 -11,10 -16,16 -6,5 -11,10 -16,15 -1,1 -1,1 -2,2 0,0 -1,1 -2,1 0,0 -1,1 -1,1 -1,0 -2,1 -2,1 -1,0 -2,1 -2,1 -1,0 -2,0 -2,1 -1,0 -2,0 -3,0 0,0 -1,0 -2,0l-27 0c-13,0 -24,3 -32,7 -9,5 -16,12 -20,20 -1,3 -2,6 -3,9 -1,3 -1,7 -1,10 0,3 0,6 1,10 0,3 2,6 3,9 4,8 11,15 20,20 8,5 18,8 31,8l0 0 78 0c1,0 1,0 1,0 1,0 1,-1 1,-1l0 0c1,0 1,0 1,-1 0,0 0,0 0,-1l0 -39c0,-1 0,-3 1,-4 0,-1 1,-3 2,-4l0 0c1,-1 3,-2 4,-3 1,0 3,0 4,0l39 0c1,0 1,0 1,-1 1,0 1,0 1,0l0 0c1,0 1,-1 1,-1 0,0 0,-1 0,-1l0 -39c0,-1 0,-3 1,-4 1,-2 1,-3 2,-4 1,-1 3,-2 4,-2 1,-1 3,-1 4,-1l39 0c1,0 1,0 1,0 1,0 1,-1 1,-1 1,0 1,0 1,-1 0,0 0,0 0,-1l0 -39c0,-1 0,-3 1,-4 0,-2 1,-3 2,-4l0 0c1,-1 3,-2 4,-3 1,0 3,0 4,0l40 0c0,0 0,0 1,-1 0,0 0,0 0,0l1 0c0,0 0,-1 0,-1 0,0 0,-1 0,-1l0 -39c0,-2 1,-3 1,-4 1,-2 1,-3 2,-4l1 0c1,-1 2,-2 3,-3 1,0 3,-1 4,-1l40 0c0,0 0,0 1,0 0,0 0,0 0,0l1 -1c0,0 0,0 0,0 0,-1 0,-1 0,-1l0 -39c0,-2 1,-3 1,-5 1,-1 1,-2 3,-3 1,-1 2,-2 3,-2 2,-1 3,-1 4,-1l40 0zm-195 -52l-5 0c-1,0 -2,0 -3,1 -1,0 -2,0 -2,1l0 0c-1,1 -1,2 -1,3 -1,1 -1,2 -1,3 -2,34 -3,69 -6,102 0,3 -1,4 -3,5 0,0 -1,0 -2,0 0,0 -1,0 -2,0 -1,-1 -2,-3 -2,-5l6 -102c0,-2 1,-4 1,-6 1,-2 2,-4 3,-5l0 -1c1,-1 3,-3 5,-4 2,0 4,-1 7,-1 4,0 9,0 13,0 5,-1 9,-1 13,-1 3,1 5,1 7,2 2,1 4,2 5,4l0 0c2,1 2,3 3,5 1,2 1,4 1,6l3 42c0,3 -1,5 -2,5 0,1 -1,1 -2,1 0,0 -1,0 -2,0 -1,-1 -3,-3 -3,-5 -1,-14 -2,-28 -3,-42 0,-2 0,-3 -1,-4 0,-1 0,-2 -1,-2l0 -1c0,0 -1,-1 -2,-1 -1,0 -2,0 -3,0 -3,0 -18,0 -21,0zm7 -54c2,0 4,0 6,0 3,1 5,2 6,3 2,2 3,4 4,5 1,2 2,4 2,7 1,2 0,4 0,6 -1,2 -2,4 -3,6 -2,2 -3,3 -5,4 -2,1 -4,2 -7,2 -2,1 -4,0 -6,0 -2,-1 -4,-2 -6,-3 -2,-2 -3,-3 -4,-5 -1,-2 -2,-4 -2,-7 0,-2 0,-4 0,-6 1,-2 2,-4 3,-6 2,-2 4,-3 6,-4 1,-1 4,-2 6,-2zm7 10c-1,0 -2,-1 -3,-1 -1,0 -2,0 -3,0 -1,0 -2,0 -3,1 -1,0 -2,1 -2,2 -1,0 -2,1 -2,2 0,1 0,2 0,3 0,1 0,2 1,3 0,1 1,2 2,3 0,0 1,1 2,1 1,0 2,0 3,0 1,0 2,0 3,-1 1,0 2,-1 3,-2 0,0 1,-1 1,-2 0,-1 0,-2 0,-3 0,-1 0,-2 -1,-3 0,-1 -1,-2 -1,-3zm182 104l0 0 0 0c-13,0 -27,0 -41,0 0,0 0,0 -1,0 0,0 0,1 0,1l-1 0c0,0 0,0 0,1 0,0 0,0 0,1l0 39c0,1 0,3 -1,4 -1,2 -1,3 -2,4 -1,1 -3,2 -4,2 -1,1 -3,1 -4,1l-40 0c0,0 0,0 -1,1 0,0 0,0 0,0l-1 0c0,0 0,1 0,1 0,0 0,1 0,1l0 39c0,1 -1,3 -1,5 -1,1 -1,2 -3,3 -1,1 -2,2 -3,3 -1,0 -3,1 -4,1l-40 0c0,0 -1,0 -1,0 0,0 0,0 -1,0l0 1c0,0 0,0 0,0 0,0 0,1 0,1l0 39c0,2 -1,3 -1,5 -1,1 -2,2 -3,3 -1,1 -2,2 -3,3 -2,0 -3,0 -5,0l-39 0c0,0 -1,1 -1,1 0,0 0,0 0,0l-1 0c0,0 0,1 0,1 0,0 0,1 0,1l0 39c0,2 -1,3 -1,4 -1,2 -2,3 -3,4 -1,1 -2,2 -3,3 -2,0 -3,1 -5,1l-39 0c0,0 -1,0 -1,0 0,0 0,0 -1,0l0 1c0,0 0,0 0,0 0,0 0,1 0,1l0 39c0,2 -1,3 -1,5 -1,1 -2,2 -3,3 -1,1 -2,2 -3,3 -2,0 -3,0 -5,0l-78 0 0 0c-14,0 -26,-3 -35,-9 -11,-6 -19,-14 -23,-24 -2,-3 -3,-7 -4,-11 -1,-3 -1,-7 -1,-11 0,-4 0,-8 1,-12 1,-4 2,-7 4,-11 5,-9 12,-17 23,-23 10,-5 22,-8 36,-8l27 0 1 0 2 0 1 -1 1 0 2 -1 1 -1 1 -1 1 -1c6,-5 11,-10 16,-15 6,-5 11,-11 16,-16 6,-5 11,-10 16,-16l16 -16 21 -21c14,-14 28,-29 42,-43l127 -126c1,-1 2,-2 3,-3 2,-1 3,-2 4,-2 2,-1 3,-1 5,-2 1,0 3,0 4,0 9,-1 17,-1 25,-1l1 1c4,0 7,0 12,0 13,0 23,3 32,8 10,6 17,14 21,24 1,3 2,7 3,11 1,4 1,8 1,11 0,4 0,8 -1,12 -1,4 -2,7 -4,11 -4,9 -11,18 -22,24 -8,5 -18,8 -31,8z"/>
   <g>
    <path class="fil4" d="M23307 25039l-575 0 0 -11 575 0 0 0 0 11zm73 62l-11 0 0 0 0 -3 0 -3 0 -3 -1 -3 0 -3 -1 -3 -1 -3 -1 -3 -2 -3 -1 -3 -2 -2 -1 -3 -2 -2 -2 -2 -2 -3 -2 -2 -2 -2 -2 -2 -3 -2 -2 -1 -3 -2 -2 -2 -3 -1 -3 -1 -2 -1 -3 -1 -3 -1 -3 -1 -3 0 -3 -1 -3 0 -4 0 0 -11 4 0 4 1 3 0 4 1 3 0 4 1 3 2 4 1 3 1 3 2 3 2 3 2 3 2 3 2 2 2 3 3 2 2 3 3 2 2 2 3 2 3 1 3 2 4 1 3 2 3 1 3 1 4 1 3 0 4 1 4 0 3 0 4 0 0zm-11 575l0 -575 11 0 0 575 0 0 -11 0zm-62 73l0 -11 0 0 4 0 3 0 3 -1 3 0 3 -1 3 -1 3 -1 2 -1 3 -1 3 -1 2 -2 3 -1 2 -2 3 -2 2 -2 2 -2 2 -2 2 -3 2 -2 2 -2 1 -3 2 -2 1 -3 2 -3 1 -3 1 -3 1 -3 0 -3 1 -3 0 -3 0 -3 0 -3 11 0 0 4 0 3 -1 4 0 4 -1 3 -1 4 -1 3 -2 3 -1 4 -2 3 -1 3 -2 3 -2 3 -2 2 -3 3 -2 2 -3 3 -2 2 -3 2 -3 2 -3 2 -3 2 -3 2 -3 1 -4 1 -3 2 -4 1 -3 0 -4 1 -3 1 -4 0 -4 0 0 0zm-575 -11l575 0 0 11 -575 0 0 0 0 -11zm-72 -62l10 0 0 0 0 3 1 3 0 3 0 3 1 3 1 3 1 3 1 3 1 3 2 3 1 2 2 3 2 2 1 2 2 3 2 2 3 2 2 2 2 2 3 2 2 1 3 2 3 1 2 1 3 1 3 1 3 1 3 1 3 0 3 1 3 0 3 0 0 11 -3 0 -4 0 -4 -1 -3 -1 -4 0 -3 -1 -4 -2 -3 -1 -3 -1 -3 -2 -3 -2 -3 -2 -3 -2 -3 -2 -3 -2 -2 -3 -3 -2 -2 -3 -2 -2 -2 -3 -2 -3 -2 -3 -1 -3 -2 -4 -1 -3 -1 -3 -1 -4 -1 -3 -1 -4 0 -4 0 -3 0 -4 0 0zm10 -575l0 575 -10 0 0 -575 0 0 10 0zm62 -73l0 11 0 0 -3 0 -3 0 -3 1 -3 0 -3 1 -3 1 -3 1 -3 1 -2 1 -3 1 -3 2 -2 2 -3 1 -2 2 -2 2 -3 2 -2 2 -2 3 -1 2 -2 2 -2 3 -1 2 -2 3 -1 3 -1 3 -1 3 -1 3 0 3 -1 3 0 3 -1 3 0 3 -10 0 0 -4 0 -3 0 -4 1 -4 1 -3 1 -4 1 -3 1 -3 2 -3 1 -4 2 -3 2 -3 2 -3 2 -2 2 -3 3 -2 2 -3 3 -2 3 -2 3 -2 3 -2 3 -2 3 -2 3 -1 3 -1 4 -2 3 -1 4 0 3 -1 4 0 4 -1 3 0 0 0z"/>
   </g>
  </g>
  <path class="fil0" d="M7515 12707c0,4 0,133 1,207 0,42 0,75 0,77 6,121 66,289 155,425 76,114 172,206 275,228 5,1 52,2 113,3 114,1 279,2 290,2l6 0 0 6 0 409 -12 0 0 -403c-10,0 -29,0 -55,0l0 403 -12 0 0 -404c-16,0 -35,0 -54,0l0 404 -13 0 0 -404c-16,0 -32,0 -49,0l0 404 -12 0 0 -404c-17,-1 -33,-1 -49,-1l0 405 -12 0 0 -405c-10,0 -19,0 -28,0l-22 -1 0 406 -12 0 0 -406c-19,0 -36,-1 -49,-1l0 407 -12 0 0 -407c-12,-1 -19,-1 -21,-2 -8,-1 -16,-4 -25,-6l1 415 -12 0 -1 -407 -109 407 -12 0 113 -423c-13,-5 -27,-11 -40,-19l-136 442 -13 0 139 -448c-14,-9 -28,-18 -41,-29l-156 477 -13 0 159 -485c-12,-10 -24,-20 -35,-32l-186 517 -12 0 189 -526c-12,-12 -24,-25 -35,-38l-223 564 -13 0 227 -575c-16,-21 -32,-43 -48,-66 -91,-138 -151,-308 -157,-431 0,-2 0,-35 0,-78 -1,-92 -1,-204 -1,-207l12 0z"/>
  <path class="fil0" d="M27749 25399c1,-20 2,-54 2,-95 2,-115 2,-279 2,-290l0 -6 6 0 419 0 0 12 -413 0c0,9 0,29 0,54l413 0 0 12 -413 0c0,17 0,36 0,55l413 0 0 12 -413 0c-1,16 -1,33 -1,50l414 0 0 12 -414 0c0,16 0,33 0,49l414 0 0 12 -415 0c0,10 0,19 0,28l0 22 415 0 0 12 -415 0c-1,19 -1,36 -1,49l416 0 0 12 -417 0 0 0 -12 0z"/>
  <path class="fil0" d="M18494 22027c0,-20 1,-55 1,-96 2,-114 3,-279 3,-290l0 -6 6 0 419 0 0 6 0 6 -413 0c0,10 0,29 0,55l413 0 0 12 -414 0c0,16 0,35 0,54l414 0 0 13 -414 0c0,16 0,32 0,49l414 0 0 12 -415 0c0,17 0,33 0,49l415 0 0 12 -415 0c0,10 0,19 0,28l-1 22 416 0 0 12 -416 0c0,19 -1,36 -1,49l417 0 0 12 -417 0 0 1 -12 0z"/>
  <path class="fil4" d="M18488 27364c1,-20 2,-54 2,-95 2,-115 2,-279 2,-290l0 -6 7 0 419 0 0 12 -413 0c-1,9 -1,29 -1,54l430 0 0 12 -430 0c0,17 0,36 0,55l430 0 0 12 -430 0c0,16 -1,33 -1,50l431 0 0 12 -431 0c0,16 0,33 0,49l431 0 0 12 -431 0c-1,10 -1,19 -1,28l0 22 432 0 0 12 -432 0c-1,19 -1,36 -1,49l433 0 0 12 -434 0 0 0 -12 0z"/>
  <path class="fil0" d="M18488 14518c1,-20 2,-55 2,-95 2,-115 2,-280 2,-291l0 -6 7 0 419 0 0 6 0 6 -413 0c-1,10 -1,30 -1,55l414 0 0 12 -414 0c0,17 0,35 0,55l414 0 0 12 -414 0c0,16 -1,33 -1,49l415 0 0 12 -415 0c0,17 0,34 0,50l415 0 0 12 -415 0c-1,9 -1,19 -1,28l0 21 416 0 0 12 -416 0c-1,19 -1,36 -1,50l417 0 0 12 -418 0 0 0 -12 0z"/>
  <path class="fil1" d="M18415 26499l77 0m431 0l1154 0m477 0l734 0m476 0l744 0m476 0l738 0m476 0l592 0m476 0l490 0 0 1285"/>
  <path class="fil0" d="M18415 26424l77 0 0 150 -77 0 0 -150zm508 0l1154 0 0 150 -1154 0 0 -150zm1631 0l734 0 0 150 -734 0 0 -150zm1210 0l744 0 0 150 -744 0 0 -150zm1220 0l738 0 0 150 -738 0 0 -150zm1214 0l592 0 0 150 -592 0 0 -150zm1068 0l490 0 75 0 0 75 0 1285 -150 0 0 -1210 -415 0 0 -150z"/>
  <polygon class="fil0" points="19071,26499 19071,27989 18921,27989 18921,26499 "/>
  <path class="fil0" d="M27724 24857l0 731 -20 0 0 -731 20 0zm0 1187l0 116 -20 0 0 -116 20 0zm0 460l0 10 -20 0 0 -10 20 0z"/>
  <polygon class="fil0" points="19660,12687 27006,12687 27016,12687 27016,12697 27016,22363 27016,22373 27006,22373 25743,22373 25743,24867 25723,24867 25723,22363 25723,22353 25733,22353 26996,22353 26996,12707 20741,12707 19660,12707 "/>
  <line class="fil1" x1="18940" y1="22426" x2="18415" y2= "22426" />
  <line class="fil1" x1="27442" y1="26150" x2="27442" y2= "24867" />
  <polygon class="fil0" points="27432,26150 27432,24867 27452,24867 27452,26150 "/>
  <path class="fil0" d="M1491 11093c1,-20 1,-55 2,-95 1,-115 2,-280 2,-290l0 -6 6 0 419 -1 0 13 -413 0c0,9 0,29 0,54l413 0 0 12 -413 0c0,17 0,35 0,55l413 0 0 12 -414 0c0,16 0,33 0,49l414 0 0 13 -414 0c0,16 0,33 -1,49l415 0 0 12 -415 0c0,10 0,19 0,28l0 21 415 0 0 12 -416 0c0,20 0,36 -1,50l417 0 0 12 -417 0 0 0 -12 0z"/>
  <path class="fil0" d="M7168 11447c20,0 54,1 95,1 115,2 279,3 290,3l6 0 0 6 0 418 -12 0 0 -412c-9,0 -29,0 -54,-1l0 413 -12 0 0 -413c-17,0 -36,0 -55,0l0 413 -12 0 0 -413c-16,0 -33,0 -50,-1l0 414 -12 0 0 -414c-16,0 -33,0 -49,0l0 414 -12 0 0 -414c-10,0 -19,0 -28,-1l-22 0 0 415 -12 0 0 -415c-19,0 -36,-1 -49,-1l0 416 -12 0 0 -416 0 0 0 -12z"/>
  <path class="fil0" d="M1517 3735c20,0 54,1 95,1 115,2 279,3 290,3l6 0 0 6 0 413 -12 0 0 -407c-9,0 -29,0 -55,-1l0 408 -12 0 0 -408c-16,0 -35,0 -54,0l0 408 -12 0 0 -408c-16,0 -33,0 -50,0l0 408 -12 0 0 -409c-16,0 -33,0 -49,0l0 409 -12 0 0 -409c-10,0 -19,0 -28,-1l-22 0 0 410 -12 0 0 -410c-19,0 -36,-1 -49,-1l0 411 -12 0 0 -411 0 0 0 -12z"/>
  <path class="fil0" d="M18626 3016c20,0 55,1 95,1 115,2 280,3 291,3l6 0 0 6 0 417 -12 0 0 -411c-10,0 -29,0 -55,-1l0 412 -12 0 0 -412c-17,0 -35,0 -55,0l0 412 -12 0 0 -412c-16,0 -32,0 -49,0l0 412 -12 0 0 -413c-17,0 -33,0 -50,0l0 413 -12 0 0 -413c-9,0 -19,0 -28,-1l-21 0 0 414 -12 0 0 -414c-19,0 -36,-1 -50,-1l0 415 -12 0 0 -415 0 0 0 -12z"/>
  <path class="fil0" d="M7143 3471c1,-20 1,-55 2,-96 1,-114 2,-279 2,-290l0 -6 6 0 419 0 0 12 -413 0c0,10 0,29 0,55l413 0 0 12 -413 0c0,16 0,35 -1,55l414 0 0 12 -414 0c0,16 0,32 0,49l414 0 0 12 -414 0c0,17 0,33 -1,49l415 0 0 12 -415 0c0,10 0,19 0,28l0 22 415 0 0 12 -416 0c0,19 0,36 -1,49l417 0 0 12 -417 0 0 1 -12 0z"/>
  <path class="fil0" d="M11263 2213c1,-20 1,-55 2,-95 1,-115 2,-280 2,-291l0 -6 6 0 413 0 0 12 -407 0c0,10 0,30 0,55l407 0 0 12 -407 0c0,17 -1,35 -1,55l408 0 0 12 -408 0c0,16 0,33 0,49l408 0 0 12 -408 0c-1,17 -1,34 -1,50l409 0 0 12 -409 0c0,9 0,19 0,28l-1 21 410 0 0 12 -410 0c0,19 0,36 -1,50l411 0 0 12 -411 0 0 0 -12 0z"/>
  <path class="fil0" d="M14925 2213c1,-20 2,-55 2,-95 2,-115 2,-280 2,-291l0 -6 6 0 419 0 0 12 -413 0c0,10 0,30 0,55l416 0 0 12 -416 0c0,17 0,35 0,55l416 0 0 12 -416 0c-1,16 -1,33 -1,49l417 0 0 12 -417 0c0,17 0,34 0,50l417 0 0 12 -418 0c0,9 0,19 0,28l0 21 418 0 0 12 -418 0c-1,19 -1,36 -1,50l419 0 0 12 -420 0 0 0 -12 0z"/>
  <path class="fil0" d="M12022 11445c20,1 54,1 95,2 115,1 279,2 290,2l6 0 0 6 0 414 -12 0 0 -408c-9,0 -29,0 -55,0l0 408 -12 0 0 -408c-16,0 -35,-1 -54,-1l0 409 -12 0 0 -409c-16,0 -33,0 -50,0l0 409 -12 0 0 -409c-16,0 -33,-1 -49,-1l0 410 -12 0 0 -410c-10,0 -19,0 -28,0l-22 -1 0 411 -12 0 0 -411c-19,0 -36,0 -49,-1l0 412 -12 0 0 -412 0 0 0 -12z"/>
  <path class="fil0" d="M16855 11468c20,1 55,1 96,2 114,1 279,2 290,2l6 0 0 6 0 413 -12 0 0 -407c-10,0 -29,0 -55,0l0 407 -12 0 0 -407c-16,0 -35,0 -55,-1l0 408 -12 0 0 -408c-16,0 -32,0 -49,0l0 408 -12 0 0 -408c-17,0 -33,0 -49,-1l0 409 -13 0 0 -409c-9,0 -18,0 -28,0l-21 0 0 409 -12 0 0 -410c-19,0 -36,0 -49,-1l0 411 -12 0 0 -411 -1 0 0 -12z"/>
  <path class="fil0" d="M21034 11465c20,0 55,1 95,2 115,1 280,2 291,2l6 0 0 6 0 418 -12 0 0 -412c-10,0 -30,0 -55,0l0 412 -12 0 0 -412c-17,-1 -35,-1 -55,-1l0 413 -12 0 0 -413c-16,0 -33,0 -49,0l0 413 -12 0 0 -413c-17,-1 -34,-1 -50,-1l0 414 -12 0 0 -414c-9,0 -19,0 -28,0l-21 -1 0 415 -12 0 0 -415c-19,0 -36,-1 -50,-1l0 416 -12 0 0 -416 0 0 0 -12z"/>
  <path class="fil0" d="M25815 11461c20,1 55,2 95,2 115,2 280,3 290,3l6 0 0 6 1 419 -13 0 0 -413c-9,0 -29,-1 -54,-1l0 414 -12 0 0 -414c-17,0 -35,0 -55,0l0 414 -12 0 0 -414c-16,0 -33,0 -49,-1l0 415 -13 0 0 -415c-16,0 -33,0 -49,0l0 415 -12 0 0 -415c-10,0 -19,-1 -28,-1l-21 0 0 416 -12 0 0 -416c-20,0 -36,-1 -50,-1l0 417 -12 0 0 -418 0 0 0 -12z"/>
  <polyline class="fil1" points="1449,11911 5143,11905 5143,13916 "/>
  <line class="fil1" x1="6307" y1="11422" x2="6307" y2= "11916" />
  <polygon class="fil0" points="6317,11422 6317,11916 6297,11916 6297,11422 "/>
  <polyline class="fil1" points="7603,11422 7603,11911 6693,11911 6693,12429 11170,12429 11170,11422 "/>
  <polyline class="fil1" points="12461,11422 12461,11895 11567,11895 11567,12419 16044,12419 16044,11422 "/>
  <polygon class="fil0" points="12471,11422 12471,11895 12471,11905 12461,11905 11577,11905 11577,12409 16034,12409 16034,11422 16054,11422 16054,12419 16054,12429 16044,12429 11567,12429 11557,12429 11557,12419 11557,11895 11557,11885 11567,11885 12451,11885 12451,11422 "/>
  <line class="fil1" x1="16435" y1="11927" x2="16435" y2= "12403" />
  <polygon class="fil0" points="16445,11927 16445,12403 16425,12403 16425,11927 "/>
  <line class="fil1" x1="17319" y1="11937" x2="17319" y2= "11422" />
  <polygon class="fil0" points="17309,11937 17309,11422 17329,11422 17329,11937 "/>
  <polyline class="fil1" points="16435,12403 18869,12403 21822,12403 21822,11917 "/>
  <polygon class="fil0" points="16435,12393 18869,12393 21812,12393 21812,11917 21832,11917 21832,12403 21832,12413 21822,12413 18869,12413 16435,12413 "/>
  <polyline class="fil1" points="21822,11927 20981,11927 20981,11422 "/>
  <polygon class="fil0" points="21822,11937 20981,11937 20971,11937 20971,11927 20971,11422 20991,11422 20991,11917 21822,11917 "/>
  <polyline class="fil1" points="22637,11422 22637,12419 26791,12419 26791,11927 25733,11927 25733,11422 "/>
  <path class="fil0" d="M22647 11422l0 787 -20 0 0 -787 20 0zm0 987l114 0 4020 0 0 -472 -1048 0 -10 0 0 -10 0 -505 20 0 0 495 1048 0 10 0 0 10 0 492 0 10 -10 0 -4154 0 -10 0 0 -10 0 -10 20 0z"/>
  <line class="fil1" x1="26997" y1="11422" x2="26997" y2= "11921" />
  <polygon class="fil0" points="27007,11422 27007,11921 26987,11921 26987,11422 "/>
  <line class="fil1" x1="17329" y1="11937" x2="16435" y2= "11937" />
  <polygon class="fil0" points="17329,11947 16435,11947 16435,11927 17329,11927 "/>
  <polyline class="fil1" points="14858,1675 14858,3685 11768,3685 11762,1675 "/>
  <line class="fil1" x1="27006" y1="22363" x2="27006" y2= "24867" />
  <polygon class="fil0" points="27016,22363 27016,24867 26996,24867 26996,22363 "/>
  <line class="fil1 str2" x1="23465" y1="22363" x2="23465" y2= "24857" />
  <g>
   <line class="fil1 str2" x1="24533" y1="26486" x2="24533" y2= "27803" />
   <line class="fil1 str2" x1="23351" y1="26486" x2="23351" y2= "27803" />
   <line class="fil1 str2" x1="22123" y1="26486" x2="22123" y2= "27803" />
   <line class="fil1 str2" x1="20917" y1="26486" x2="20917" y2= "27950" />
   <line class="fil1 str2" x1="19682" y1="26486" x2="19682" y2= "27950" />
  </g>
  <polygon class="fil0" points="20979,22363 20979,24802 21499,24802 21499,24952 20904,24952 20829,24952 20829,24877 20829,22363 "/>
  <line class="fil1 str0" x1="21732" y1="24877" x2="24955" y2= "24877" />
  <polyline class="fil1 str0" points="25219,24877 25731,24877 25731,22288 "/>
  <path class="fil5" d="M21893 23755l0 -303 114 0c23,0 42,3 56,9 14,6 25,15 33,28 8,13 11,26 11,40 0,13 -3,25 -10,37 -7,11 -18,20 -32,27 19,6 33,15 42,28 10,13 15,28 15,46 0,14 -3,27 -9,39 -6,13 -13,22 -22,29 -9,6 -20,11 -33,15 -13,3 -30,5 -49,5l-116 0zm40 -176l66 0c18,0 31,-1 38,-4 11,-3 18,-8 23,-15 5,-7 8,-16 8,-26 0,-10 -2,-19 -7,-27 -5,-8 -12,-13 -21,-16 -9,-2 -24,-4 -46,-4l-61 0 0 92zm0 140l76 0c13,0 22,0 27,-1 10,-2 17,-5 23,-9 7,-4 12,-9 16,-17 4,-7 6,-16 6,-25 0,-12 -3,-21 -9,-30 -6,-8 -14,-14 -24,-17 -10,-4 -25,-5 -44,-5l-71 0 0 104zm369 36l-37 0 0 -238c-9,9 -21,18 -35,26 -15,9 -28,15 -40,19l0 -36c21,-9 39,-21 55,-35 16,-14 27,-28 33,-41l24 0 0 305z"/>
  <path class="fil5" d="M24270 23754l0 -303 113 0c24,0 42,3 56,9 14,7 25,16 33,29 8,12 12,26 12,40 0,13 -4,25 -11,36 -7,12 -17,21 -31,28 18,5 32,15 42,28 10,12 15,28 15,45 0,15 -3,28 -9,40 -6,12 -14,22 -23,28 -8,7 -19,12 -33,15 -13,4 -29,5 -49,5l-115 0zm40 -175l65 0c18,0 31,-2 39,-4 10,-3 18,-8 23,-15 5,-7 8,-16 8,-27 0,-10 -3,-19 -8,-26 -5,-8 -11,-13 -20,-16 -9,-3 -25,-4 -46,-4l-61 0 0 92zm0 140l75 0c13,0 23,-1 28,-2 9,-1 17,-4 23,-8 6,-4 11,-9 15,-17 4,-7 6,-16 6,-25 0,-12 -3,-22 -9,-30 -5,-8 -13,-14 -24,-18 -10,-3 -25,-5 -44,-5l-70 0 0 105zm424 0l0 35 -201 0c0,-9 2,-17 5,-26 5,-13 13,-27 25,-40 11,-13 27,-28 48,-46 33,-27 55,-48 67,-64 12,-16 18,-31 18,-45 0,-14 -6,-27 -16,-37 -11,-10 -25,-15 -42,-15 -18,0 -32,5 -43,16 -11,11 -16,25 -16,44l-38 -3c2,-29 12,-51 29,-66 17,-15 40,-22 69,-22 29,0 52,8 69,24 17,16 26,36 26,60 0,12 -3,24 -8,36 -5,12 -13,24 -24,37 -12,13 -31,31 -58,53 -22,19 -37,32 -43,39 -6,6 -12,13 -16,20l149 0z"/>
  <path class="fil5" d="M22507 27314l0 -303 114 0c23,0 42,3 56,9 14,6 25,16 33,29 8,12 12,26 12,40 0,13 -4,25 -11,36 -7,12 -18,21 -32,28 19,5 33,15 43,28 9,12 14,28 14,45 0,15 -3,28 -9,40 -6,12 -13,22 -22,28 -9,7 -20,12 -33,15 -13,4 -30,5 -49,5l-116 0zm41 -175l65 0c18,0 31,-2 38,-4 11,-3 18,-8 23,-15 6,-7 8,-16 8,-27 0,-10 -2,-19 -7,-26 -5,-8 -12,-13 -21,-16 -9,-3 -24,-4 -46,-4l-60 0 0 92zm0 140l75 0c13,0 22,-1 27,-2 10,-1 17,-4 24,-8 6,-4 11,-10 15,-17 4,-7 6,-16 6,-26 0,-11 -3,-21 -9,-29 -6,-9 -14,-14 -24,-18 -10,-3 -25,-5 -44,-5l-70 0 0 105zm1136 35l0 -303 113 0c24,0 42,3 56,9 14,6 25,16 33,29 8,12 12,26 12,40 0,13 -4,25 -11,36 -7,12 -17,21 -31,28 18,5 32,15 42,28 10,12 15,28 15,45 0,15 -3,28 -9,40 -6,12 -14,22 -22,28 -9,7 -20,12 -34,15 -13,4 -29,5 -49,5l-115 0zm40 -175l66 0c17,0 30,-2 38,-4 10,-3 18,-8 23,-15 5,-7 8,-16 8,-27 0,-10 -3,-19 -8,-26 -4,-8 -11,-13 -20,-16 -9,-3 -25,-4 -46,-4l-61 0 0 92zm0 140l75 0c13,0 23,-1 28,-2 9,-1 17,-4 23,-8 6,-4 11,-10 15,-17 4,-7 6,-16 6,-26 0,-11 -3,-21 -8,-29 -6,-9 -14,-14 -25,-18 -10,-3 -25,-5 -44,-5l-70 0 0 105zm369 35l-38 0 0 -237c-9,9 -20,17 -35,26 -14,8 -28,15 -39,19l0 -36c21,-10 39,-22 55,-36 15,-13 26,-27 33,-40l24 0 0 304zm95 -149c0,-36 4,-65 11,-87 8,-22 19,-39 33,-50 15,-12 33,-18 55,-18 16,0 31,3 43,10 12,6 22,16 30,28 8,12 14,27 19,45 4,18 7,42 7,72 0,35 -4,64 -11,86 -8,22 -18,39 -33,51 -14,11 -33,17 -55,17 -29,0 -52,-10 -69,-31 -20,-25 -30,-66 -30,-123zm39 0c0,50 5,83 17,99 12,17 26,25 43,25 17,0 32,-8 43,-25 12,-16 18,-49 18,-99 0,-50 -6,-83 -18,-100 -11,-16 -26,-24 -43,-24 -17,0 -31,7 -41,22 -13,18 -19,52 -19,102zm-1450 69l37 -5c4,21 11,36 22,45 10,10 22,14 37,14 18,0 33,-6 45,-18 12,-12 18,-27 18,-45 0,-17 -6,-31 -17,-42 -11,-11 -25,-17 -43,-17 -7,0 -15,2 -26,4l4 -32c3,0 5,0 6,0 16,0 30,-4 43,-12 13,-8 19,-21 19,-38 0,-14 -4,-25 -14,-34 -9,-9 -21,-14 -35,-14 -15,0 -27,5 -37,14 -9,9 -16,23 -18,41l-38 -6c5,-25 15,-45 31,-58 17,-14 37,-21 61,-21 16,0 31,3 45,11 14,7 25,16 32,28 8,13 11,26 11,40 0,13 -3,24 -10,35 -7,11 -18,19 -31,26 17,4 31,12 41,26 10,12 15,29 15,48 0,27 -10,49 -29,68 -19,18 -44,27 -73,27 -27,0 -49,-8 -66,-23 -18,-16 -28,-37 -30,-62zm335 -15l0 -30 423 0 0 30 -423 0z"/>
  <polygon class="fil0" points="18490,24762 19726,24762 19736,24762 19736,24772 19736,26072 20920,26072 20920,24877 20940,24877 20940,26082 20940,26092 20930,26092 19726,26092 19716,26092 19716,26082 19716,24782 18490,24782 "/>
  <polygon class="fil0" points="19716,24772 19716,23429 19716,23419 19726,23419 20904,23419 20904,23439 19736,23439 19736,24772 "/>
  <polygon class="fil0" points="19726,23697 19280,23697 19280,23677 19726,23677 "/>
  <polygon class="fil0" points="19048,23697 18490,23697 18490,23677 19048,23677 "/>
  <polygon class="fil0" points="18453,23075 19055,23075 19055,23095 18453,23095 "/>
  <polygon class="fil0" points="19280,23082 20338,23082 20338,23102 19280,23102 "/>
  <line class="fil1" x1="20563" y1="23092" x2="20904" y2= "23092" />
  <line class="fil1" x1="19683" y1="23092" x2="19683" y2= "22933" />
  <polygon class="fil0" points="19673,23092 19673,22933 19693,22933 19693,23092 "/>
  <polyline class="fil1" points="19684,22702 19684,21650 19846,21650 "/>
  <polygon class="fil0" points="19674,22702 19674,21650 19674,21640 19684,21640 19846,21640 19846,21660 19694,21660 19694,22702 "/>
  <line class="fil1" x1="19994" y1="21653" x2="20884" y2= "21653" />
  <polygon class="fil0" points="19994,21643 20884,21643 20884,21663 19994,21663 "/>
  <line class="fil1" x1="19055" y1="19712" x2="18490" y2= "19712" />
  <polygon class="fil0" points="19055,19722 18490,19722 18490,19702 19055,19702 "/>
  <polyline class="fil1" points="19304,19712 19518,19712 19518,18903 19518,17317 "/>
  <polygon class="fil0" points="19304,19702 19508,19702 19508,18903 19508,17317 19528,17317 19528,18903 19528,19712 19528,19722 19518,19722 19304,19722 "/>
  <polyline class="fil1" points="19714,19807 19714,17314 20462,17314 20462,17949 "/>
  <polygon class="fil0" points="19704,19807 19704,17314 19704,17304 19714,17304 20462,17304 20472,17304 20472,17314 20472,17949 20452,17949 20452,17324 19724,17324 19724,19807 "/>
  <polyline class="fil1" points="20468,18141 20468,19814 19704,19815 "/>
  <polygon class="fil0" points="20478,18141 20478,19814 20478,19824 20468,19824 19704,19824 19704,19805 20458,19804 20458,18141 "/>
  <path class="fil0" d="M19660 14859l149 0 0 20 -149 0 0 -20zm435 0l802 0 0 20 -802 0 0 -20z"/>
  <polygon class="fil0" points="19670,12687 19670,14879 19650,14879 19650,12687 "/>
  <polygon class="fil0" points="19668,14879 19494,14879 19494,14859 19668,14859 "/>
  <polygon class="fil0" points="8355,14076 6405,14076 6405,14056 8355,14056 "/>
  <polyline class="fil1 str3" points="2792,14001 2792,11909 2281,11909 "/>
  <line class="fil1 str3" x1="1963" y1="11910" x2="1409" y2= "11910" />
  <polygon class="fil0" points="6630,11906 7593,11906 7593,11432 7613,11432 7613,11916 7613,11926 7603,11926 6630,11926 "/>
  <polygon class="fil0" points="9890,11412 9890,11919 9870,11919 9870,11412 "/>
  <line class="fil1" x1="9871" y1="12227" x2="11018" y2= "12227" />
  <polygon class="fil0" points="9871,12217 11018,12217 11018,12237 9871,12237 "/>
  <polyline class="fil1" points="11018,12429 11018,12321 11018,11432 "/>
  <polygon class="fil0" points="11008,12429 11008,12321 11008,11432 11028,11432 11028,12321 11028,12429 "/>
  <g>
   <path class="fil2" d="M22917 12012c-2,0 -3,-1 -3,-3l0 -301c0,-1 1,-3 3,-3 2,0 3,2 3,3l0 301c0,2 -1,3 -3,3z"/>
   <path class="fil2" d="M22781 12005c-2,0 -3,-2 -3,-4 0,-7 -7,-195 -7,-212 0,-2 2,-4 4,-4 1,0 3,2 3,4 0,17 7,210 7,212 0,2 -2,4 -4,4 0,0 0,0 0,0z"/>
   <path class="fil2" d="M22809 12005c-2,0 -3,-2 -3,-4l0 -116c0,-3 -2,-3 -2,-3 -1,0 -3,0 -3,3l0 116c0,2 -1,4 -3,4 -2,0 -4,-2 -4,-4l0 -116c0,-6 4,-10 10,-10 5,0 9,4 9,10l0 116c0,2 -2,4 -4,4z"/>
   <path class="fil2" d="M22826 12005c0,0 0,0 0,0 -2,0 -4,-2 -4,-4 0,-2 7,-195 7,-212 0,-2 2,-4 3,-4 2,0 4,2 4,4 0,17 -7,205 -7,212 0,2 -2,4 -3,4z"/>
   <path class="fil2" d="M22853 11874c-2,0 -3,-2 -3,-4 0,-79 -4,-97 -12,-104 -2,-2 -18,-5 -35,-5 -17,0 -33,3 -35,5 -7,7 -11,25 -11,104 0,2 -2,4 -3,4 -2,0 -4,-2 -4,-4 0,-83 4,-100 13,-109 5,-5 29,-6 40,-6 11,0 35,1 40,6 9,9 13,26 13,109 0,2 -1,4 -3,4z"/>
   <path class="fil2" d="M22803 11735c-6,0 -11,-5 -11,-12 0,-6 5,-11 11,-11 6,0 11,5 11,11 0,7 -5,12 -11,12zm0 -30c0,0 0,0 0,0 0,0 0,0 0,0 0,0 0,0 0,0 -10,0 -18,8 -18,18 0,10 8,18 18,18 0,0 0,0 0,0l0 0c0,0 0,0 0,0 10,0 18,-8 18,-18 0,-10 -8,-18 -18,-18z"/>
   <path class="fil2" d="M23082 11841c-15,-15 -17,-32 -18,-46 -1,-11 -2,-21 -11,-25 -7,-4 -14,-4 -21,-4 -2,0 -3,0 -4,0 0,0 0,0 0,0 0,0 0,0 0,0l0 0c-1,0 -2,0 -4,0 -8,0 -14,0 -21,4 -9,4 -10,14 -11,25 -1,14 -3,31 -18,46 -1,1 -1,4 0,5 1,1 1,1 2,1 1,0 2,0 3,-1 16,-17 18,-36 20,-50 1,-11 2,-18 7,-20 5,-3 11,-3 18,-3 1,0 3,0 4,0l0 0c0,0 0,0 0,0l0 0c1,0 2,0 4,0 7,0 13,0 18,3 5,2 6,9 7,20 2,14 4,33 20,50 1,1 2,1 3,1 0,0 1,0 2,-1 1,-1 1,-4 0,-5z"/>
   <path class="fil2" d="M23028 11748c-6,0 -11,-5 -11,-11 0,-6 5,-11 11,-11 6,0 11,5 11,11 0,6 -5,11 -11,11zm0 -29c0,0 0,0 0,0 0,0 0,0 0,0 0,0 0,0 0,0 -10,0 -18,8 -18,18 0,10 8,18 18,18 0,0 0,0 0,0l0 0c0,0 0,0 0,0 0,0 0,0 0,0 10,0 18,-8 18,-18 0,-10 -8,-18 -18,-18z"/>
   <path class="fil2" d="M23136 12012c-2,0 -3,-1 -3,-3l0 -301c0,-1 1,-3 3,-3 2,0 4,2 4,3l0 301c0,2 -2,3 -4,3z"/>
   <path class="fil2" d="M23272 11805c-7,0 -13,5 -13,12 0,6 6,12 13,12 6,0 12,-6 12,-12 0,-7 -6,-12 -12,-12zm0 30c-10,0 -18,-8 -18,-18 0,-10 8,-18 18,-18 9,0 17,8 17,18 0,10 -8,18 -17,18z"/>
   <path class="fil2" d="M23263 11994c-32,0 -58,-26 -58,-57 0,-15 6,-28 15,-39 1,-1 3,-1 4,0 1,1 2,3 1,4 -9,10 -14,22 -14,35 0,28 23,51 52,51 28,0 51,-23 51,-51 0,-3 0,-6 0,-9 -1,-2 1,-3 2,-3 2,-1 3,1 4,2 0,3 0,6 0,10 0,31 -25,57 -57,57z"/>
   <path class="fil2" d="M23347 11976c-2,0 -3,-1 -3,-2l-22 -55c-1,-3 -4,-5 -7,-4l-13 2c-6,1 -13,0 -17,-2 -4,-2 -8,-8 -9,-14l-7 -42c-1,-3 -4,-8 -7,-9l-7 -3c-3,-1 -8,0 -10,2l-19 20c-2,2 -2,6 0,8l23 23c1,1 1,3 0,4 -1,2 -3,2 -4,0l-23 -23c-5,-4 -5,-11 -1,-16l20 -20c4,-4 11,-6 16,-3l7 2c5,3 10,9 11,14l7 42c0,4 3,8 6,10 3,1 9,2 12,1l13 -2c6,-1 13,2 15,8l21 55c1,1 0,3 -1,4 -1,0 -1,0 -1,0z"/>
   <path class="fil2" d="M23048 11833c-1,0 -1,-1 -1,-1 -6,-7 -5,-13 0,-22 5,-9 6,-13 1,-20 -1,-2 -3,-2 -5,-1 -1,1 -2,3 -1,5 3,4 3,5 -1,13 -3,6 -10,17 0,29 1,1 1,1 2,2 8,9 20,23 19,61l-69 0c-1,-38 12,-52 19,-61 1,-1 1,-1 2,-2 10,-12 3,-23 0,-29 -4,-8 -4,-9 -1,-14 1,-1 0,-3 -1,-4 -2,-1 -4,-1 -5,1 -4,8 -4,11 1,20 5,9 6,15 1,22 -1,0 -1,1 -2,1 -8,9 -23,27 -21,70 0,2 2,3 4,3l18 0c2,13 11,72 11,94 0,2 2,4 4,4 2,0 3,-2 3,-4 0,-22 -9,-79 -11,-94l25 0c-3,15 -11,72 -11,94 0,2 1,4 3,4 2,0 3,-2 3,-4 0,-22 9,-81 11,-94l19 0c2,0 4,-1 4,-3 2,-43 -13,-60 -21,-70z"/>
   <path class="fil0" d="M22762 11494l575 0c21,0 41,9 55,23 14,14 22,33 22,54l0 575c0,21 -8,40 -22,54 -14,14 -34,23 -55,23l-575 0c-21,0 -40,-9 -54,-23l0 0c-14,-14 -23,-33 -23,-54l0 -575c0,-21 9,-40 23,-54l0 0c14,-14 33,-23 54,-23zm575 19l-575 0c-16,0 -30,7 -41,17l0 0c-10,11 -17,25 -17,41l0 575c0,16 7,31 17,41l0 0c11,11 25,17 41,17l575 0c16,0 31,-6 41,-17 11,-10 17,-25 17,-41l0 -575c0,-16 -6,-30 -17,-41 -10,-10 -25,-17 -41,-17z"/>
  </g>
  <g>
   <path class="fil6 str4" d="M3781 4421c-235,1109 -354,2241 -354,3375"/>
   <path class="fil6 str4" d="M3808 4444c-97,459 -174,922 -230,1387"/>
   <path class="fil6 str4" d="M3546 6111c-58,560 -87,1122 -87,1685"/>
   <path class="fil6 str4" d="M3884 4460c-96,457 -173,917 -229,1381"/>
   <path class="fil6 str4" d="M3624 6119c-59,557 -88,1117 -88,1677"/>
   <path class="fil6 str4" d="M3606 4421c-232,1110 -350,2241 -350,3375"/>
   <path class="fil6 str4" d="M3633 4444c-96,459 -172,922 -228,1387"/>
   <path class="fil6 str4" d="M3374 6111c-58,560 -87,1122 -87,1685l0 0"/>
   <path class="fil6 str4" d="M3709 4459c-95,457 -171,918 -226,1382"/>
   <path class="fil6 str4" d="M3451 6119c-57,557 -86,1117 -86,1677l0 0"/>
   <path class="fil6 str4" d="M3431 4421c-230,1110 -346,2241 -346,3375l0 0"/>
   <path class="fil6 str4" d="M3458 4443c-94,459 -170,923 -225,1388"/>
   <path class="fil6 str4" d="M3202 6111c-57,560 -86,1122 -86,1685l0 0"/>
   <path class="fil6 str4" d="M3535 4459c-95,457 -169,918 -225,1381"/>
   <path class="fil6 str4" d="M3279 6119c-56,557 -85,1117 -85,1677l0 0"/>
   <path class="fil6 str4" d="M5183 4421c-257,1106 -387,2239 -387,3375l0 0"/>
   <path class="fil6 str4" d="M5359 4421c-260,1106 -392,2238 -392,3375"/>
   <path class="fil6 str4" d="M5209 4447c-105,457 -189,919 -251,1384"/>
   <path class="fil6 str4" d="M4923 6111c-63,559 -95,1122 -95,1685"/>
   <path class="fil6 str4" d="M5285 4464c-105,455 -189,915 -250,1377"/>
   <path class="fil6 str4" d="M5000 6119c-63,557 -95,1117 -95,1677"/>
   <path class="fil6 str4" d="M5008 4421c-254,1107 -383,2239 -383,3375l0 0"/>
   <path class="fil6 str4" d="M5034 4446c-105,458 -188,920 -249,1385"/>
   <path class="fil6 str4" d="M4751 6111c-63,559 -95,1122 -95,1685l0 0"/>
   <path class="fil6 str4" d="M5109 4464c-103,455 -186,915 -247,1377"/>
   <path class="fil6 str4" d="M4828 6119c-62,557 -94,1117 -94,1677l0 0"/>
   <path class="fil6 str4" d="M4832 4421c-251,1107 -378,2239 -378,3375"/>
   <path class="fil6 str4" d="M4858 4446c-103,458 -185,920 -245,1385"/>
   <path class="fil6 str4" d="M4579 6111c-62,559 -94,1122 -94,1685"/>
   <path class="fil6 str4" d="M4934 4463c-103,456 -184,916 -244,1378"/>
   <path class="fil6 str4" d="M4656 6119c-62,557 -93,1117 -93,1677"/>
   <path class="fil6 str4" d="M4657 4421c-249,1108 -374,2239 -374,3375"/>
   <path class="fil6 str4" d="M4683 4446c-102,458 -183,920 -243,1385"/>
   <path class="fil6 str4" d="M4407 6111c-62,559 -93,1122 -93,1685 0,0 0,0 0,0"/>
   <path class="fil6 str4" d="M4759 4463c-102,455 -182,915 -242,1378"/>
   <path class="fil6 str4" d="M4484 6119c-61,557 -92,1117 -92,1677 0,0 0,0 0,0"/>
   <path class="fil6 str4" d="M4481 4421c-245,1108 -369,2240 -369,3375"/>
   <path class="fil6 str4" d="M4508 4445c-101,458 -181,921 -241,1386"/>
   <path class="fil6 str4" d="M4234 6111c-60,559 -91,1122 -91,1685"/>
   <path class="fil6 str4" d="M4584 4462c-101,456 -180,916 -239,1379"/>
   <path class="fil6 str4" d="M4312 6119c-61,557 -91,1117 -91,1677"/>
   <path class="fil6 str4" d="M4306 4421c-243,1108 -365,2240 -365,3375l0 0"/>
   <path class="fil6 str4" d="M4333 4445c-100,458 -179,921 -238,1386"/>
   <path class="fil6 str4" d="M4062 6111c-60,559 -90,1122 -90,1685"/>
   <path class="fil6 str4" d="M4409 4461c-100,456 -178,917 -237,1380"/>
   <path class="fil6 str4" d="M4140 6119c-60,557 -90,1117 -90,1677"/>
   <path class="fil6 str4" d="M4131 4421c-240,1109 -361,2240 -361,3375"/>
   <path class="fil6 str4" d="M4158 4444c-99,459 -178,922 -236,1387"/>
   <path class="fil6 str4" d="M3890 6111c-59,559 -89,1122 -89,1685l0 0"/>
   <path class="fil6 str4" d="M4234 4461c-99,456 -177,917 -234,1380"/>
   <path class="fil6 str4" d="M3968 6119c-60,557 -89,1117 -89,1677l0 0"/>
   <path class="fil6 str4" d="M3983 4444c-98,459 -176,922 -233,1387"/>
   <path class="fil6 str4" d="M3718 6111c-59,559 -88,1122 -88,1685l0 0"/>
   <path class="fil6 str4" d="M4059 4460c-97,457 -175,917 -232,1381"/>
   <path class="fil6 str4" d="M3796 6119c-59,557 -89,1117 -89,1677l0 0"/>
   <path class="fil6 str4" d="M5385 4448c-107,456 -192,918 -255,1383"/>
   <path class="fil6 str4" d="M5095 6111c-64,559 -96,1122 -96,1685"/>
   <path class="fil6 str4" d="M5460 4465c-106,455 -190,914 -253,1377"/>
   <path class="fil6 str4" d="M5173 6119c-64,557 -97,1117 -97,1677"/>
   <path class="fil6 str4" d="M3956 4421c-238,1109 -357,2240 -357,3375"/>
   <path class="fil6 str4" d="M3598 5858c-9,78 -18,156 -26,233"/>
   <path class="fil6 str4" d="M3426 5858c-9,78 -18,155 -26,233"/>
   <path class="fil6 str4" d="M3253 5858c-9,78 -17,156 -25,233"/>
   <path class="fil6 str4" d="M4978 5858c-10,78 -20,155 -29,233"/>
   <path class="fil6 str4" d="M5150 5858c-10,78 -20,155 -29,233"/>
   <path class="fil6 str4" d="M4805 5858c-10,78 -20,156 -28,233"/>
   <path class="fil6 str4" d="M4633 5858c-10,78 -20,156 -29,233"/>
   <path class="fil6 str4" d="M4460 5858c-10,78 -19,156 -28,233"/>
   <path class="fil6 str4" d="M4288 5858c-10,78 -19,156 -28,233"/>
   <path class="fil6 str4" d="M4115 5858c-9,78 -19,155 -27,233"/>
   <path class="fil6 str4" d="M3943 5858c-10,78 -19,156 -27,233"/>
   <path class="fil6 str4" d="M3770 5858c-9,78 -18,156 -26,233"/>
   <path class="fil6 str4" d="M3645 5922c-4,38 -8,76 -13,115"/>
   <path class="fil6 str4" d="M3624 6119c-58,557 -88,1117 -88,1677"/>
   <path class="fil6 str4" d="M3474 5912c-5,41 -9,82 -14,123"/>
   <path class="fil6 str4" d="M3451 6119c-57,557 -86,1117 -86,1677"/>
   <path class="fil6 str4" d="M5026 5912c-6,42 -11,83 -16,125"/>
   <path class="fil6 str4" d="M5000 6119c-63,557 -95,1117 -95,1677 0,0 0,0 0,0"/>
   <path class="fil6 str4" d="M5198 5912c-2,21 -5,42 -8,62"/>
   <path class="fil6 str4" d="M4853 5912c-3,21 -5,42 -8,63"/>
   <path class="fil6 str4" d="M4828 6119c-62,557 -94,1117 -94,1677"/>
   <path class="fil6 str4" d="M4656 6119c-62,557 -93,1117 -93,1677l0 0"/>
   <path class="fil6 str4" d="M4501 5974c-3,21 -5,42 -8,63"/>
   <path class="fil6 str4" d="M4484 6119c-61,557 -92,1117 -92,1677l0 0"/>
   <path class="fil6 str4" d="M4328 5974c-2,21 -5,42 -7,63"/>
   <path class="fil6 str4" d="M4312 6119c-61,557 -91,1117 -91,1677"/>
   <path class="fil6 str4" d="M4140 6119c-60,557 -90,1117 -90,1677"/>
   <path class="fil6 str4" d="M3968 6119c-60,557 -89,1117 -89,1677l0 0"/>
   <path class="fil6 str4" d="M3796 6119c-59,557 -89,1117 -89,1677"/>
   <path class="fil6 str4" d="M5452 11218c0,-26 -21,-47 -47,-47"/>
   <path class="fil6 str4" d="M5277 11218c0,-26 -21,-47 -47,-47"/>
   <path class="fil6 str4" d="M5101 11218c0,-26 -21,-47 -47,-47"/>
   <path class="fil6 str4" d="M4925 11218c0,-26 -21,-47 -46,-47"/>
   <path class="fil6 str4" d="M4750 11218c0,-26 -21,-47 -47,-47"/>
   <path class="fil6 str4" d="M4575 11218c0,-26 -21,-47 -47,-47"/>
   <path class="fil6 str4" d="M4399 11218c0,-26 -20,-47 -46,-47"/>
   <path class="fil6 str4" d="M4224 11218c0,-26 -20,-47 -46,-47"/>
   <path class="fil6 str4" d="M4049 11218c0,-26 -21,-47 -46,-47"/>
   <path class="fil6 str4" d="M3874 11218c0,-26 -21,-47 -46,-47"/>
   <path class="fil6 str4" d="M3700 11218c0,-26 -21,-47 -47,-47"/>
   <path class="fil6 str4" d="M3525 11218c0,-26 -21,-47 -47,-47"/>
   <path class="fil6 str4" d="M3427 7796l0 0c0,1134 119,2265 354,3375"/>
   <path class="fil6 str4" d="M3572 9500c8,78 17,156 26,234"/>
   <path class="fil6 str4" d="M3578 9761c56,465 133,928 230,1387"/>
   <path class="fil6 str4" d="M3459 7796l0 0c0,563 29,1125 87,1685"/>
   <path class="fil6 str4" d="M3655 9751c56,463 133,924 229,1381"/>
   <path class="fil6 str4" d="M3536 7796l0 0c0,560 29,1120 88,1677"/>
   <path class="fil6 str4" d="M3256 7796l0 0c0,1134 118,2265 350,3375"/>
   <path class="fil6 str4" d="M3400 9500c8,78 16,156 26,234"/>
   <path class="fil6 str4" d="M3405 9761c56,465 132,928 228,1387"/>
   <path class="fil6 str4" d="M3287 7796l0 0c0,563 29,1125 87,1685"/>
   <path class="fil6 str4" d="M3483 9751c55,464 131,925 226,1381"/>
   <path class="fil6 str4" d="M3365 7796l0 0c0,560 29,1120 86,1677"/>
   <path class="fil6 str4" d="M3085 7796l0 0c0,1134 116,2265 346,3375"/>
   <path class="fil6 str4" d="M3228 9500c8,78 16,156 25,234"/>
   <path class="fil6 str4" d="M3312 9751c53,464 128,925 223,1382"/>
   <path class="fil6 str4" d="M3233 9761c55,465 131,928 225,1388"/>
   <path class="fil6 str4" d="M3116 7796l0 0c0,563 29,1125 86,1685"/>
   <path class="fil6 str4" d="M3194 7796l0 0c0,560 29,1120 85,1677"/>
   <path class="fil6 str4" d="M4796 7796l0 0c0,1136 130,2268 387,3375"/>
   <path class="fil6 str4" d="M4949 9500c9,78 18,156 29,234"/>
   <path class="fil6 str4" d="M4967 7796l0 0c0,1136 132,2269 392,3375"/>
   <path class="fil6 str4" d="M5121 9500c9,78 19,156 29,234"/>
   <path class="fil6 str4" d="M4958 9761c62,465 146,927 251,1384"/>
   <path class="fil6 str4" d="M4828 7796l0 0c0,563 32,1126 95,1685"/>
   <path class="fil6 str4" d="M5035 9750c61,463 145,922 250,1377"/>
   <path class="fil6 str4" d="M4905 7796l0 0c0,560 32,1120 95,1676"/>
   <path class="fil6 str4" d="M4625 7796l0 0c0,1136 129,2268 383,3375"/>
   <path class="fil6 str4" d="M4777 9500c8,78 18,156 28,234"/>
   <path class="fil6 str4" d="M4785 9761c61,465 144,927 249,1384"/>
   <path class="fil6 str4" d="M4656 7796l0 0c0,563 32,1125 95,1685"/>
   <path class="fil6 str4" d="M4862 9750c61,463 144,923 247,1378"/>
   <path class="fil6 str4" d="M4734 7796l0 0c0,560 32,1120 94,1676"/>
   <path class="fil6 str4" d="M4454 7796l0 0c0,1135 127,2268 378,3375"/>
   <path class="fil6 str4" d="M4604 9500c9,78 19,156 29,234"/>
   <path class="fil6 str4" d="M4613 9761c60,465 142,927 245,1385"/>
   <path class="fil6 str4" d="M4485 7796l0 0c0,563 32,1125 94,1685"/>
   <path class="fil6 str4" d="M4690 9750c60,463 141,923 244,1379"/>
   <path class="fil6 str4" d="M4563 7796l0 0c0,560 31,1120 93,1676"/>
   <path class="fil6 str4" d="M4283 7796l0 0c0,1135 125,2267 374,3375"/>
   <path class="fil6 str4" d="M4432 9500c9,78 18,156 28,234"/>
   <path class="fil6 str4" d="M4440 9761c60,465 141,927 243,1385"/>
   <path class="fil6 str4" d="M4314 7796l0 0c0,563 31,1125 93,1685"/>
   <path class="fil6 str4" d="M4517 9751c60,462 140,923 242,1378"/>
   <path class="fil6 str4" d="M4392 7796l0 0c0,560 31,1120 92,1677"/>
   <path class="fil6 str4" d="M4112 7796l0 0c0,1135 124,2267 369,3375"/>
   <path class="fil6 str4" d="M4260 9500c9,78 18,156 28,234"/>
   <path class="fil6 str4" d="M4267 9761c60,465 140,927 241,1385"/>
   <path class="fil6 str4" d="M4143 7796l0 0c0,563 31,1125 91,1685"/>
   <path class="fil6 str4" d="M4345 9751c59,463 138,923 239,1379"/>
   <path class="fil6 str4" d="M4221 7796l0 0c0,560 30,1120 91,1677"/>
   <path class="fil6 str4" d="M3941 7796l0 0c0,1135 122,2266 365,3375"/>
   <path class="fil6 str4" d="M4088 9500c8,78 18,156 27,234"/>
   <path class="fil6 str4" d="M4095 9761c59,465 138,927 238,1386"/>
   <path class="fil6 str4" d="M3972 7796l0 0c0,563 30,1125 90,1685"/>
   <path class="fil6 str4" d="M4172 9751c59,463 137,923 237,1379"/>
   <path class="fil6 str4" d="M4050 7796l0 0c0,560 30,1120 90,1677"/>
   <path class="fil6 str4" d="M3770 7796l0 0c0,1134 121,2266 361,3375"/>
   <path class="fil6 str4" d="M3916 9500c8,78 17,156 27,234"/>
   <path class="fil6 str4" d="M3923 9761c57,465 136,928 235,1386"/>
   <path class="fil6 str4" d="M3801 7796l0 0c0,563 30,1125 89,1685"/>
   <path class="fil6 str4" d="M4000 9751c57,463 135,924 234,1380"/>
   <path class="fil6 str4" d="M3879 7796l0 0c0,560 29,1120 89,1677"/>
   <path class="fil6 str4" d="M3750 9761c57,465 135,928 233,1387"/>
   <path class="fil6 str4" d="M3630 7796l0 0c0,563 29,1125 88,1685"/>
   <path class="fil6 str4" d="M3827 9751c57,463 135,924 232,1381"/>
   <path class="fil6 str4" d="M3707 7796l0 0c0,560 30,1120 89,1677"/>
   <path class="fil6 str4" d="M5130 9761c63,464 148,926 255,1383"/>
   <path class="fil6 str4" d="M4999 7796l0 0c0,563 32,1126 96,1685"/>
   <path class="fil6 str4" d="M5207 9750c63,463 147,922 253,1377"/>
   <path class="fil6 str4" d="M5076 7796l0 0c0,560 33,1120 97,1676"/>
   <path class="fil6 str4" d="M3599 7796l0 0c0,1134 119,2266 357,3375"/>
   <path class="fil6 str4" d="M3744 9500c8,78 17,156 26,234"/>
   <path class="fil6 str4" d="M5121 6091c31,-1 56,-24 61,-54"/>
   <path class="fil6 str4" d="M5198 5912c-5,42 -11,83 -16,125"/>
   <path class="fil6 str4" d="M5198 5912c0,0 0,-2 0,-2 0,-27 -21,-50 -48,-52"/>
   <path class="fil6 str4" d="M4949 6091c30,-2 56,-24 61,-54"/>
   <path class="fil6 str4" d="M5026 5912c-6,42 -11,83 -16,125"/>
   <path class="fil6 str4" d="M5026 5912c0,0 0,-1 0,-2 0,-27 -21,-50 -48,-52"/>
   <path class="fil6 str4" d="M4777 6091c30,-2 55,-24 61,-54"/>
   <path class="fil6 str4" d="M4853 5912c-5,42 -10,83 -15,125"/>
   <path class="fil6 str4" d="M4853 5912c0,0 0,-1 0,-2 0,-27 -21,-50 -48,-52"/>
   <path class="fil6 str4" d="M4604 6091c31,-2 56,-24 61,-54"/>
   <path class="fil6 str4" d="M4681 5912c-6,42 -11,83 -16,125"/>
   <path class="fil6 str4" d="M4681 5912c0,0 0,-1 0,-2 0,-27 -21,-50 -48,-52"/>
   <path class="fil6 str4" d="M4432 6091c30,-2 55,-25 61,-54"/>
   <path class="fil6 str4" d="M4508 5912c-5,42 -10,83 -15,125"/>
   <path class="fil6 str4" d="M4508 5912c0,0 0,-1 0,-2 0,-27 -21,-50 -48,-52"/>
   <path class="fil6 str4" d="M4260 6091c30,-3 55,-25 61,-54"/>
   <path class="fil6 str4" d="M4336 5912c-5,42 -10,83 -15,125"/>
   <path class="fil6 str4" d="M4336 5912c0,0 0,-1 0,-2 0,-27 -21,-50 -48,-52"/>
   <path class="fil6 str4" d="M4088 6091c30,-3 54,-25 61,-54"/>
   <path class="fil6 str4" d="M4163 5912c-5,42 -10,83 -14,125"/>
   <path class="fil6 str4" d="M4163 5912c0,0 0,-1 0,-2 0,-27 -21,-50 -48,-52"/>
   <path class="fil6 str4" d="M3916 6091c29,-3 54,-25 60,-54"/>
   <path class="fil6 str4" d="M3991 5912c-5,42 -10,83 -14,125"/>
   <path class="fil6 str4" d="M3991 5912c0,0 0,-1 0,-2 0,-27 -21,-50 -48,-52"/>
   <path class="fil6 str4" d="M3744 6091c29,-3 54,-25 61,-54"/>
   <path class="fil6 str4" d="M3819 5912c-5,42 -10,83 -14,125"/>
   <path class="fil6 str4" d="M3819 5912c0,0 0,-1 0,-2 0,-27 -21,-50 -49,-52"/>
   <path class="fil6 str4" d="M3572 6091c29,-4 53,-25 60,-54"/>
   <path class="fil6 str4" d="M3646 5912c-4,42 -9,83 -14,125"/>
   <path class="fil6 str4" d="M3646 5912c0,0 0,-1 0,-1 0,-28 -21,-51 -48,-53"/>
   <path class="fil6 str4" d="M3400 6091c29,-4 53,-25 60,-54"/>
   <path class="fil6 str4" d="M3474 5912c-5,42 -9,83 -14,125"/>
   <path class="fil6 str4" d="M3474 5912c0,0 0,-1 0,-1 0,-28 -21,-51 -48,-53"/>
   <path class="fil6 str4" d="M3227 6091c30,-4 54,-26 61,-54"/>
   <path class="fil6 str4" d="M3288 6037c5,-42 9,-83 14,-125"/>
   <path class="fil6 str4" d="M3302 5912c0,0 0,-1 0,-1 0,-28 -21,-51 -49,-53"/>
   <path class="fil6 str4" d="M5182 9555c-5,-30 -30,-53 -61,-55"/>
   <path class="fil6 str4" d="M5182 9555c5,41 11,83 16,124"/>
   <path class="fil6 str4" d="M5150 9734c27,-2 48,-25 48,-52 0,-1 0,-2 0,-3"/>
   <path class="fil6 str4" d="M5010 9555c-5,-30 -31,-53 -61,-55"/>
   <path class="fil6 str4" d="M5010 9555c5,41 10,83 16,124"/>
   <path class="fil6 str4" d="M4978 9734c27,-2 48,-25 48,-52 0,-1 0,-2 0,-3"/>
   <path class="fil6 str4" d="M4838 9555c-6,-30 -31,-52 -61,-55"/>
   <path class="fil6 str4" d="M4838 9555c5,41 10,83 15,124"/>
   <path class="fil6 str4" d="M4805 9734c27,-2 48,-25 48,-52 0,-1 0,-2 0,-3"/>
   <path class="fil6 str4" d="M4665 9555c-5,-30 -30,-52 -61,-55"/>
   <path class="fil6 str4" d="M4665 9555c5,41 10,83 16,124"/>
   <path class="fil6 str4" d="M4633 9734c27,-2 48,-25 48,-52 0,-1 0,-2 0,-3"/>
   <path class="fil6 str4" d="M4493 9555c-6,-30 -31,-52 -61,-55"/>
   <path class="fil6 str4" d="M4493 9555c5,41 10,83 15,124"/>
   <path class="fil6 str4" d="M4460 9734c27,-2 48,-25 48,-52 0,-1 0,-2 0,-3"/>
   <path class="fil6 str4" d="M4321 9555c-6,-29 -31,-52 -61,-55"/>
   <path class="fil6 str4" d="M4321 9555c5,41 10,83 15,124"/>
   <path class="fil6 str4" d="M4288 9734c27,-2 48,-25 48,-52 0,-1 0,-2 0,-3"/>
   <path class="fil6 str4" d="M4149 9555c-7,-29 -31,-51 -61,-55"/>
   <path class="fil6 str4" d="M4149 9555c4,41 9,83 14,124"/>
   <path class="fil6 str4" d="M4115 9734c27,-2 48,-25 48,-52 0,-1 0,-2 0,-3"/>
   <path class="fil6 str4" d="M3977 9555c-7,-29 -32,-51 -61,-55"/>
   <path class="fil6 str4" d="M3977 9555c4,41 9,83 14,124"/>
   <path class="fil6 str4" d="M3943 9734c27,-2 48,-25 48,-53 0,0 0,-1 0,-2"/>
   <path class="fil6 str4" d="M3805 9555c-7,-29 -32,-51 -61,-55"/>
   <path class="fil6 str4" d="M3805 9555c4,41 9,83 14,124"/>
   <path class="fil6 str4" d="M3770 9734c28,-2 49,-25 49,-53 0,0 0,-1 0,-2"/>
   <path class="fil6 str4" d="M3632 9555c-7,-29 -31,-51 -60,-55"/>
   <path class="fil6 str4" d="M3632 9555c5,41 10,83 14,124"/>
   <path class="fil6 str4" d="M3598 9734c27,-2 48,-25 48,-53 0,0 0,-1 0,-2"/>
   <path class="fil6 str4" d="M3460 9555c-7,-29 -31,-51 -60,-55"/>
   <path class="fil6 str4" d="M3460 9555c5,41 9,83 14,124"/>
   <path class="fil6 str4" d="M3426 9734c27,-2 48,-25 48,-53 0,0 0,-1 0,-2"/>
   <path class="fil6 str4" d="M3288 9555c-7,-29 -31,-50 -61,-55"/>
   <path class="fil6 str4" d="M3302 9679c-5,-41 -9,-83 -14,-124"/>
   <path class="fil6 str4" d="M3253 9734c28,-2 49,-25 49,-53 0,0 0,-1 0,-2"/>
   <path class="fil6 str4" d="M5405 4421c26,0 47,-21 47,-47"/>
   <path class="fil6 str4" d="M5230 4421c26,0 47,-21 47,-47"/>
   <path class="fil6 str4" d="M5054 4421c26,0 47,-21 47,-47"/>
   <path class="fil6 str4" d="M4879 4421c25,0 46,-21 46,-47"/>
   <path class="fil6 str4" d="M4703 4421c26,0 47,-21 47,-47"/>
   <path class="fil6 str4" d="M4528 4421c26,0 47,-21 47,-47"/>
   <path class="fil6 str4" d="M4353 4421c26,0 46,-21 46,-47"/>
   <path class="fil6 str4" d="M4178 4421c26,0 46,-21 46,-47"/>
   <path class="fil6 str4" d="M4003 4421c25,0 46,-21 46,-47"/>
   <path class="fil6 str4" d="M3828 4421c25,0 46,-21 46,-47"/>
   <path class="fil6 str4" d="M3653 4421c26,0 47,-21 47,-47"/>
   <path class="fil6 str4" d="M3478 4421c26,0 47,-21 47,-47"/>
  </g>
  <path class="fil0" d="M3028 11430c-615,-2459 -615,-4868 0,-7227l145 38c-609,2334 -609,4718 0,7153l-145 36z"/>
  <polygon class="fil0" points="3100,4147 26987,4147 27062,4147 27062,4222 27062,11432 27062,11507 26987,11507 6297,11507 6297,11357 26912,11357 26912,4297 3100,4297 "/>
  <polygon class="fil0" points="3100,11337 5541,11337 5541,11487 3100,11487 "/>
  <polygon class="fil2" points="3092,11350 3029,11432 3100,11487 3182,11432 "/>
  <path class="fil7" d="M7692 7771l463 0 0 -43 -463 0 0 -391 521 0 0 -44 -579 0 0 1014 579 0 0 -44 -521 0 0 -492zm848 -106l32 38 327 -340 0 944 58 0 0 -1014 -54 0 -363 372z"/>
 </g>
</svg>
